<svg width="142" height="123" viewBox="0 0 142 123" fill="none" xmlns="http://www.w3.org/2000/svg">
<path d="M105.977 7.01567C115.469 14.5812 119.957 28.2509 126.774 41.4047C133.592 54.6444 142.653 67.1964 141.963 79.0606C141.272 90.9248 130.744 102.015 119.612 109.839C108.479 117.662 96.829 122.305 85.6966 122.907C74.4778 123.594 63.8632 120.327 51.9541 118.264C40.045 116.201 26.9277 115.255 17.9527 108.721C9.06405 102.101 4.31767 89.8072 1.72873 76.8253C-0.860208 63.7575 -1.2917 50.0019 5.78473 41.6626C12.7749 33.3232 27.3592 30.4862 38.9231 23.8663C50.487 17.3324 59.1168 7.01566 70.5944 2.5451C82.1584 -1.92547 96.5701 -0.549909 105.977 7.01567Z" fill="#FDE68A"/>
<path d="M99.8262 21.9721C99.8008 21.9721 99.7753 21.9721 99.7498 21.9439C99.6734 21.8876 99.6479 21.8032 99.6734 21.7188C99.9536 21.1278 100.106 20.7902 100.106 20.7902C100.132 20.7057 100.234 20.6776 100.31 20.7057C100.387 20.7339 100.412 20.8464 100.387 20.9309C100.387 20.9309 100.234 21.2685 99.9536 21.8876C99.9281 21.9439 99.8772 21.9721 99.8262 21.9721Z" fill="#D3D3D3"/>
<path d="M66.0453 74.6788C66.0199 74.6788 65.9689 74.6788 65.9434 74.6507C65.867 74.5944 65.867 74.4818 65.918 74.3974C66.3256 73.8628 66.7332 73.3 67.1408 72.7653C67.1918 72.6809 67.2937 72.6809 67.3701 72.7371C67.4465 72.7934 67.4465 72.906 67.3956 72.9904C66.9879 73.5532 66.5803 74.0879 66.1727 74.6226C66.1218 74.6507 66.0708 74.6788 66.0453 74.6788ZM68.4401 71.3583C68.4146 71.3583 68.3636 71.3583 68.3382 71.3301C68.2617 71.2739 68.2617 71.1613 68.3127 71.0769C68.6948 70.5141 69.077 69.9513 69.4591 69.3885C69.5101 69.304 69.612 69.304 69.6884 69.3603C69.7648 69.4166 69.7648 69.5291 69.7139 69.6136C69.3317 70.1764 68.9496 70.7673 68.5674 71.3301C68.5165 71.3301 68.491 71.3583 68.4401 71.3583ZM70.6819 67.9251C70.6565 67.9251 70.631 67.9252 70.58 67.897C70.5036 67.8407 70.4781 67.7282 70.5291 67.6437C70.8857 67.0528 71.2424 66.4619 71.5736 65.8709C71.6245 65.7865 71.7265 65.7583 71.8029 65.8146C71.8793 65.8709 71.9048 65.9835 71.8538 66.0679C71.5226 66.6588 71.166 67.2498 70.7838 67.8407C70.7838 67.897 70.7329 67.9251 70.6819 67.9251ZM72.7455 64.3513C72.72 64.3513 72.6945 64.3513 72.6691 64.3232C72.5926 64.2669 72.5672 64.1543 72.6181 64.0699C72.9493 63.4508 73.2805 62.8599 73.5862 62.2408C73.6371 62.1564 73.739 62.1282 73.8155 62.1845C73.8919 62.2408 73.9174 62.3534 73.8664 62.4378C73.5607 63.0569 73.2295 63.6478 72.8983 64.2669C72.8474 64.3232 72.7964 64.3513 72.7455 64.3513ZM74.6307 60.6649C74.6052 60.6649 74.5797 60.6649 74.5543 60.6368C74.4778 60.5805 74.4524 60.4961 74.4778 60.4117C74.7836 59.7926 75.0638 59.1454 75.344 58.5263C75.395 58.4419 75.4714 58.4137 75.5478 58.4419C75.6243 58.4981 75.6497 58.5826 75.6243 58.667C75.344 59.2861 75.0638 59.9333 74.7581 60.5524C74.7581 60.6368 74.6817 60.6649 74.6307 60.6649ZM76.3121 56.8379C76.2866 56.8379 76.2612 56.8379 76.2357 56.8097C76.1593 56.7816 76.1083 56.669 76.1593 56.5846C76.414 55.9374 76.6688 55.2901 76.8981 54.6429C76.9235 54.5585 77.0254 54.5022 77.1019 54.5585C77.1783 54.5866 77.2292 54.6992 77.1783 54.7836C76.949 55.4308 76.6942 56.0781 76.4395 56.7534C76.4395 56.8097 76.3631 56.8379 76.3121 56.8379ZM77.7388 52.8982C77.7133 52.8982 77.7133 52.8982 77.6878 52.8982C77.6114 52.8701 77.5604 52.7575 77.5859 52.6731C77.7897 51.9977 77.9935 51.3224 78.1718 50.6751C78.1973 50.5907 78.2737 50.5344 78.3757 50.5626C78.4521 50.5907 78.503 50.6751 78.4776 50.7877C78.2992 51.4631 78.0954 52.1384 77.8916 52.8138C77.8661 52.8701 77.7897 52.8982 77.7388 52.8982ZM78.8342 48.846H78.8087C78.7323 48.8179 78.6814 48.7334 78.6814 48.6209C78.8342 47.9174 78.9616 47.242 79.0635 46.5666C79.089 46.4822 79.1654 46.3978 79.2418 46.4259C79.3183 46.4541 79.3947 46.5385 79.3692 46.6229C79.2673 47.2983 79.1145 48.0018 78.9616 48.7053C78.9616 48.7897 78.9106 48.846 78.8342 48.846ZM76.0064 45.1315C75.5478 45.1315 75.0638 45.1033 74.6052 45.0471C74.5288 45.0471 74.4524 44.9626 74.4524 44.8501C74.4524 44.7657 74.5288 44.6812 74.6307 44.6812C75.2676 44.7657 75.879 44.7657 76.5159 44.7375C76.5923 44.7375 76.6688 44.8219 76.6688 44.9064C76.6688 44.9908 76.5923 45.0752 76.5159 45.0752C76.3631 45.1315 76.1847 45.1315 76.0064 45.1315ZM78.4266 44.8782C78.3502 44.8782 78.2737 44.8219 78.2737 44.7375C78.2483 44.6531 78.3247 44.5405 78.4011 44.5405C78.7068 44.4842 79.038 44.3998 79.3437 44.3154C79.3947 43.6682 79.4202 43.021 79.4202 42.4019C79.4202 42.3174 79.4966 42.233 79.573 42.233C79.6494 42.233 79.7259 42.3174 79.7259 42.4019C79.7259 42.9928 79.7004 43.5838 79.6494 44.2028C79.8278 44.1466 80.0316 44.0903 80.2099 44.0059C80.2863 43.9777 80.3882 44.034 80.4137 44.1184C80.4392 44.2028 80.3882 44.3154 80.3118 44.3435C80.0825 44.428 79.8533 44.5124 79.5985 44.5687C79.573 44.625 79.4966 44.6812 79.4456 44.6531C79.4202 44.6531 79.3947 44.6531 79.3692 44.625C79.0635 44.7094 78.7323 44.7938 78.4266 44.8501C78.4521 44.8782 78.4521 44.8782 78.4266 44.8782ZM72.72 44.6812C72.6945 44.6812 72.6945 44.6812 72.6691 44.6812C72.0067 44.5124 71.3953 44.2873 70.8348 44.034C70.7584 44.0059 70.7074 43.8933 70.7584 43.8089C70.7838 43.7245 70.8858 43.6682 70.9622 43.7245C71.5226 43.9777 72.1341 44.1747 72.771 44.3717C72.8474 44.3998 72.8983 44.4842 72.8983 44.5968C72.8729 44.625 72.7964 44.6812 72.72 44.6812ZM82.0697 43.6119C82.0187 43.6119 81.9423 43.5838 81.9168 43.4993C81.8913 43.4149 81.9168 43.3024 81.9932 43.2742C82.5537 42.9928 83.1142 42.6833 83.7001 42.3174C83.7765 42.2612 83.8784 42.2893 83.9294 42.3737C83.9803 42.4581 83.9549 42.5707 83.8784 42.627C83.318 42.9928 82.732 43.3024 82.1461 43.5838C82.1206 43.6119 82.0951 43.6119 82.0697 43.6119ZM69.2043 43.0772C69.1789 43.0772 69.1534 43.0772 69.1279 43.0491C68.542 42.6551 68.0325 42.1767 67.6248 41.6984C67.5739 41.6139 67.5739 41.5295 67.6248 41.4451C67.7013 41.3888 67.7777 41.3888 67.8541 41.4451C68.2617 41.9235 68.7458 42.3737 69.3062 42.7396C69.3827 42.7958 69.4082 42.9084 69.3572 42.9928C69.3062 43.0491 69.2553 43.0772 69.2043 43.0772ZM85.407 41.5295C85.356 41.5295 85.3051 41.5014 85.2796 41.4451C85.2287 41.3607 85.2541 41.2481 85.3306 41.1918C85.8401 40.7979 86.3496 40.3758 86.8591 39.9537C86.9355 39.8974 87.0374 39.8974 87.0884 39.9818C87.1393 40.0662 87.1393 40.1788 87.0629 40.2351C86.5534 40.6853 86.0184 41.1074 85.5089 41.5014C85.4834 41.5295 85.4579 41.5295 85.407 41.5295ZM79.4966 40.4602C79.4202 40.4602 79.3437 40.4039 79.3437 40.3195C79.2673 39.5878 79.1399 38.9125 78.9616 38.2652C78.9361 38.1808 78.9871 38.0683 79.0635 38.0401C79.1399 38.012 79.2418 38.0683 79.2673 38.1527C79.4456 38.7999 79.573 39.5034 79.6494 40.2632C79.6494 40.3476 79.5985 40.432 79.4966 40.4602ZM66.6058 40.0381C66.5549 40.0381 66.4784 40.0099 66.4529 39.9255C66.1727 39.2783 65.9689 38.5748 65.8925 37.8431C65.8925 37.7587 65.9434 37.6461 66.0199 37.6461C66.1218 37.6461 66.1982 37.7024 66.1982 37.7869C66.2746 38.4622 66.4529 39.1376 66.7332 39.7567C66.7841 39.8411 66.7332 39.9537 66.6568 39.9818C66.6568 40.0099 66.6313 40.0381 66.6058 40.0381ZM88.4131 38.9125C88.3622 38.9125 88.3367 38.8843 88.2858 38.8562C88.2348 38.7718 88.2348 38.6592 88.2858 38.6029C88.7443 38.1527 89.2029 37.6461 89.6615 37.1396C89.7124 37.0833 89.8143 37.0833 89.8907 37.1396C89.9417 37.1959 89.9417 37.3085 89.8907 37.3929C89.4322 37.8994 88.9481 38.4059 88.4896 38.8562C88.4896 38.8843 88.4641 38.9125 88.4131 38.9125ZM78.3757 36.4361C78.3247 36.4361 78.2738 36.408 78.2228 36.3517C77.9171 35.7045 77.6114 35.0854 77.2802 34.5226C77.2292 34.4382 77.2547 34.3256 77.3311 34.2693C77.4076 34.213 77.5095 34.2412 77.5604 34.3256C77.8916 34.8884 78.2228 35.5075 78.5285 36.1829C78.5795 36.2673 78.5285 36.3798 78.4521 36.408C78.4011 36.4361 78.4011 36.4361 78.3757 36.4361ZM91.1391 35.9014C91.0881 35.9014 91.0626 35.8733 91.0372 35.8452C90.9607 35.7889 90.9607 35.6763 91.0372 35.5919C91.4448 35.0854 91.8779 34.5507 92.2855 34.016C92.3364 33.9316 92.4383 33.9316 92.5148 33.9879C92.5912 34.0442 92.5912 34.1568 92.5402 34.2412C92.1326 34.804 91.6995 35.3386 91.2664 35.8452C91.2155 35.9015 91.19 35.9014 91.1391 35.9014ZM66.1472 35.9014H66.1218C66.0453 35.8733 65.9689 35.7889 65.9944 35.7045C66.1218 35.001 66.3256 34.2974 66.6313 33.6502C66.6822 33.5658 66.7587 33.5377 66.8351 33.5658C66.9115 33.6221 66.937 33.7065 66.9115 33.7909C66.6313 34.41 66.4275 35.0572 66.3001 35.7326C66.2746 35.8452 66.1982 35.9014 66.1472 35.9014ZM76.2357 32.9186C76.1847 32.9186 76.1593 32.8904 76.1083 32.8623C75.6497 32.3276 75.1912 31.8492 74.7071 31.4834C74.6307 31.4271 74.6307 31.3146 74.6817 31.2302C74.7326 31.1457 74.8345 31.1457 74.9109 31.202C75.4205 31.596 75.9045 32.0744 76.3631 32.6372C76.414 32.7216 76.414 32.8342 76.3631 32.8904C76.3121 32.9186 76.2866 32.9186 76.2357 32.9186ZM93.6102 32.6653C93.5847 32.6653 93.5338 32.6653 93.5083 32.6372C93.4319 32.5809 93.4319 32.4683 93.4828 32.3839C93.865 31.8492 94.2471 31.2583 94.6292 30.6955C94.6802 30.6111 94.7821 30.6111 94.8585 30.6673C94.935 30.7236 94.935 30.8362 94.884 30.9206C94.5019 31.5116 94.1197 32.0744 93.7376 32.609C93.7121 32.6372 93.6612 32.6653 93.6102 32.6653ZM67.8796 32.1869C67.8286 32.1869 67.8032 32.1588 67.7777 32.1306C67.7267 32.0744 67.7013 31.9618 67.7777 31.8774C68.2363 31.3427 68.7713 30.8925 69.3572 30.5829C69.4336 30.5266 69.5355 30.5829 69.561 30.6673C69.612 30.7518 69.561 30.8643 69.4846 30.8925C68.9496 31.202 68.4401 31.6241 68.007 32.1306C67.956 32.1588 67.9051 32.1869 67.8796 32.1869ZM73.1276 30.5548C73.1022 30.5548 73.1021 30.5548 73.0767 30.5548C72.6181 30.3859 72.1341 30.3015 71.65 30.3015C71.5226 30.3015 71.3698 30.3015 71.2424 30.3297C71.166 30.3297 71.0896 30.2734 71.0641 30.1608C71.0641 30.0764 71.115 29.992 71.2169 29.9638C71.3698 29.9357 71.5226 29.9357 71.65 29.9357C72.1595 29.9357 72.6691 30.0201 73.1786 30.189C73.255 30.2171 73.306 30.3297 73.2805 30.4141C73.255 30.4985 73.1786 30.5548 73.1276 30.5548ZM95.8776 29.2322C95.8521 29.2322 95.8266 29.2322 95.7757 29.204C95.6992 29.1478 95.6738 29.0352 95.7247 28.9508C96.0814 28.388 96.438 27.7689 96.7692 27.1779C96.8202 27.0935 96.9221 27.0654 96.9985 27.1217C97.0749 27.1779 97.1004 27.2905 97.0495 27.3749C96.6928 27.9659 96.3361 28.5568 95.9795 29.1478C95.9795 29.204 95.9285 29.2322 95.8776 29.2322ZM97.9411 25.6584C97.9156 25.6584 97.8902 25.6584 97.8647 25.6302C97.7883 25.5739 97.7628 25.4614 97.8137 25.377C98.1449 24.7579 98.4761 24.1388 98.7818 23.5478C98.8328 23.4634 98.9092 23.4353 99.0111 23.4916C99.0875 23.5478 99.113 23.6604 99.062 23.7448C98.7563 24.3639 98.4252 24.983 98.094 25.5739C98.043 25.6302 97.9921 25.6584 97.9411 25.6584Z" fill="#D3D3D3"/>
<path d="M47.9829 44.1466C47.5753 47.2139 49.486 50.0561 52.2628 50.5063C52.8488 50.5908 53.4092 50.5908 53.9697 50.4501L48.5179 42.3738C48.2631 42.9084 48.0848 43.4994 47.9829 44.1466Z" fill="#CCE9FF"/>
<path d="M48.5178 42.3738L53.9442 50.4782C54.5811 50.3375 55.1925 50.0842 55.7275 49.6903L49.7152 40.7135C49.2311 41.1637 48.8235 41.7266 48.5178 42.3738Z" fill="white"/>
<path d="M57.6891 47.1296C57.842 46.7075 57.9694 46.2572 58.0203 45.807C58.4279 42.7397 56.5172 39.8975 53.7404 39.4472C53.3073 39.391 52.8997 39.3628 52.4921 39.4191L57.6891 47.1296Z" fill="white"/>
<path d="M49.7153 40.7134L55.7276 49.6902C56.5938 49.0711 57.2562 48.1987 57.6638 47.1294L52.4922 39.4189C51.4477 39.5315 50.5051 39.9818 49.7153 40.7134Z" fill="#CCE9FF"/>
<path d="M58.8473 47.8914L57.9644 49.5049L59.7085 50.6694L60.5915 49.0559L58.8473 47.8914Z" fill="#2A94F4"/>
<path d="M55.651 40.0944C53.2563 38.4904 50.1227 39.3346 48.6706 42.0079C47.2185 44.6531 47.9828 48.1144 50.403 49.7184C52.7977 51.3224 55.9312 50.4782 57.3834 47.8048C58.8355 45.1596 58.0457 41.6984 55.651 40.0944ZM56.7465 47.4109C55.4981 49.6902 52.8232 50.4219 50.7596 49.043C48.6961 47.6641 48.0337 44.7094 49.282 42.43C50.5304 40.1507 53.2053 39.419 55.2689 40.7979C57.3324 42.1768 57.9948 45.1315 56.7465 47.4109Z" fill="#0E538D"/>
<path d="M56.3644 38.7999C53.3073 36.7738 49.3331 37.8431 47.4988 41.22C45.6646 44.5968 46.6326 48.9867 49.6897 51.0128C52.7469 53.0389 56.7211 51.9696 58.5553 48.5927C60.3896 45.244 59.396 40.8541 56.3644 38.7999ZM57.3835 47.8329C55.9313 50.4781 52.7978 51.3505 50.4031 49.7465C48.0083 48.1425 47.2186 44.6812 48.6707 42.036C50.1228 39.3908 53.2564 38.5185 55.6511 40.1225C58.0458 41.6983 58.8356 45.1596 57.3835 47.8329Z" fill="#2A94F4"/>
<path d="M59.447 49.015L67.8031 54.5868L68.2107 53.8551C68.3636 53.5737 68.2871 53.236 68.0324 53.0672L60.1349 47.8049L59.447 49.015Z" fill="#2A94F4"/>
<path d="M58.479 50.7596L66.3765 56.0218C66.6313 56.1907 66.937 56.1063 67.0898 55.8249L67.7777 54.5867L59.4216 49.0149L58.479 50.7596Z" fill="#0E538D"/>
<path d="M105.762 42.4863C105.762 42.4581 105.762 42.43 105.737 42.4019C105.609 41.5014 105.38 40.6572 105.074 39.8411L106.603 37.7024L105.405 36.014L104.998 35.4512L104.208 34.3256L101.966 35.4512C101.304 34.9165 100.591 34.4381 99.8008 34.1005L99.5206 31.399L97.5844 31.1457L96.922 31.0613L95.6482 30.8925L95.0623 32.609L94.7821 33.4251C94.7566 33.4251 94.7311 33.4251 94.7056 33.4532C93.9159 33.5939 93.1261 33.8472 92.3873 34.1849L90.4512 32.4965L88.9226 33.8191L88.1583 34.4944L87.3941 35.1698L88.4131 37.6461C87.9291 38.3778 87.5214 39.1657 87.1903 40.0381L84.7446 40.3476L84.5153 42.4863L84.4389 43.2179L84.286 44.6249L86.5788 45.5536C86.5788 45.5817 86.5788 45.6099 86.6043 45.638C86.7317 46.5103 86.961 47.3827 87.2667 48.1988L85.7381 50.3374L86.9355 52.0259L88.1329 53.7143L90.3747 52.5887C91.0371 53.1233 91.7504 53.6017 92.5402 53.9394L92.8204 56.6409L94.7566 56.8941L96.6928 57.1474L97.5335 54.6148C98.3742 54.4741 99.1639 54.2208 99.9282 53.8831L101.864 55.5715L103.393 54.2489L104.921 52.9263L103.902 50.45C104.386 49.7183 104.82 48.9304 105.125 48.0581L107.571 47.7485L107.8 45.6099L107.877 44.8782L108.03 43.4712L105.762 42.4863ZM96.1832 50.7595C92.8204 50.7595 90.0945 47.7485 90.0945 44.034C90.0945 40.3195 92.8204 37.3085 96.1832 37.3085C99.5461 37.3085 102.272 40.3195 102.272 44.034C102.272 47.7485 99.5461 50.7595 96.1832 50.7595Z" fill="#2A94F4"/>
<path d="M96.1833 37.3086C92.8205 37.3086 90.0946 40.3196 90.0946 44.0341C90.0946 47.7487 92.8205 50.7597 96.1833 50.7597C99.5461 50.7597 102.272 47.7487 102.272 44.0341C102.272 40.3196 99.5461 37.3086 96.1833 37.3086ZM101.329 44.7095C100.998 47.8331 98.4252 50.0843 95.5719 49.7185C92.7441 49.3527 90.706 46.5105 91.0372 43.3588C91.3684 40.2352 93.9415 37.984 96.7948 38.3498C99.6226 38.7438 101.661 41.5859 101.329 44.7095Z" fill="#0E538D"/>
<path d="M96.1833 48.818C96.005 48.818 95.8267 48.818 95.6738 48.7899L95.6993 48.5085C96.0305 48.5648 96.3616 48.5366 96.6928 48.5085L96.7183 48.7899C96.54 48.7899 96.3616 48.818 96.1833 48.818ZM94.6548 48.5085C94.3236 48.3678 94.0179 48.1989 93.7376 47.9738L93.8905 47.7487C94.1707 47.9457 94.451 48.1145 94.7567 48.2552L94.6548 48.5085ZM97.7119 48.5085L97.61 48.2552C97.9157 48.1145 98.1959 47.9457 98.4761 47.7487L98.629 47.9738C98.3488 48.1708 98.0431 48.3678 97.7119 48.5085ZM92.9479 47.214C92.7186 46.9326 92.5148 46.5949 92.3619 46.2572L92.5912 46.1165C92.7441 46.4261 92.9224 46.7356 93.1517 47.017L92.9479 47.214ZM99.4187 47.214L99.2404 47.017C99.4697 46.7356 99.648 46.4542 99.8009 46.1165L100.03 46.2572C99.8518 46.5949 99.648 46.9045 99.4187 47.214ZM91.9798 45.1879C91.9034 44.8221 91.8524 44.4281 91.8524 44.0342H92.1072C92.1072 44.4 92.1581 44.7658 92.2346 45.1035L91.9798 45.1879ZM100.387 45.1879L100.132 45.1316C100.208 44.7939 100.259 44.4281 100.259 44.0623H100.438H100.514C100.514 44.4281 100.463 44.7939 100.387 45.1879ZM92.2091 42.9648L91.9543 42.9085C92.0307 42.5427 92.1581 42.1769 92.311 41.8392L92.5403 41.9799C92.4129 42.2613 92.2855 42.599 92.2091 42.9648ZM100.132 42.9367C100.056 42.599 99.9283 42.2332 99.7754 41.9236L100.005 41.7829C100.158 42.1206 100.285 42.4864 100.387 42.8523L100.132 42.9367ZM93.1262 41.0513L92.9224 40.8543C93.1517 40.5729 93.4064 40.3196 93.7122 40.0945L93.865 40.3196C93.5848 40.5448 93.33 40.7699 93.1262 41.0513ZM99.2149 41.0231C98.9857 40.7417 98.7564 40.5166 98.4761 40.3196L98.629 40.0945C98.9092 40.3196 99.1895 40.5729 99.4187 40.8543L99.2149 41.0231ZM94.7312 39.8131L94.6293 39.5598C94.9605 39.4191 95.2917 39.3347 95.6483 39.2784L95.6738 39.5598C95.3426 39.6161 95.0369 39.7005 94.7312 39.8131ZM97.61 39.8131C97.3043 39.6724 96.9731 39.588 96.6674 39.5598L96.6928 39.2784C97.0495 39.3347 97.3807 39.4191 97.7119 39.5598L97.61 39.8131Z" fill="#4478A0"/>
<path d="M62.708 14.3178L61.638 13.2766L61.0775 13.9801L62.1475 15.0213L62.708 14.3178Z" fill="#FFD597"/>
<path d="M60.7464 18.0041L61.0266 17.1318L58.3516 16.0343L58.0714 16.9067L60.7464 18.0041Z" fill="#FFD597"/>
<path d="M58.9167 20.4144L58.9116 21.343L60.3383 21.3526L60.3434 20.424L58.9167 20.4144Z" fill="#FFD597"/>
<path d="M61.0011 24.6172L60.6954 23.7449L58.0204 24.8142L58.3006 25.6866L61.0011 24.6172Z" fill="#FFD597"/>
<path d="M62.6316 27.4594L62.0966 26.7559L61.0011 27.7408L61.5361 28.4724L62.6316 27.4594Z" fill="#FFD597"/>
<path d="M63.5997 32.2151L65.0263 29.5137L64.313 29.0353L62.8864 31.7649L63.5997 32.2151Z" fill="#FFD597"/>
<path d="M77.6624 29.5699L78.2229 28.8382L76.0319 26.8121L75.4969 27.5438L77.6624 29.5699Z" fill="#FFD597"/>
<path d="M78.554 25.2926L78.8342 24.4203L77.4585 23.8293L77.1528 24.7017L78.554 25.2926Z" fill="#FFD597"/>
<path d="M80.6939 21.4373V20.5087H77.8406V21.4373H80.6939Z" fill="#FFD597"/>
<path d="M78.5287 16.6961L77.1864 17.23L77.4712 18.1037L78.8136 17.5698L78.5287 16.6961Z" fill="#FFD597"/>
<path d="M78.2738 13.0797L77.7133 12.3762L75.5479 14.3742L76.0828 15.1058L78.2738 13.0797Z" fill="#FFD597"/>
<path d="M73.841 12.8264L74.6053 11.4757L73.892 10.9973L73.1277 12.3199L73.841 12.8264Z" fill="#FFD597"/>
<path d="M71.0385 11.5038L71.548 8.40834L70.7073 8.2395L70.2233 11.3349L71.0385 11.5038Z" fill="#FFD597"/>
<path d="M68.0069 11.3349L67.8286 9.78723L66.9879 9.89979L67.1662 11.4757L68.0069 11.3349Z" fill="#FFD597"/>
<path d="M65.1027 12.3198L63.6761 9.59021L62.9373 10.0686L64.3639 12.7701L65.1027 12.3198Z" fill="#FFD597"/>
<path d="M64.4403 22.2253C64.7969 24.8704 66.2491 27.0091 68.2107 28.191C68.4909 28.3598 68.6693 28.6694 68.7202 29.0071L69.2807 33.2563L66.8095 33.6502L66.1981 29.0634C66.1472 28.7257 65.9688 28.4161 65.6886 28.2473C63.7269 27.0654 62.2748 24.8986 61.9182 22.2815C61.3067 17.6665 64.3384 13.3892 68.6183 12.9952C69.1788 12.9389 69.7138 12.9671 70.2488 13.0515C66.4529 13.9239 63.8798 17.9198 64.4403 22.2253Z" fill="white"/>
<path d="M64.4403 22.2253C64.7969 24.8704 66.2491 27.0091 68.2107 28.191C68.4909 28.3598 68.6693 28.6694 68.7202 29.0071L69.2807 33.2563L66.8095 33.6502L66.1981 29.0634C66.1472 28.7257 65.9688 28.4161 65.6886 28.2473C63.7269 27.0654 62.2748 24.8986 61.9182 22.2815C61.3067 17.6665 64.3384 13.3892 68.6183 12.9952C69.1788 12.9389 69.7138 12.9671 70.2488 13.0515C66.4529 13.9239 63.8798 17.9198 64.4403 22.2253Z" fill="#FFD597"/>
<path d="M76.465 19.8051C76.8726 22.5066 76.0319 25.0955 74.4269 26.8965C74.1976 27.1498 74.0957 27.4874 74.1466 27.8251L74.7581 32.3839L69.2553 33.2562L68.6948 29.007C68.6439 28.6693 68.4655 28.3598 68.1853 28.191C66.2237 27.0091 64.7715 24.8423 64.4149 22.2252C63.8544 17.9197 66.4275 13.9519 70.2234 13.0796C73.3569 13.5861 75.9554 16.2594 76.465 19.8051Z" fill="#FFBE55"/>
<path d="M68.4909 33.7067L68.0324 30.1328C68.0069 30.0203 68.0579 29.9359 68.1343 29.8514L66.0453 30.1891C65.9179 30.2173 65.816 30.358 65.8415 30.4987L66.3 34.0725L69.0259 36.1267L72.9747 35.5077L73.0002 35.4795L71.2169 35.7609L68.4909 33.7067Z" fill="#D3D3D3"/>
<path d="M74.86 29.0914C74.8345 28.9507 74.7071 28.8381 74.5797 28.8663L68.1598 29.8793C68.0834 29.9356 68.0324 30.0482 68.0579 30.1607L68.5165 33.7346L71.2424 35.7888L73.0257 35.5074L75.3185 32.6652L74.86 29.0914Z" fill="#F2F2F2"/>
<path d="M71.8792 37.0553L70.4016 37.2804C69.6883 37.393 69.0005 36.8302 68.8986 36.0422L73.0002 35.395C73.1021 36.2111 72.5926 36.9427 71.8792 37.0553Z" fill="#2A94F4"/>
<path d="M65.9773 31.5912L74.9785 30.1506L74.8872 29.4544L65.886 30.895L65.9773 31.5912Z" fill="#2A94F4"/>
<path d="M66.1508 32.8354L75.152 31.3948L75.0606 30.6985L66.0594 32.1391L66.1508 32.8354Z" fill="#2A94F4"/>
<path d="M66.2987 34.0837L75.2999 32.6431L75.2086 31.9468L66.2074 33.3874L66.2987 34.0837Z" fill="#2A94F4"/>
<path d="M96.3361 20.5087L88.5659 18.6233L114.118 5.17224L96.3361 20.5087Z" fill="#2A94F4"/>
<path d="M96.3361 20.5087L96.7946 27.6564L99.3422 22.7881L114.118 5.17224L96.3361 20.5087Z" fill="#0E538D"/>
<path d="M96.7947 27.6564L101.406 24.8986L99.3423 22.7881L96.7947 27.6564Z" fill="#094971"/>
<path d="M99.3422 22.7881L105.125 30.7518L114.118 5.17224L99.3422 22.7881Z" fill="#2A94F4"/>
<path d="M93.4064 98.6828C99.2913 92.8014 103.062 83.9372 103.062 74.0037C103.062 69.248 102.196 64.7455 100.642 60.6652H51.9571C50.4031 64.7174 49.5624 69.2198 49.5369 73.9755C49.5369 74.0037 49.5369 74.0037 49.5114 74.0318L42.1489 88.7211L47.3205 90.0437L48.6198 108.25C48.6198 108.363 48.7217 108.447 48.8236 108.447L61.1539 108.307C61.1794 108.307 61.2049 108.307 61.2303 108.307H66.5293L68.5929 119H97.4315C97.5589 119 97.6608 118.859 97.6353 118.719L93.4064 98.6828Z" fill="#FFBE55"/>
<path d="M61.2557 108.307C61.3322 108.335 61.3831 108.391 61.3831 108.475L62.8607 118.803C62.8862 118.916 62.9626 119 63.0645 119H68.6183L66.5547 108.307H61.2557Z" fill="#EFA233"/>
</svg>
