<svg width="149" height="151" viewBox="0 0 149 151" fill="none" xmlns="http://www.w3.org/2000/svg">
<path d="M102.517 26.7938C111.917 37.6938 118.917 47.7938 128.717 60.9938C138.617 74.1938 151.317 90.5938 148.317 102.394C145.317 114.294 126.717 121.694 110.917 129.194C95.2174 136.694 82.4174 144.394 66.9174 148.194C51.4174 151.894 33.2174 151.594 20.4174 143.094C7.71736 134.594 0.317361 117.894 0.0173613 102.194C-0.382639 86.5938 6.21736 72.1938 10.7174 56.5938C15.1174 41.0938 17.5174 24.4938 27.0174 13.5938C36.5174 2.79382 53.0174 -2.30618 67.2174 0.99382C81.4174 4.29382 93.2174 15.8938 102.517 26.7938Z" fill="#FDE68A"/>
<path d="M130.959 37.4541L135.254 31.0105C135.792 30.2023 135.844 29.1627 135.385 28.306C134.928 27.4486 134.035 26.9133 133.062 26.9133H106.71C105.253 26.9133 104.075 28.0922 104.075 29.5485V45.3601C104.075 46.8168 105.253 47.9953 106.71 47.9953H133.062C134.035 47.9953 134.928 47.46 135.386 46.6026C135.844 45.7459 135.792 44.7059 135.255 43.8981L130.959 37.4541Z" fill="#2A94F4"/>
<path d="M106.288 65.529C104.831 65.529 103.652 64.3509 103.652 62.8938V28.6356C103.652 27.1785 104.832 26 106.288 26C107.744 26 108.923 27.1785 108.923 28.6356V62.8938C108.923 64.3509 107.745 65.529 106.288 65.529Z" fill="#0B4870"/>
<path d="M12 104.196V131H126.562V65.2327C126.562 63.8653 125.455 62.7585 124.087 62.7585H89.0984C87.7332 62.7585 86.6261 63.8653 86.6261 65.2327V82.1042C86.6131 82.1024 86.5997 82.1024 86.5867 82.1024H51.5979C50.2327 82.1024 49.1256 83.2092 49.1256 84.5766V101.722H14.4724C13.1068 101.722 12 102.829 12 104.196Z" fill="#FFBE55"/>
</svg>
