<svg width="618" height="542" viewBox="0 0 618 542" fill="none" xmlns="http://www.w3.org/2000/svg">
<path d="M535.491 152.801C525.173 151.887 517.859 159.998 507.346 161.233C503.064 161.731 498.621 161.498 494.621 163.275C488.419 166.044 484.751 172.909 483.075 179.569C481.896 184.241 481.265 189.39 477.968 192.939C474.986 196.144 470.543 197.235 466.903 199.582C456.722 206.181 454.786 220.138 453.126 230.94C452.318 236.166 451.854 241.542 453.198 246.596C453.281 246.901 455.074 251.308 455.074 251.308L482.272 217.99C500.01 196.26 517.504 174.254 535.524 152.784L535.491 152.801Z" fill="#0E538C"/>
<path d="M535.491 152.801C535.181 153.183 536.47 159.738 536.36 161.105C536.094 164.828 534.705 168.382 532.376 171.297C529.853 174.564 526.844 178.085 527.026 182.115C527.187 185.509 529.627 188.205 530.385 191.477C531.447 196.072 529.04 200.966 526.213 204.958C520.924 212.437 514.013 218.201 506.162 222.563C498.848 226.621 496.652 231.753 492.231 238.812C486.997 247.172 479.412 248.307 471.036 250.488C467.212 251.485 463.876 252.647 459.859 252.315C459.561 252.315 455.057 251.335 455.057 251.335L535.491 152.801Z" fill="#0B4870"/>
<path d="M454.653 251.8C454.533 251.689 454.461 251.536 454.452 251.373C454.443 251.21 454.497 251.049 454.603 250.926L535.038 152.38C535.086 152.316 535.147 152.263 535.217 152.222C535.287 152.182 535.364 152.156 535.443 152.146C535.523 152.136 535.604 152.141 535.682 152.162C535.759 152.184 535.832 152.22 535.895 152.269C536.015 152.38 536.087 152.534 536.096 152.697C536.106 152.86 536.051 153.02 535.945 153.144L455.511 251.69C455.462 251.753 455.401 251.807 455.331 251.847C455.262 251.887 455.185 251.913 455.105 251.924C455.025 251.934 454.944 251.928 454.867 251.907C454.789 251.886 454.717 251.85 454.653 251.8Z" fill="#F5FAFA"/>
<path d="M475.368 226.433C475.33 226.398 475.297 226.359 475.268 226.317C475.18 226.177 475.148 226.009 475.179 225.847C475.21 225.685 475.301 225.54 475.434 225.442C476.48 224.662 501.261 206.392 516.448 209.542C516.528 209.555 516.603 209.586 516.67 209.631C516.737 209.677 516.793 209.737 516.834 209.807C516.875 209.876 516.9 209.954 516.908 210.035C516.916 210.115 516.906 210.196 516.879 210.273C516.842 210.434 516.745 210.575 516.607 210.667C516.469 210.758 516.301 210.794 516.138 210.765C501.476 207.721 476.358 226.267 476.109 226.433C476.003 226.517 475.873 226.562 475.738 226.562C475.604 226.562 475.473 226.517 475.368 226.433V226.433Z" fill="#F5FAFA"/>
<path d="M499.496 196.87C499.402 196.788 499.335 196.679 499.306 196.558C499.276 196.437 499.284 196.31 499.33 196.194C499.402 195.995 506.478 176.264 497.764 168.961C497.644 168.85 497.572 168.697 497.563 168.534C497.553 168.371 497.608 168.21 497.714 168.086C497.762 168.023 497.823 167.969 497.892 167.929C497.961 167.889 498.038 167.863 498.117 167.853C498.196 167.842 498.277 167.848 498.354 167.869C498.431 167.89 498.503 167.926 498.566 167.976C507.916 175.826 500.779 195.723 500.464 196.565C500.411 196.721 500.299 196.851 500.153 196.927C500.007 197.004 499.837 197.021 499.678 196.975C499.612 196.951 499.55 196.915 499.496 196.87V196.87Z" fill="#F5FAFA"/>
<path d="M608.379 207.206C605.502 216.291 600.633 229.074 592.223 233.907C588.212 236.216 583.537 237.882 580.018 241.171C575.963 244.963 575.365 249.973 572.023 254.076C558.468 270.729 540.172 253.577 526.943 265.12C523.701 267.944 521.516 271.958 518.312 274.837C514.207 278.529 508.796 279.985 503.778 279.913C494.594 279.781 485.393 276.636 477.597 272.583C472.319 269.815 466.648 269.018 462.2 264.65C461.979 264.428 458.88 260.525 458.88 260.531L608.379 207.206Z" fill="#2A94F4"/>
<path d="M608.373 207.206C605.469 208.202 599.006 201.326 596.804 199.975C591.498 196.709 585.058 194.212 578.591 193.83C574.27 193.575 569.506 194.777 566.015 198.065C564.715 199.294 563.57 200.833 562.009 201.575C559.708 202.682 557.179 201.786 555.37 200.335C548.731 195.054 542.855 191.167 533.549 196.659C526.539 200.795 517.305 208.617 512.022 214.901C510.146 217.116 508.342 219.662 505.819 220.886C503.534 221.993 501.056 221.86 498.627 222.048C484.607 223.156 467.19 235.994 461.979 250.339C461.801 250.831 458.659 260.592 458.847 260.531L608.373 207.206Z" fill="#2A94F4"/>
<path d="M458.106 260.797C458.122 260.894 458.161 260.987 458.218 261.068C458.275 261.149 458.35 261.216 458.436 261.264C458.523 261.312 458.619 261.341 458.718 261.347C458.817 261.353 458.916 261.337 459.007 261.301L608.534 207.97C608.736 207.893 608.905 207.748 609.012 207.56C609.119 207.372 609.157 207.153 609.12 206.94C609.103 206.842 609.065 206.75 609.008 206.669C608.95 206.588 608.876 206.521 608.789 206.473C608.703 206.424 608.607 206.396 608.508 206.39C608.409 206.383 608.31 206.399 608.218 206.436L458.698 259.767C458.494 259.842 458.323 259.986 458.214 260.174C458.106 260.362 458.068 260.583 458.106 260.797V260.797Z" fill="#F5FAFA"/>
<path d="M496.613 247.067C496.625 247.133 496.648 247.196 496.679 247.255C496.727 247.343 496.793 247.419 496.872 247.478C496.952 247.538 497.044 247.579 497.141 247.6C497.239 247.62 497.339 247.62 497.436 247.597C497.533 247.575 497.624 247.532 497.703 247.471C499.114 246.524 532.282 224.136 537.3 203.325C537.331 203.229 537.341 203.127 537.329 203.027C537.317 202.927 537.284 202.83 537.231 202.744C537.179 202.658 537.108 202.584 537.025 202.528C536.941 202.471 536.847 202.433 536.747 202.417C536.533 202.4 536.321 202.463 536.149 202.592C535.978 202.722 535.86 202.909 535.818 203.12C530.971 223.211 497.343 245.899 497.006 246.126C496.856 246.228 496.74 246.371 496.67 246.538C496.6 246.705 496.58 246.889 496.613 247.067Z" fill="#F5FAFA"/>
<path d="M541.461 231.067C541.486 231.219 541.564 231.357 541.68 231.458C541.796 231.559 541.943 231.616 542.097 231.621C542.346 231.621 567.293 232.385 570.314 247.045C570.33 247.142 570.369 247.235 570.426 247.316C570.483 247.397 570.558 247.463 570.645 247.511C570.731 247.559 570.828 247.587 570.927 247.592C571.025 247.598 571.124 247.581 571.216 247.543C571.419 247.467 571.589 247.323 571.697 247.135C571.806 246.947 571.845 246.727 571.808 246.513C568.588 230.79 543.414 230.021 542.341 229.999C542.126 230.005 541.92 230.089 541.762 230.234C541.604 230.379 541.503 230.577 541.478 230.79C541.456 230.881 541.45 230.974 541.461 231.067V231.067Z" fill="#F5FAFA"/>
<path d="M480.303 254.253C480.328 254.405 480.406 254.543 480.522 254.644C480.638 254.745 480.785 254.802 480.939 254.806C481.188 254.806 506.135 255.57 509.156 270.23C509.172 270.328 509.211 270.421 509.268 270.502C509.325 270.582 509.4 270.649 509.487 270.697C509.573 270.745 509.67 270.773 509.768 270.778C509.867 270.784 509.966 270.767 510.057 270.729C510.261 270.654 510.432 270.51 510.541 270.322C510.649 270.133 510.687 269.913 510.649 269.699C507.429 253.976 482.256 253.206 481.188 253.184C480.973 253.191 480.766 253.274 480.607 253.419C480.448 253.564 480.346 253.762 480.319 253.976C480.298 254.067 480.292 254.16 480.303 254.253V254.253Z" fill="#F5FAFA"/>
<path d="M592.173 299.052C587.714 289.696 577.003 287.509 570.646 279.077C568.046 275.628 565.998 271.681 562.424 269.112C556.919 265.148 549.146 265.475 542.54 267.401C537.92 268.752 533.134 270.817 528.432 269.765C524.16 268.819 520.968 265.536 517.095 263.592C506.257 258.145 493.244 263.532 483.097 267.573C478.184 269.527 473.315 271.847 469.641 275.567C469.42 275.789 466.537 279.57 466.532 279.57L509.006 286.158C536.719 290.454 564.538 294.402 592.168 299.069L592.173 299.052Z" fill="#FDE68A"/>
<path d="M592.647 299.454C592.16 299.377 587.164 303.811 585.936 304.437C582.592 306.094 578.824 306.696 575.131 306.164C571.036 305.644 566.477 304.825 563.103 307.028C560.259 308.883 559.174 312.354 556.74 314.663C553.315 317.907 547.888 318.311 543.008 317.896C533.885 317.121 525.414 314.081 517.685 309.519C510.492 305.262 504.96 305.965 496.622 305.727C486.768 305.45 481.949 299.482 475.825 293.359C473.058 290.563 470.336 288.277 468.588 284.639C468.455 284.374 467.006 280 467 280L592.647 299.454Z" fill="#FDE68A"/>
<path d="M465.907 279.476C465.939 279.315 466.033 279.173 466.168 279.081C466.304 278.989 466.47 278.954 466.632 278.983L592.273 298.465C592.355 298.472 592.435 298.496 592.508 298.534C592.581 298.573 592.645 298.626 592.697 298.69C592.748 298.754 592.787 298.828 592.809 298.908C592.831 298.987 592.837 299.07 592.826 299.152C592.793 299.312 592.698 299.452 592.563 299.543C592.428 299.634 592.262 299.668 592.102 299.639L466.432 280.135C466.276 280.115 466.134 280.036 466.036 279.912C465.937 279.789 465.891 279.633 465.907 279.476Z" fill="#F5FAFA"/>
<path d="M498.262 284.492C498.274 284.441 498.289 284.391 498.306 284.342C498.382 284.195 498.512 284.083 498.668 284.028C498.825 283.973 498.996 283.981 499.147 284.049C500.348 284.558 528.647 296.677 533.627 311.376C533.651 311.452 533.659 311.532 533.652 311.611C533.644 311.691 533.619 311.767 533.58 311.837C533.542 311.907 533.489 311.968 533.425 312.016C533.362 312.064 533.289 312.099 533.212 312.118C533.054 312.166 532.884 312.153 532.735 312.08C532.587 312.006 532.473 311.88 532.415 311.725C527.607 297.535 498.92 285.256 498.633 285.151C498.503 285.102 498.395 285.009 498.327 284.889C498.259 284.768 498.236 284.628 498.262 284.492V284.492Z" fill="#F5FAFA"/>
<path d="M535.95 290.333C535.974 290.21 536.034 290.098 536.123 290.011C536.212 289.924 536.325 289.866 536.448 289.845C536.659 289.812 557.235 285.926 559.132 274.704C559.166 274.544 559.26 274.403 559.395 274.311C559.53 274.219 559.696 274.183 559.857 274.211C559.939 274.218 560.019 274.241 560.092 274.28C560.165 274.318 560.229 274.371 560.281 274.436C560.332 274.5 560.371 274.574 560.393 274.653C560.415 274.733 560.421 274.816 560.41 274.898C558.38 286.939 537.616 290.853 536.736 291.014C536.575 291.048 536.406 291.019 536.267 290.931C536.127 290.843 536.027 290.704 535.989 290.543C535.963 290.476 535.95 290.405 535.95 290.333Z" fill="#F5FAFA"/>
<path d="M484.109 250.516C484.109 295.31 467.019 331.622 445.934 331.622C424.849 331.622 407.758 295.31 407.758 250.516C407.758 205.722 429.275 158.337 450.36 158.337C471.445 158.337 484.109 205.722 484.109 250.516Z" fill="white"/>
<path d="M490.107 280.179C489.845 272.059 489.352 263.91 488.629 255.731C484.568 210.334 472.889 164.848 450.199 126.404C448.521 123.566 446.786 120.772 444.993 118.022C429.679 94.6258 407.443 75.5423 381.644 70.5209C360.183 66.3465 338.29 72.3755 319.125 83.1048C299.86 93.9005 285.209 110.271 267.671 123.691C219.542 160.552 153.571 161.194 107.334 200.894C61.966 239.864 45.9655 312.837 64.937 372.618C73.9442 401.163 87.621 425.279 105.137 444.589H404.455V455.8C449.364 424.753 466.842 385.285 474.283 366.218C484.779 339.373 491.025 309.15 490.107 280.179Z" fill="#CCE9FF"/>
<path d="M328.088 289.757C328.868 292.243 329.891 294.789 331.916 296.517C334.887 299.058 339.242 299.252 343.22 299.285C347.812 299.351 352.841 299.285 356.343 296.434C358.324 294.828 359.541 292.519 360.426 290.178C361.934 286.126 362.587 281.807 362.345 277.491C362.103 273.175 360.972 268.955 359.021 265.098C358.364 263.649 357.403 262.358 356.205 261.312C354.545 260.005 352.393 259.49 350.268 259.296C344.844 258.815 339.417 260.202 334.887 263.227C330.638 266.106 327.18 270.635 325.908 275.518C324.768 279.935 326.777 285.577 328.088 289.757Z" fill="#0B4870"/>
<path d="M358.075 322.764C355.823 324.281 349.223 323.345 347.043 324.596C344.863 325.848 337.593 326.219 335.463 325.637C335.463 314.858 340.392 303.957 340.486 294.042C344.835 303.16 349.389 298.15 353.809 291.91C353.721 301.627 357.964 313.037 358.075 322.764Z" fill="#FFE3CA"/>
<path d="M340.298 301.77C340.687 302.841 341.207 303.858 341.847 304.799C343.024 306.57 344.807 307.852 346.86 308.403C349.294 309.095 351.768 307.849 353.599 306.294C354.196 305.779 354.772 305.231 355.336 304.677C354.484 300.292 353.77 295.963 353.809 291.944C349.383 298.183 344.835 303.193 340.486 294.075C340.758 294.629 340.409 296.107 340.354 296.738C340.271 297.718 340.099 298.687 340 299.667C339.952 300.381 340.054 301.098 340.298 301.77V301.77Z" fill="#FCD2B1"/>
<path d="M363.873 261.716C363.873 261.301 363.818 260.885 363.762 260.47C363.547 258.809 362.656 257.558 362.064 255.997C361.5 254.493 360.661 253.108 359.591 251.911C359.101 251.175 358.561 250.474 357.975 249.813L357.665 249.364C356.758 247.986 356.006 246.497 354.899 245.284C351.734 241.852 346.517 241.409 341.853 241.614C338.965 241.73 336.033 242.001 333.366 243.108C330.699 244.216 328.309 246.275 327.407 249.021C327.304 249.347 327.225 249.68 327.169 250.018C320.879 254.015 317.343 262.242 319.235 269.527C319.877 271.985 321.056 274.51 320.552 276.957C320.757 278.396 320.906 279.847 321.022 281.297C322.068 282.46 323.739 283.052 324.829 282.017C325.62 281.264 325.687 280.052 325.703 278.961C325.755 275.743 325.803 272.528 325.847 269.317C325.811 268.718 325.917 268.118 326.157 267.568C326.495 267.064 326.936 266.637 327.451 266.316C329.44 264.817 331.062 262.884 332.193 260.664C334.127 262.478 336.378 263.923 338.832 264.927C343.175 266.588 347.961 266.698 352.57 266.161C353.851 266.02 355.123 265.798 356.376 265.497C356.642 269.963 356.909 274.427 357.179 278.889C357.273 280.55 357.66 282.565 359.242 283.03C360.316 283.351 361.494 282.698 362.13 281.774C362.699 280.801 363.05 279.717 363.159 278.596C363.513 276.453 363.801 274.294 363.967 272.129C364.056 271.022 364.166 269.915 364.2 268.769C364.233 267.623 364.072 266.704 364.011 265.646C363.895 264.334 363.939 263.022 363.873 261.716Z" fill="#0B4870"/>
<path d="M361.439 278.806C361.278 278.037 361.018 277.201 360.399 276.819C360.03 276.619 359.606 276.547 359.192 276.614C358.231 276.747 357.356 277.242 356.747 277.998C356.65 278.033 356.559 278.081 356.476 278.142C356.537 279.603 356.52 281.065 356.52 282.571C356.52 285.461 356.614 287.177 356.205 290.056C356.161 290.338 355.823 291.861 355.718 292.115C356.088 292.08 356.449 291.975 356.78 291.805C358.96 290.986 360.609 288.832 361.345 286.402C362.012 283.918 362.044 281.306 361.439 278.806Z" fill="#FFE3CA"/>
<path d="M319.479 269.295C319.479 269.295 322.671 276.824 324.049 283.29C325.427 289.757 328.84 305.867 339.402 302.413C349.964 298.958 354.501 296.107 355.795 292.608C357.09 289.109 359.735 269.843 352.127 263.465C344.52 257.087 321.62 253.411 319.479 269.295Z" fill="#FFE3CA"/>
<path d="M350.877 251.252C350.821 250.915 350.742 250.582 350.639 250.256C349.743 247.487 347.319 245.45 344.68 244.343C342.041 243.236 339.081 242.959 336.199 242.848C331.529 242.66 326.312 243.086 323.147 246.519C322.04 247.731 321.271 249.22 320.381 250.599L320.071 251.047C319.489 251.711 318.95 252.41 318.455 253.14C317.686 254.053 316.884 254.934 316.076 255.814C315.396 256.55 314.488 257.364 313.52 257.082L313.149 255.72C312.497 255.41 311.999 256.39 312.015 257.109C312.054 259.252 313.089 260.675 314.162 262.413C315.705 264.769 316.901 267.335 317.714 270.031C318.046 271.271 318.234 272.633 318.538 273.951C318.942 275.722 320.043 277.649 320.967 279.166C321.039 278.086 322.029 266.809 321.714 266.731C322.965 267.034 324.235 267.254 325.515 267.39C330.129 267.944 334.921 267.8 339.253 266.161C341.706 265.156 343.956 263.711 345.892 261.898C347.023 264.118 348.645 266.051 350.633 267.551C351.149 267.87 351.591 268.297 351.928 268.802C352.146 269.359 352.252 269.954 352.238 270.551C353.217 280.904 356.304 284.054 357.35 282.886C357.466 281.436 357.35 279.631 357.533 278.192C357.66 275.329 358.434 273.364 359.076 270.9C360.93 263.62 357.167 255.249 350.877 251.252Z" fill="#0B4870"/>
<path d="M293.066 344.355C293.066 344.355 273.419 381.747 274.476 386.243C275.533 390.738 285.835 393.994 307.766 389.459C329.698 384.925 332.11 383.663 332.11 383.663L328.907 377.019C328.907 377.019 295.085 382.556 295.876 378.204C296.668 373.853 311.999 355.865 311.999 355.865L293.066 344.355Z" fill="#FFE3CA"/>
<path d="M385.445 385.064C384.261 376.206 383.154 367.22 381.865 358.268C381.423 355.267 380.967 352.267 380.499 349.266C380.001 346.193 379.525 343.049 379.005 339.854C377.544 330.996 376.128 319.963 372.404 311.891C372.293 311.651 372.205 311.401 372.144 311.143C371.956 311.099 359.192 306.465 355.214 306.161C355.325 309.101 357.101 320.655 347.059 320.19C338.672 319.802 339.352 310.651 339.186 306.161C333.875 306.642 322.273 311.215 322.234 311.226C319.407 311.83 317.565 328.466 317.255 330.603C315.8 339.96 314.168 349.122 312.956 358.484L312.923 358.755C311.999 365.952 311.147 373.15 310.306 380.38C308.786 393.394 307.311 406.413 305.88 419.438C305.802 420.119 305.73 420.795 305.653 421.47L390.364 421.697C388.715 409.499 387.075 397.288 385.445 385.064Z" fill="#4F46EF"/>
<path d="M385.445 385.064C384.261 376.206 383.154 367.22 381.865 358.268C381.423 355.267 380.967 352.267 380.499 349.266C380.001 346.193 379.525 343.049 379.005 339.854C377.544 330.996 376.128 319.963 372.404 311.891C372.293 311.651 372.205 311.401 372.144 311.143C372.067 311.143 369.981 310.374 367.254 309.483C367.287 309.66 367.314 309.844 367.337 310.036C367.337 310.23 367.337 310.772 367.442 310.939C367.408 310.894 367.27 309.798 367.408 310.667C367.48 311.099 367.547 311.531 367.619 311.957C367.785 312.928 367.969 313.893 368.172 314.853C368.598 316.885 369.074 318.911 369.55 320.943C370.612 325.433 371.691 329.928 372.404 334.49C373.638 342.307 374.33 351.292 370.042 358.373C366.003 365.017 357.948 368.183 350.855 370.365C347.801 371.306 344.691 372.059 341.604 372.895C336.713 374.218 331.9 375.824 327.07 377.357C321.432 379.145 315.783 380.862 310.062 382.262C308.613 394.675 307.204 407.091 305.835 419.51C305.758 420.191 305.686 420.867 305.608 421.542L390.319 421.769C388.7 409.523 387.075 397.288 385.445 385.064Z" fill="#4F46EF"/>
<path d="M322.234 311.249L322.384 311.215C319.252 312.184 313.504 315.827 310.455 317.549C305.437 320.378 301.243 324.918 297.99 330.371C295.061 335.431 292.786 340.843 291.218 346.476C292.803 349.291 295.005 351.709 297.658 353.551C301.464 356.186 309.111 358.982 309.869 359.314C311.562 356.076 313.133 354.11 313.802 352.378C314.826 345.551 316.148 337.524 317.216 330.648C317.576 328.489 319.407 311.852 322.234 311.249Z" fill="#4F46EF"/>
<path d="M332.514 376.1C332.514 376.1 377.716 378.763 389.805 379.804C396.405 380.463 392.942 376.654 385.229 360.101C378.131 347.041 402.729 346.57 402.729 346.57C402.729 346.57 412.45 373.88 414.431 380.834C417.391 391.231 408.411 394.121 406.331 394.121C367.099 394.431 333.228 383.99 333.228 383.99C333.228 383.99 326.688 377.019 332.514 376.1Z" fill="#FFE3CA"/>
<path d="M390.862 371.97C392.891 371.073 394.783 369.893 396.483 368.466C400.356 365.144 403.122 360.782 405.888 356.469C403.565 349.825 401.623 344.361 401.623 344.361C401.623 344.361 377.024 344.826 384.106 357.886C387.132 364.375 389.5 368.898 390.862 371.97Z" fill="#FCD2B1"/>
<path d="M396.737 329.646C393.49 324.109 389.29 319.514 384.272 316.647C380.952 314.731 371.956 311.11 372.144 311.171C372.205 311.42 377.544 331.013 379.005 339.882C379.525 343.049 378.961 344.505 379.459 347.578C379.94 350.562 385.296 362.376 387.824 365.487C391.204 364.535 397.23 360.693 399.526 358.91C401.712 357.294 403.634 355.348 405.224 353.142C403.553 347.334 399.658 334.612 396.737 329.646Z" fill="#4F46EF"/>
<path d="M395.94 356.258C398.981 354.505 401.781 352.365 404.273 349.892C403.78 348.264 403.216 346.437 402.613 344.533C396.837 349.708 390.169 353.788 382.933 356.574C383.68 358.18 384.471 359.785 385.229 361.213C389.141 360.228 392.455 358.346 395.94 356.258Z" fill="#2A94F4"/>
<path d="M353.538 389.022H289.226C288.975 389.002 288.733 388.919 288.523 388.779C288.313 388.64 288.142 388.449 288.026 388.225L269.215 348.646C269.004 348.209 269.215 347.854 269.657 347.854H333.991C334.242 347.873 334.484 347.955 334.695 348.094C334.905 348.232 335.076 348.422 335.192 348.646L354.003 388.225C354.208 388.646 354.008 389.022 353.538 389.022Z" fill="#F7F7F7"/>
<path d="M317.614 369.617C318.721 371.976 316.74 373.886 313.155 373.886C309.57 373.886 305.758 371.976 304.635 369.617C303.512 367.259 305.514 365.349 309.1 365.349C312.685 365.349 316.497 367.259 317.614 369.617Z" fill="#D3D3D3"/>
<path d="M288.407 389.022H386.646C386.733 389.022 386.819 389.039 386.9 389.073C386.98 389.106 387.053 389.155 387.115 389.217C387.177 389.278 387.226 389.352 387.259 389.432C387.292 389.513 387.31 389.599 387.31 389.686V390.921C387.31 391.008 387.292 391.095 387.259 391.175C387.226 391.256 387.177 391.329 387.115 391.391C387.053 391.452 386.98 391.501 386.9 391.535C386.819 391.568 386.733 391.585 386.646 391.585H290.045C289.605 391.585 289.183 391.41 288.871 391.099C288.56 390.787 288.385 390.365 288.385 389.924V389L288.407 389.022Z" fill="#F2F0F0"/>
<path d="M386.646 389.022H354.285V391.585H386.646C386.733 391.585 386.819 391.568 386.9 391.535C386.98 391.501 387.053 391.453 387.115 391.391C387.177 391.329 387.226 391.256 387.259 391.175C387.292 391.095 387.31 391.008 387.31 390.921V389.686C387.31 389.599 387.292 389.513 387.259 389.432C387.226 389.352 387.177 389.278 387.115 389.217C387.053 389.155 386.98 389.106 386.9 389.073C386.819 389.039 386.733 389.022 386.646 389.022V389.022Z" fill="#F2F0F0"/>
<path d="M346.655 319.918C346.655 319.918 356.614 325.599 357.82 326.008C359.026 326.418 361.411 326.08 361.737 323.506C362.064 320.932 364.233 308.558 364.233 308.558L354.988 302.651C354.988 302.651 355.751 311.343 353.632 314.46C351.513 317.577 346.655 319.918 346.655 319.918Z" fill="#2A94F4"/>
<path d="M348.005 319.963C348.005 319.963 338.08 325.643 336.846 326.053C335.612 326.462 333.255 326.124 332.923 323.55C332.591 320.976 330.649 308.281 330.649 308.281L339.242 303.653C339.242 303.653 338.899 311.404 341.034 314.537C343.17 317.671 348.005 319.963 348.005 319.963Z" fill="#2A94F4"/>
<path d="M480.701 391.646H78.6415V399.58H480.701V391.646Z" fill="#492817"/>
<path d="M444.495 399.574H98.4816V468.495H444.495V399.574Z" fill="#D3D3D3"/>
<path d="M444.495 468.495L105.226 399.58H444.495V468.495Z" fill="#F2F2F2"/>
<path d="M110.687 468.368C109.746 455.762 108.595 443.084 107.212 429.774C106.659 424.604 106.106 419.361 104.252 414.511C98.5038 399.563 79.7093 391.17 64.5995 396.95C52.2838 401.661 43.8133 413.675 41.4951 425.368C38.7287 439.352 37.4949 453.774 37.2294 468.368H110.687Z" fill="#FDE68A"/>
<path d="M69.1584 468.368C76.019 450.436 86.3097 434.358 104.28 427.482C105.119 427.168 105.984 426.923 106.864 426.752C106.388 422.577 105.757 418.42 104.236 414.511C98.4872 399.563 79.6927 391.17 64.5829 396.95C52.2838 401.661 43.8133 413.675 41.4951 425.368C38.7287 439.352 37.4949 453.774 37.2294 468.368H69.1584Z" fill="#FDE68A"/>
<path d="M157.172 373.902C157.144 373.979 157.144 374.064 157.172 374.14C157.224 374.207 157.296 374.253 157.377 374.273C159.302 374.91 161.034 374.888 163.042 375.165C163.817 375.275 164.824 375.508 165.593 375.674C166.362 375.84 166.987 376.582 167.684 376.82C169.89 377.585 172.163 378.141 174.473 378.481C175.715 378.732 176.997 378.712 178.23 378.42C178.694 378.287 183.397 375.757 183.558 375.652C184.48 375.006 185.331 374.263 186.097 373.437C186.113 373.392 186.126 373.346 186.136 373.299C189.494 381.941 191.231 379.871 191.231 379.871C191.231 379.871 188.803 367.591 188.255 367.309C187.707 367.026 184.819 365.808 184.819 365.808L178.069 364.147C177.817 364.033 177.554 363.946 177.284 363.887C177.123 363.887 176.957 363.887 176.791 363.843H176.703C174.257 363.644 171.552 364.862 169.167 365.061C165.603 365.419 162.153 366.517 159.037 368.283C158.229 368.765 158.224 369.695 158.008 370.547C157.731 371.666 157.454 372.784 157.172 373.902Z" fill="#FCD2B1"/>
<path d="M162.473 366.351C148.088 370.631 123.617 376.023 113.63 365.044C109.237 360.217 102.648 346.697 97.7458 333.488C97.1206 331.827 95.9919 328.3 94.4262 323.999C93.2754 323.362 92.1246 322.725 90.9517 322.133C87.881 320.583 84.0358 318.723 80.4838 319.431C75.2831 320.472 73.2305 325.665 72.5666 330.698C78.9292 345.352 91.931 373.969 97.9284 380.092C99.8785 382.097 102.116 383.801 104.568 385.147C109.752 387.976 115.694 388.956 121.547 388.706C127.633 388.452 133.603 386.985 139.324 384.992C144.774 383.093 149.996 381.742 155.109 379.084C157.205 377.977 160.691 376.87 162.755 375.735C163.098 371.45 163.363 368.831 162.473 366.351Z" fill="#0B4870"/>
<path d="M57.5731 386.553C57.7778 381.26 57.1249 375.979 56.4665 370.725C55.4817 362.78 54.4305 354.614 50.541 347.627C47.8079 342.717 43.0166 319.343 51.797 307.312C55.1166 302.756 76.2625 304.937 87.9032 308.835C98.4153 312.361 96.2631 314.532 102.841 330.803C105.27 334.396 108.203 339.107 109.862 343.204C112.468 349.615 105.088 362.979 102.36 367.564C102.687 377.634 103.915 386.342 102.736 399.845C102.498 402.536 109.464 431.579 108.147 433.932C100.462 447.662 67.7255 437.254 64.8983 425.628C57.313 436.042 39.6472 430.212 39.7025 429.608C41.4066 411.776 57.2688 394.376 57.5731 386.553Z" fill="#FDE68A"/>
<path d="M92.7885 322.399C93.8287 321.452 93.4524 319.387 93.4137 318.18L93.2145 311.83C93.1647 310.119 89.231 309.278 87.9142 308.835C79.3331 305.962 65.6065 304.024 57.645 305.031C59.7031 306.26 61.5178 308.06 63.3989 309.383C63.4709 309.433 63.5207 309.488 63.5815 309.538C63.8008 309.599 64.0084 309.696 64.1956 309.826C66.63 311.487 68.5167 313.552 71.2443 314.736C74.7575 316.265 78.315 317.721 81.7564 319.37C83.5304 320.179 85.3522 320.877 87.2116 321.463C88.4896 321.889 90.9738 323.279 92.2906 322.709C92.475 322.638 92.644 322.533 92.7885 322.399V322.399Z" fill="#FFE3CA"/>
<path d="M155.015 382.727C154.999 382.768 154.993 382.812 154.999 382.856C155.005 382.899 155.021 382.941 155.047 382.976C155.073 383.011 155.108 383.04 155.147 383.058C155.187 383.077 155.231 383.085 155.275 383.082C157.338 383.497 159.147 383.248 161.228 383.275C162.041 383.275 163.109 383.397 163.922 383.475C164.735 383.552 165.477 384.228 166.224 384.388C168.591 384.881 170.999 385.155 173.416 385.208C174.732 385.305 176.053 385.116 177.289 384.654C177.748 384.455 182.269 381.244 182.429 381.144C183.309 380.355 184.101 379.473 184.791 378.514C184.794 378.466 184.794 378.418 184.791 378.37C189.367 386.846 190.877 384.46 190.877 384.46C190.877 384.46 186.794 372.114 186.197 371.898C185.599 371.682 182.457 370.791 182.457 370.791L175.292 369.977C175.016 369.894 174.732 369.838 174.445 369.811C174.279 369.811 174.102 369.811 173.931 369.811H173.837C171.292 369.922 168.658 371.522 166.229 372.026C162.599 372.853 159.181 374.427 156.193 376.648C155.424 377.252 155.535 378.215 155.424 379.118L155.015 382.727Z" fill="#FFE3CA"/>
<path d="M57.2356 309.754C70.514 308.359 85.2309 342.34 88.545 348.712C95.3004 361.695 103.837 374.788 108.983 379.201C120.69 389.232 145.233 380.524 159.507 374.262C160.741 376.709 160.807 379.439 161.023 383.901C159.048 385.362 155.595 386.94 153.576 388.33C148.641 391.729 143.435 393.794 138.085 396.452C132.441 399.22 126.466 401.528 120.231 402.541C114.228 403.549 107.976 403.306 102.266 401.058C99.5643 399.983 97.0362 398.515 94.7637 396.701C85.8174 389.598 60.2896 345.883 57.6118 340.989C48.1343 323.716 48.5769 310.667 57.2356 309.754Z" fill="#0E538C"/>
<path d="M61.4127 269.328C62.1153 266.925 63.4819 264.783 64.8872 262.718C66.2925 260.653 67.6923 258.715 69.5955 257.215C71.9137 255.382 74.7741 254.38 77.6234 253.616C83.3276 252.094 89.6957 251.451 94.8799 254.275C96.1256 254.887 97.1799 255.829 97.9284 256.999C98.3941 257.907 98.717 258.882 98.8855 259.889C100.219 265.979 101.159 272.229 100.789 278.463C100.418 284.697 98.6753 290.958 95.0348 296.029C94.0002 297.463 92.7774 298.831 91.1619 299.545C89.8473 300.048 88.4468 300.286 87.0401 300.248C86.5808 300.248 86.1272 300.22 85.6735 300.215C85.2309 302.861 84.8436 305.591 84.412 308.519C87.0843 309.211 89.8175 310.042 90.0664 310.584C90.6474 311.852 91.2891 317.964 90.1384 319.719C84.3954 317.045 75.3329 313.452 69.6011 311.575C68.3783 311.177 68.3175 309.975 68.1349 308.702C68.063 308.181 68.1349 308.702 70.5305 308.148C70.4144 305.524 70.016 300.951 69.6896 296.633C67.5042 295.686 65.363 294.468 64.1569 292.868C63.0934 291.327 62.3623 289.581 62.0102 287.742C61.126 283.812 60.6972 279.794 60.7322 275.767C60.6468 273.599 60.876 271.43 61.4127 269.328Z" fill="#FFE3CA"/>
<path d="M98.3655 250.372C91.9476 246.015 84.5338 242.859 76.788 242.427C69.0423 241.996 60.9591 244.531 55.5868 250.134C50.4968 255.443 48.3114 263.642 50.7845 270.524C49.8214 270.381 48.847 270.329 47.8743 270.369C45.3072 270.402 42.7856 271.052 40.5213 272.262C34.9389 275.407 33.7991 283.888 36.903 289.524C36.903 289.58 36.903 289.635 36.8642 289.69C34.4188 290.659 32.5045 292.829 31.8848 296.583C31.2596 300.553 33.2514 304.954 36.8974 306.637C38.1027 307.151 39.4027 307.405 40.7125 307.382C42.0224 307.359 43.3128 307.06 44.4993 306.504C45.4067 310.379 49.1302 313.181 53.0252 314.188C56.2008 315.012 59.5459 314.907 62.6637 313.886C65.7815 312.865 68.5412 310.97 70.6156 308.427C72.69 305.884 73.992 302.799 74.3672 299.538C74.7425 296.277 74.1752 292.976 72.7326 290.028C71.4545 287.415 69.5347 285.167 68.1349 282.615C64.8153 276.597 66.7905 273.203 71.1668 271.459C71.1975 271.474 71.2271 271.491 71.2554 271.509C71.8861 272.013 75.2776 278.203 74.8737 278.574C75.7811 277.743 75.8364 276.359 76.0799 275.163C76.5335 272.949 77.7397 271.089 79.2722 269.389C83.217 268.237 86.177 266.532 90.4206 263.299C94.6641 260.066 99.1456 255.626 98.3655 250.372Z" fill="#FFBE55"/>
<path d="M230.525 390.711H200.477V388.319H230.525C231.039 388.319 243.344 387.959 246.42 367.281C249.662 345.446 263.25 258.909 263.389 258.04L265.746 258.41C265.607 259.28 252.025 345.806 248.777 367.63C245.385 390.445 231.128 390.711 230.525 390.711Z" fill="#CCC6C6"/>
<path d="M196.161 388.319H166.368V390.705H196.161V388.319Z" fill="#CCC6C6"/>
<path d="M247.991 358.75C252.572 328.705 263.544 258.837 263.665 258.051L261.308 257.68C261.187 258.444 250.127 328.854 245.579 358.75H247.991Z" fill="#0B4870"/>
<path d="M256.583 349.155C260.368 324.796 264.495 298.294 268.241 274.333C268.288 274.036 268.276 273.733 268.205 273.441C268.134 273.149 268.005 272.873 267.827 272.631C267.649 272.389 267.425 272.185 267.167 272.03C266.909 271.876 266.624 271.774 266.326 271.731C265.441 271.609 264.556 271.504 263.665 271.421C259.709 296.744 255.3 324.979 251.305 350.75C252.113 350.883 252.921 351.021 253.729 351.171C254.049 351.231 254.378 351.226 254.696 351.157C255.014 351.088 255.316 350.955 255.582 350.767C255.848 350.579 256.074 350.34 256.246 350.063C256.418 349.786 256.533 349.477 256.583 349.155Z" fill="white"/>
<path d="M136.004 186.821C131.434 170.766 133.752 152.397 142.013 139.209C145.056 134.343 148.923 130.102 153.631 127.733C157.742 125.651 162.301 125.086 166.783 124.566C190.532 121.838 214.354 119.858 238.248 118.625C243.089 118.376 248.235 118.238 252.517 121.167C258.05 124.948 260.639 132.793 262.371 140.084C265.74 154.285 267.206 170.65 260.158 182.326C252.312 195.347 237.114 197.667 223.587 198.934L181.151 202.882C175.353 203.435 168.487 202.937 166.633 209.664C164.63 216.955 173.101 223.405 157.997 216.861C148.32 212.67 138.959 197.185 136.004 186.821Z" fill="#FDE68A"/>
<path d="M308.723 193.415C308.723 185.797 308.657 178.03 306.278 170.788C303.899 163.547 298.765 156.798 291.517 154.462C283.771 151.987 275.754 154.595 268.28 156.748C261.485 158.708 254.752 159.793 247.753 160.668C239.958 161.642 231.709 163.27 225.39 168.225C214.037 177.083 213.03 192.778 219.127 205.019C220.26 207.485 221.859 209.709 223.836 211.568C227.742 214.995 232.893 214.464 237.745 214.79C243.879 215.2 250.018 215.503 256.163 215.698C267.516 216.067 278.871 216.067 290.228 215.698C291.887 219.064 294.803 222.851 299.484 223.643C306.676 224.855 299.594 221.672 298.825 214.453C306.842 211.441 308.751 203.12 308.723 193.415Z" fill="#4F46EF"/>
<path d="M143.767 242.378C142.454 242.482 141.191 242.929 140.105 243.674C139.019 244.42 138.147 245.437 137.576 246.624C137.006 247.812 136.757 249.129 136.854 250.443C136.951 251.757 137.39 253.023 138.129 254.114L128.425 261.245C127.296 260.183 125.869 259.495 124.336 259.274C122.803 259.053 121.24 259.31 119.858 260.01C118.476 260.71 117.344 261.819 116.614 263.186C115.885 264.553 115.594 266.112 115.782 267.65C115.969 269.188 116.625 270.631 117.662 271.783C118.698 272.935 120.063 273.739 121.573 274.086C123.082 274.434 124.661 274.307 126.096 273.724C127.531 273.141 128.752 272.13 129.592 270.828L139.13 274.77C138.976 275.481 138.928 276.21 138.986 276.935C139.124 278.725 139.893 280.408 141.156 281.684C142.419 282.96 144.094 283.745 145.881 283.899C147.669 284.054 149.454 283.568 150.917 282.528C152.379 281.488 153.425 279.961 153.868 278.221C154.31 276.481 154.12 274.64 153.332 273.027C152.544 271.414 151.209 270.133 149.564 269.414C147.92 268.695 146.074 268.584 144.355 269.1C142.637 269.617 141.157 270.728 140.181 272.235L130.638 268.298C130.792 267.586 130.84 266.855 130.781 266.128C130.704 265.199 130.457 264.293 130.051 263.454L140.076 256.091C141.069 256.781 142.214 257.222 143.413 257.377C144.612 257.532 145.831 257.396 146.967 256.98C148.102 256.565 149.122 255.883 149.938 254.99C150.755 254.098 151.346 253.023 151.66 251.854C151.974 250.686 152.003 249.459 151.744 248.277C151.485 247.096 150.946 245.993 150.172 245.064C149.398 244.134 148.413 243.404 147.298 242.936C146.183 242.467 144.972 242.274 143.767 242.372V242.378Z" fill="#2A94F4"/>
<path d="M390.214 153.399C401.022 153.399 409.783 144.418 409.783 133.341C409.783 122.263 401.022 113.283 390.214 113.283C379.406 113.283 370.645 122.263 370.645 133.341C370.645 144.418 379.406 153.399 390.214 153.399Z" fill="white"/>
<path d="M82.5 216C90.5081 216 97 209.508 97 201.5C97 193.492 90.5081 187 82.5 187C74.4919 187 68 193.492 68 201.5C68 209.508 74.4919 216 82.5 216Z" fill="white"/>
<path d="M415.277 115.049C415.277 110.321 412.063 107.077 407.354 107.077H373.052C372.496 107.06 371.94 107.099 371.392 107.193C369.617 107.503 368.012 108.439 366.868 109.831C365.724 111.224 365.117 112.981 365.157 114.783C365.157 122.451 365.206 130.113 365.218 137.781C365.218 141.568 365.151 145.36 365.151 149.147C365.151 153.958 368.332 157.158 373.129 157.18C376.654 157.18 380.172 157.18 383.697 157.18C384.018 157.138 384.343 157.208 384.618 157.38C384.893 157.552 385.099 157.814 385.202 158.121C386.601 161.233 388.067 164.316 389.512 167.411C389.672 167.749 389.855 168.075 390.175 168.695C390.541 168.07 390.784 167.704 390.967 167.317C392.4 164.255 393.844 161.199 395.232 158.121C395.333 157.814 395.538 157.551 395.812 157.379C396.086 157.207 396.411 157.137 396.732 157.18C400.361 157.219 403.991 157.235 407.614 157.18C412.09 157.125 415.266 153.858 415.266 149.368C415.266 144.563 415.266 139.757 415.266 134.974C415.259 128.319 415.262 121.678 415.277 115.049ZM390.214 147.403C387.113 147.402 384.082 146.481 381.505 144.756C378.927 143.031 376.918 140.581 375.732 137.714C374.546 134.847 374.236 131.692 374.842 128.649C375.448 125.606 376.941 122.811 379.134 120.617C381.328 118.423 384.121 116.929 387.163 116.324C390.204 115.72 393.357 116.031 396.221 117.218C399.086 118.406 401.535 120.417 403.257 122.997C404.98 125.577 405.899 128.61 405.899 131.713C405.899 133.774 405.494 135.815 404.705 137.719C403.917 139.623 402.761 141.352 401.305 142.809C399.848 144.266 398.119 145.422 396.216 146.21C394.313 146.998 392.274 147.404 390.214 147.403V147.403Z" fill="#0B4870"/>
<path d="M101 187.825C101 184.372 98.6273 182.003 95.1519 182.003H69.8318C69.4216 181.99 69.0111 182.019 68.6066 182.088C67.2965 182.314 66.1117 182.997 65.2672 184.014C64.4227 185.031 63.9746 186.314 64.0041 187.631C64.0041 193.23 64.0408 198.825 64.049 204.425C64.049 207.19 64 209.959 64 212.725C64 216.238 66.3482 218.575 69.889 218.591C72.4904 218.591 75.0878 218.591 77.6892 218.591C77.9262 218.56 78.1666 218.612 78.3693 218.737C78.572 218.862 78.7243 219.054 78.8 219.278C79.8332 221.55 80.9155 223.802 81.9814 226.062C82.0998 226.309 82.2345 226.547 82.4714 227C82.7409 226.543 82.9206 226.276 83.0554 225.993C84.1131 223.758 85.179 221.526 86.2041 219.278C86.2783 219.054 86.4297 218.862 86.6319 218.736C86.834 218.611 87.0743 218.559 87.3108 218.591C89.9898 218.619 92.6689 218.631 95.3438 218.591C98.6477 218.55 100.992 216.165 100.992 212.886C100.992 209.377 100.992 205.868 100.992 202.375C100.986 197.515 100.989 192.665 101 187.825ZM82.5 211.451C80.2111 211.45 77.9738 210.778 76.0711 209.518C74.1683 208.259 72.6855 206.469 71.8102 204.375C70.9348 202.282 70.7062 199.978 71.1532 197.756C71.6003 195.534 72.7029 193.492 74.3217 191.891C75.9404 190.289 78.0027 189.198 80.2477 188.756C82.4926 188.314 84.8195 188.541 86.9341 189.409C89.0487 190.276 90.856 191.744 92.1276 193.629C93.3991 195.513 94.0778 197.728 94.0778 199.994C94.0778 201.499 93.7783 202.989 93.1964 204.379C92.6145 205.769 91.7617 207.033 90.6865 208.097C89.6113 209.161 88.335 210.005 86.9303 210.58C85.5257 211.156 84.0202 211.452 82.5 211.451V211.451Z" fill="#0B4870"/>
<path d="M383.492 130.385C384.029 130.386 384.554 130.227 385 129.93C385.447 129.632 385.795 129.208 386.001 128.712C386.207 128.217 386.261 127.671 386.157 127.144C386.052 126.617 385.794 126.133 385.414 125.754C385.035 125.374 384.551 125.115 384.025 125.011C383.499 124.906 382.953 124.961 382.457 125.167C381.962 125.373 381.539 125.721 381.241 126.168C380.944 126.615 380.785 127.14 380.787 127.677C380.787 128.395 381.072 129.084 381.579 129.592C382.086 130.099 382.774 130.385 383.492 130.385V130.385Z" fill="#0B4870"/>
<path d="M77.9959 199C78.3918 199.001 78.7791 198.884 79.1086 198.665C79.4381 198.445 79.6951 198.133 79.847 197.767C79.9989 197.402 80.0388 196.999 79.9618 196.611C79.8847 196.222 79.6942 195.866 79.4142 195.586C79.1343 195.306 78.7775 195.115 78.3892 195.038C78.0008 194.961 77.5984 195.001 77.2327 195.153C76.8671 195.305 76.5548 195.562 76.3354 195.891C76.1159 196.221 75.9992 196.608 76 197.004C76 197.533 76.2103 198.041 76.5846 198.415C76.9589 198.79 77.4666 199 77.9959 199V199Z" fill="#0B4870"/>
<path d="M397.274 124.964C396.738 124.964 396.214 125.124 395.768 125.422C395.322 125.72 394.974 126.143 394.769 126.639C394.564 127.135 394.51 127.68 394.615 128.206C394.72 128.733 394.978 129.216 395.357 129.595C395.736 129.975 396.219 130.233 396.745 130.338C397.271 130.443 397.816 130.389 398.311 130.184C398.807 129.978 399.23 129.63 399.528 129.184C399.826 128.738 399.985 128.214 399.985 127.677C399.985 126.958 399.699 126.268 399.191 125.759C398.682 125.25 397.993 124.964 397.274 124.964V124.964Z" fill="#0B4870"/>
<path d="M88 195C87.6044 195 87.2178 195.117 86.8889 195.337C86.56 195.557 86.3036 195.869 86.1523 196.235C86.0009 196.6 85.9613 197.002 86.0384 197.39C86.1156 197.778 86.3061 198.135 86.5858 198.414C86.8655 198.694 87.2219 198.884 87.6098 198.962C87.9978 199.039 88.3999 198.999 88.7654 198.848C89.1308 198.696 89.4432 198.44 89.6629 198.111C89.8827 197.782 90 197.396 90 197C90 196.47 89.7893 195.961 89.4142 195.586C89.0391 195.211 88.5304 195 88 195V195Z" fill="#0B4870"/>
<path d="M398.723 135.201C398.645 135.155 398.559 135.125 398.469 135.113C398.379 135.1 398.287 135.106 398.199 135.13C398.112 135.154 398.03 135.195 397.958 135.251C397.887 135.307 397.827 135.376 397.783 135.456C397.004 136.824 395.877 137.962 394.517 138.753C393.156 139.545 391.611 139.962 390.037 139.962C388.463 139.962 386.918 139.545 385.557 138.753C384.197 137.962 383.07 136.824 382.291 135.456C382.198 135.301 382.048 135.189 381.873 135.143C381.698 135.098 381.513 135.123 381.356 135.212C381.199 135.302 381.084 135.449 381.034 135.623C380.985 135.797 381.005 135.983 381.091 136.142C381.99 137.722 383.292 139.036 384.863 139.95C386.435 140.864 388.22 141.345 390.037 141.345C391.854 141.345 393.64 140.864 395.211 139.95C396.782 139.036 398.084 137.722 398.983 136.142C399.073 135.983 399.096 135.794 399.048 135.618C398.999 135.442 398.882 135.292 398.723 135.201V135.201Z" fill="#0B4870"/>
<path d="M76.2513 206.939C76.3076 206.969 76.3699 206.988 76.4347 206.996C76.4994 207.004 76.5653 207 76.6283 206.985C76.6914 206.97 76.7504 206.943 76.8019 206.907C76.8534 206.872 76.8963 206.827 76.9282 206.776C77.4885 205.899 78.2993 205.169 79.2784 204.662C80.2574 204.154 81.3697 203.887 82.5022 203.887C83.6346 203.887 84.7469 204.154 85.7259 204.662C86.705 205.169 87.5159 205.899 88.0762 206.776C88.1433 206.875 88.2513 206.947 88.3771 206.976C88.5028 207.005 88.6364 206.99 88.7492 206.932C88.8621 206.875 88.9452 206.78 88.9809 206.669C89.0166 206.557 89.0019 206.438 88.9402 206.336C88.2927 205.323 87.3561 204.48 86.2253 203.895C85.0946 203.309 83.81 203 82.5022 203C81.1943 203 79.9097 203.309 78.779 203.895C77.6482 204.48 76.7116 205.323 76.0642 206.336C75.9995 206.438 75.9829 206.559 76.018 206.672C76.0531 206.785 76.137 206.881 76.2513 206.939V206.939Z" fill="#0B4870"/>
<path d="M445.037 229.124C447.184 227.43 448.152 225.115 447.251 223.228C446.941 222.644 446.508 222.135 445.981 221.736C445.455 221.338 444.847 221.059 444.202 220.919C446.233 219.081 447.018 216.462 445.95 214.203C444.883 211.945 442.221 210.66 439.344 210.799C439.632 209.691 439.549 208.235 438.365 206.48C432.556 200.911 421.33 208.828 421.33 208.828C422.647 203.065 417.667 189.927 412.334 192.169C407 194.411 411.045 200.861 411.045 200.861L404.881 217.736C404.732 218.151 404.744 218.607 404.914 219.014L417.23 247.842C417.333 248.091 417.531 248.29 417.78 248.393C418.029 248.497 418.309 248.498 418.558 248.395C423.106 246.513 437.126 242.483 443.14 239.344C445.181 238.275 448.34 235.125 446.874 231.377C446.506 230.456 445.865 229.67 445.037 229.124V229.124Z" fill="white"/>
<path d="M416.533 251.811L407.57 255.581C406.951 255.841 406.254 255.845 405.632 255.592C405.009 255.339 404.513 254.849 404.251 254.231L390.22 220.343L402.325 217.963C404.217 217.874 405.091 218.035 405.645 219.313L417.9 248.501C418.156 249.121 418.157 249.818 417.901 250.439C417.644 251.059 417.153 251.553 416.533 251.811V251.811Z" fill="#2A94F4"/>
<path d="M374.992 216.674C376.26 206.994 369.446 198.117 359.773 196.848C350.099 195.579 341.229 202.397 339.96 212.077C338.692 221.757 345.506 230.633 355.179 231.903C364.853 233.172 373.724 226.354 374.992 216.674Z" fill="#0B4870"/>
<path d="M360.697 207.56C360.697 207.56 357.45 207.56 356.824 211.867C356.376 207.549 352.952 207.56 352.952 207.56C352.952 207.56 347.53 207.532 347.53 212.952C347.53 218.372 356.858 222.497 356.858 222.497C356.858 222.497 366.125 218.372 366.125 212.952C366.119 207.056 360.697 207.56 360.697 207.56Z" fill="white"/>
<path d="M448.473 405.885C448.473 405.885 436.274 405.603 436.257 416.36C436.241 427.117 444.102 434.076 444.102 434.076L448.473 405.885Z" fill="#FCD2B1"/>
<path d="M455.776 315.567C455.776 315.567 447.112 321.535 444.064 362.071C441.015 402.608 441.474 435.981 442.061 436.108C442.647 436.235 454.404 438.295 454.404 438.295L463.688 374.567L455.776 315.567Z" fill="#FCD2B1"/>
<path d="M468.413 306.831C468.413 306.831 448.7 311.692 444.827 339.434L461.979 339.987L468.413 306.831Z" fill="#4F46EF"/>
<path d="M467.887 468.368L480.64 426.763L480.341 468.368H519.623C522.329 450.159 524.343 433.7 524.603 423.602C525.516 389.277 510.915 376.66 510.915 376.66H460.319C446.836 387.095 437.524 445.437 437.524 445.437L433.098 468.368H467.887Z" fill="#2A94F4"/>
<path d="M503.158 378.376C503.158 378.376 522.561 383.912 509.283 468.063" stroke="#CCE9FF" stroke-width="0.75" stroke-miterlimit="10"/>
<path d="M480.64 426.763V376.925" stroke="#CCE9FF" stroke-width="0.75" stroke-miterlimit="10"/>
<path d="M471.655 376.925V406.046C471.655 408.46 472.613 410.776 474.319 412.484C476.025 414.192 478.338 415.152 480.751 415.153H480.823" stroke="#CCE9FF" stroke-width="0.75" stroke-miterlimit="10"/>
<path d="M489.089 304.522C489.089 304.522 509.51 308.647 515.214 320.256L513.128 376.106L460.164 377.019L457.989 315.013C457.989 315.013 465.774 307.03 477.138 303.813L489.089 304.522Z" fill="#4F46EF"/>
<path d="M505.377 320.461C503.623 307.595 535.447 347.179 515.092 386.985C508.453 397.504 490.748 377.507 490.748 377.507L504.132 367.907L505.377 320.461Z" fill="#FFE3CA"/>
<path d="M482.593 305.076C482.593 305.076 521.731 304.522 523.164 340.508L497.814 342.097L482.593 305.076Z" fill="#4F46EF"/>
<path d="M506.522 363.976L457.027 358.019L453.785 367.674L500.569 387.179C502.418 387.908 504.419 388.169 506.394 387.938C508.368 387.707 510.255 386.991 511.886 385.854C513.517 384.717 514.842 383.194 515.743 381.421C516.644 379.648 517.094 377.68 517.051 375.691V375.691C516.989 372.8 515.893 370.027 513.96 367.877C512.028 365.727 509.388 364.343 506.522 363.976V363.976Z" fill="#FFE3CA"/>
<path d="M459.682 358.75L454.991 352.483C453.529 350.519 451.413 349.145 449.027 348.607L442.703 347.179L449.121 361.147L459.682 358.75Z" fill="#FFE3CA"/>
<path d="M438.063 364.897L450.804 360.517C451.243 360.366 451.477 359.887 451.326 359.448L443.079 335.425C442.928 334.986 442.449 334.752 442.01 334.903L429.269 339.283C428.83 339.434 428.596 339.913 428.747 340.352L436.994 364.375C437.145 364.814 437.624 365.048 438.063 364.897Z" fill="#D3D3D3"/>
<path d="M459.682 358.75L449.458 353.978L435.294 355.124C435.137 355.101 434.976 355.113 434.823 355.159C434.671 355.204 434.53 355.282 434.41 355.387C434.29 355.493 434.194 355.622 434.129 355.768C434.064 355.913 434.031 356.071 434.033 356.231C434.315 359.613 435.892 368.56 444.661 369.961C455.511 371.694 460.025 368.355 460.025 368.355L459.682 358.75Z" fill="#FFE3CA"/>
<path d="M464.529 275.767C464.53 277.069 464.145 278.343 463.423 279.426C462.7 280.509 461.673 281.354 460.471 281.853C459.268 282.352 457.945 282.483 456.669 282.229C455.392 281.975 454.219 281.348 453.299 280.427C452.379 279.506 451.752 278.333 451.499 277.055C451.245 275.778 451.376 274.454 451.874 273.251C452.373 272.048 453.217 271.02 454.299 270.297C455.382 269.574 456.655 269.189 457.956 269.19C459.699 269.19 461.371 269.883 462.604 271.116C463.837 272.35 464.529 274.022 464.529 275.767Z" fill="#FCD2B1"/>
<path d="M454.659 268.249C456.75 282.272 466.139 293.915 480.308 293.915C487.111 293.915 493.635 291.211 498.445 286.397C503.255 281.584 505.958 275.056 505.958 268.249C505.958 261.441 503.255 254.913 498.445 250.1C493.635 245.286 487.111 242.582 480.308 242.582C466.139 242.582 452.346 252.808 454.659 268.249Z" fill="#0B4870"/>
<path d="M489.786 304.074L489.681 277.76L470.831 277.848L470.93 304.157C470.93 305.398 471.176 306.627 471.652 307.773C472.129 308.918 472.827 309.959 473.707 310.833C474.586 311.708 475.631 312.4 476.779 312.87C477.927 313.339 479.156 313.576 480.397 313.568C481.638 313.566 482.866 313.318 484.01 312.839C485.155 312.36 486.194 311.659 487.066 310.777C487.939 309.894 488.629 308.847 489.095 307.697C489.562 306.547 489.797 305.315 489.786 304.074V304.074Z" fill="#FFE3CA"/>
<path d="M490.356 279.166C490.356 279.166 488.375 301.704 470.952 301.344L470.919 290.056L490.356 279.166Z" fill="#FCD2B1"/>
<path d="M486.593 304.921C486.593 304.921 487.241 303.885 495.728 306.709C495.728 306.709 493.603 313.175 484.109 314.936C480.198 315.661 476.43 314.443 472.756 312.904C470.311 311.874 466.886 308.613 466.266 307.678C466.266 307.678 471.622 304.755 474.903 304.356C478.184 303.957 486.593 304.921 486.593 304.921Z" fill="#FFE3CA"/>
<path d="M474.244 297.469C464.147 297.469 455.882 291.379 455.882 281.27V263.891C455.882 256.434 464.02 248.578 468.413 248.578L484.613 253.123C486.729 253.131 488.757 253.975 490.254 255.473C491.751 256.971 492.595 259 492.602 261.118V278.43C492.602 288.533 482.759 297.469 474.244 297.469Z" fill="#FFE3CA"/>
<path d="M486.25 252.204C486.25 252.204 479.545 270.325 490.356 275.767L500.707 259.263L486.25 252.204Z" fill="#0B4870"/>
<path d="M500.707 275.767C500.708 277.069 500.323 278.343 499.601 279.426C498.878 280.509 497.851 281.354 496.649 281.853C495.447 282.352 494.123 282.483 492.847 282.229C491.57 281.975 490.398 281.348 489.477 280.427C488.557 279.506 487.93 278.333 487.677 277.055C487.423 275.778 487.554 274.454 488.052 273.251C488.551 272.048 489.395 271.02 490.478 270.297C491.56 269.574 492.833 269.189 494.134 269.19C495.878 269.19 497.549 269.883 498.782 271.116C500.015 272.35 500.707 274.022 500.707 275.767Z" fill="#FFE3CA"/>
<path d="M492.491 237.555C488.751 244.891 490.488 253.273 496.364 256.285C502.24 259.296 510.063 255.792 513.809 248.456C517.554 241.121 515.811 232.739 509.936 229.727C504.06 226.715 496.237 230.22 492.491 237.555Z" fill="#0B4870"/>
<path d="M492.441 255.222C492.441 255.222 466.438 269.887 450.227 258.128C449.439 257.59 448.767 256.898 448.252 256.095C447.737 255.291 447.389 254.391 447.228 253.45C446.891 251.069 447.903 248.274 454.659 248.567C466.239 249.065 474.178 251.335 479.556 248.567C484.934 245.799 492.441 255.222 492.441 255.222Z" fill="#0B4870"/>
<path d="M474.244 249.359C474.244 249.359 463.638 240.794 457.951 244.703C452.263 248.611 465.038 253.118 465.038 253.118L474.244 249.359Z" fill="#0B4870"/>
</svg>
