<svg width="189" height="267" viewBox="0 0 189 267" fill="none" xmlns="http://www.w3.org/2000/svg">
<path d="M153.184 246.293H14.061C7.73677 246.293 2.61102 241.167 2.61102 234.843V50.3586C2.61102 44.0344 7.73677 38.9086 14.061 38.9086H153.184C159.508 38.9086 164.634 44.0344 164.634 50.3586V234.848C164.634 241.167 159.508 246.293 153.184 246.293Z" fill="#F7F7F7"/>
<path d="M153.441 246.293H13.8096C7.62979 246.293 2.61639 241.279 2.61639 235.1V206.416C2.61639 206.416 32.1884 227.925 83.6279 227.925C135.067 227.925 164.639 206.416 164.639 206.416V235.1C164.634 241.285 159.626 246.293 153.441 246.293Z" fill="#D3D3D3"/>
<path d="M153.441 248.909H13.8096C6.19585 248.909 0 242.713 0 235.1V50.1018C0 42.4881 6.19585 36.2922 13.8096 36.2922H153.446C161.06 36.2922 167.256 42.4881 167.256 50.1018V235.1C167.25 242.713 161.054 248.909 153.441 248.909ZM13.8096 41.525C9.07975 41.525 5.23276 45.372 5.23276 50.1018V235.1C5.23276 239.829 9.07975 243.676 13.8096 243.676H153.446C158.176 243.676 162.023 239.829 162.023 235.1V50.1018C162.023 45.372 158.176 41.525 153.446 41.525H13.8096Z" fill="#0B4870"/>
<path d="M105.661 24.6496C105.661 12.4773 95.7948 2.61639 83.6279 2.61639C71.4555 2.61639 61.5946 12.4827 61.5946 24.6496H25.586C22.9214 24.6496 20.7652 26.8112 20.7652 29.4704V41.8567C20.7652 44.5213 22.9268 46.6775 25.586 46.6775H141.67C144.334 46.6775 146.491 44.5159 146.491 41.8567V29.4704C146.491 26.8059 144.329 24.6496 141.67 24.6496H105.661V24.6496ZM84.6766 28.5501C79.3796 29.2189 74.9227 24.762 75.5915 19.465C76.0463 15.8535 78.9623 12.9375 82.5738 12.4827C87.8761 11.8139 92.3331 16.2708 91.6643 21.5731C91.2041 25.1847 88.2881 28.1007 84.6766 28.5501Z" fill="#D3D3D3"/>
<path d="M141.664 49.2992H25.586C21.4821 49.2992 18.1488 45.9605 18.1488 41.8621V29.4704C18.1488 25.3666 21.4875 22.0332 25.586 22.0332H59.112C60.4229 9.6683 70.9151 0 83.6225 0C96.3299 0 106.822 9.6683 108.133 22.0332H141.664C145.768 22.0332 149.102 25.3719 149.102 29.4704V41.8567C149.107 45.9605 145.768 49.2992 141.664 49.2992ZM25.586 27.266C24.366 27.266 23.3762 28.2558 23.3762 29.4757V41.8621C23.3762 43.082 24.366 44.0718 25.586 44.0718H141.67C142.89 44.0718 143.879 43.082 143.879 41.8621V29.4704C143.879 28.2505 142.89 27.2606 141.67 27.2606H103.05V24.6443C103.05 13.938 94.3395 5.22206 83.6332 5.22206C72.9269 5.22206 64.211 13.9326 64.211 24.6443V27.2606H25.586V27.266ZM83.6225 31.236C80.7814 31.236 78.0794 30.1285 76.0462 28.0953C73.6867 25.7358 72.5738 22.472 72.9965 19.1386C73.5957 14.3821 77.4855 10.4869 82.2421 9.88767C85.5754 9.46498 88.8392 10.5779 91.2041 12.9374C93.5637 15.297 94.6766 18.5608 94.2539 21.8995C93.6546 26.6614 89.7595 30.5458 85.0029 31.1451C84.5428 31.2039 84.0773 31.236 83.6225 31.236ZM83.6172 15.0348C83.3817 15.0348 83.141 15.0509 82.9002 15.0776C80.4764 15.3826 78.4914 17.3676 78.1864 19.7914C77.9724 21.5089 78.5396 23.1889 79.7488 24.3981C80.958 25.6074 82.638 26.1745 84.3555 25.9605C86.7793 25.6555 88.7643 23.6758 89.0693 21.2467C89.2887 19.5292 88.7161 17.8492 87.5069 16.64C86.4636 15.602 85.0778 15.0348 83.6172 15.0348Z" fill="#0B4870"/>
<path d="M176.614 211.782H109.321V174.249C109.321 155.693 124.414 140.6 142.97 140.6C161.52 140.6 176.614 155.693 176.614 174.249V211.782V211.782ZM119.578 201.52H166.346V174.249C166.346 161.354 155.859 150.862 142.965 150.862C130.07 150.862 119.578 161.354 119.578 174.249V201.52Z" fill="#FFBE56"/>
<path d="M179.225 214.399H106.704V174.249C106.704 154.254 122.97 137.983 142.97 137.983C162.965 137.983 179.23 154.249 179.23 174.249V214.399H179.225ZM111.932 209.166H173.992V174.249C173.992 157.138 160.07 143.216 142.965 143.216C125.854 143.216 111.932 157.138 111.932 174.249V209.166ZM168.968 204.137H116.967V174.249C116.967 159.91 128.631 148.245 142.97 148.245C157.304 148.245 168.968 159.91 168.968 174.249V204.137V204.137ZM122.194 198.904H163.735V174.249C163.735 162.793 154.42 153.478 142.965 153.478C131.509 153.478 122.194 162.793 122.194 174.249V198.904Z" fill="#0B4870"/>
<path d="M168.93 264.169H116.999C107.357 264.169 99.5455 256.352 99.5455 246.716V212.28C99.5455 202.638 107.363 194.827 116.999 194.827H168.93C178.572 194.827 186.384 202.644 186.384 212.28V246.716C186.389 256.357 178.572 264.169 168.93 264.169Z" fill="#FFBE56"/>
<path d="M169.321 266.785H116.608C105.757 266.785 96.9291 257.957 96.9291 247.106V211.889C96.9291 201.039 105.757 192.21 116.608 192.21H169.321C180.172 192.21 189 201.039 189 211.889V247.106C189 257.957 180.172 266.785 169.321 266.785ZM116.608 197.443C108.641 197.443 102.157 203.928 102.157 211.895V247.111C102.157 255.078 108.641 261.563 116.608 261.563H169.321C177.288 261.563 183.773 255.078 183.773 247.111V211.895C183.773 203.928 177.288 197.443 169.321 197.443H116.608Z" fill="#0B4870"/>
<path d="M150.862 241.954L147.363 228.85C148.786 227.609 149.728 225.843 149.728 223.805C149.728 220.07 146.699 217.042 142.965 217.042C139.23 217.042 136.202 220.07 136.202 223.805C136.202 225.838 137.143 227.609 138.566 228.85L135.067 241.954H150.862Z" fill="#FFBE56"/>
<path d="M154.27 244.57H131.659L135.661 229.599C134.313 227.946 133.585 225.94 133.585 223.81C133.585 218.636 137.791 214.431 142.965 214.431C148.138 214.431 152.344 218.636 152.344 223.81C152.344 225.94 151.616 227.946 150.268 229.599L154.27 244.57ZM138.47 239.337H147.454L144.415 227.951L145.645 226.881C146.196 226.405 147.117 225.367 147.117 223.81C147.117 221.52 145.255 219.664 142.965 219.664C140.675 219.664 138.818 221.526 138.818 223.81C138.818 225.367 139.738 226.405 140.284 226.881L141.515 227.951L138.47 239.337Z" fill="#0B4870"/>
<path d="M134.415 101.718L121.98 89.2833L69.4866 141.777L45.2703 117.561L32.8305 130L69.2619 166.432L69.4866 166.212L69.7059 166.432L134.415 101.718Z" fill="#CCE9FF"/>
<path d="M69.7006 170.134L69.4812 169.915L69.2618 170.134L29.128 130L45.265 113.863L69.4812 138.08L121.975 85.5861L138.112 101.723L69.7006 170.134ZM69.4866 162.51L69.7059 162.729L130.717 101.718L121.98 92.9804L69.4866 145.474L45.2703 121.258L36.533 129.995L69.2672 162.729L69.4866 162.51Z" fill="#0B4870"/>
</svg>
