<svg width="488" height="488" viewBox="0 0 488 488" fill="none" xmlns="http://www.w3.org/2000/svg">
<path d="M398.488 180.379C429.807 180.379 455.196 154.991 455.196 123.672C455.196 92.3532 429.807 66.9644 398.488 66.9644C367.17 66.9644 341.781 92.3532 341.781 123.672C341.781 154.991 367.17 180.379 398.488 180.379Z" stroke="#C1C1C1" stroke-miterlimit="10" stroke-dasharray="11.95 11.95"/>
<path d="M373.591 114.228C386.107 118.656 398.578 124.033 407.344 132.483C416.11 140.933 420.493 153.087 415.252 163.254C408.203 176.855 385.972 184.762 385.836 199.493C385.746 210.021 397.856 218.109 410.056 221.904C422.256 225.745 435.766 227.101 446.836 232.704C463.555 241.153 471.417 257.51 474.625 273.235C477.969 289.547 476.613 308.118 462.29 319.911C444.532 334.641 415.071 333.015 389.903 329.852C356.285 325.65 322.803 320.77 289.321 315.844C215.94 305.09 142.559 294.291 69.1785 283.537C61.3163 282.362 53.1378 281.097 46.7215 277.256C34.0244 269.575 32.94 253.715 40.3504 242.373C47.7156 231.032 61.3615 223.35 74.917 216.708C88.4726 210.066 102.796 203.74 112.963 193.89C123.13 184.039 128.19 169.49 120.464 158.284C113.957 148.795 99.9496 143.734 93.8496 134.064C85.8067 121.322 95.0696 105.101 109.619 96.9674C124.169 88.8341 307.35 90.8674 373.591 114.228Z" fill="#F7F7F7"/>
<path d="M459.307 392.479H28.6926C25.4844 392.479 22.9089 389.858 22.9089 386.695V352.219C22.9089 349.01 25.5296 346.435 28.6926 346.435H459.307C462.516 346.435 465.091 349.056 465.091 352.219V386.695C465.091 389.858 462.516 392.479 459.307 392.479Z" fill="#F2F2F2"/>
<path d="M434.546 325.695H401.199C394.422 325.695 389.18 319.685 390.129 312.953L399.618 245.084C394.331 240.159 390.987 233.156 390.987 225.384C390.987 210.518 403.007 198.499 417.873 198.499C420.584 198.499 423.204 198.905 425.69 199.673C436.715 203.017 444.758 213.274 444.758 225.384C444.758 233.156 441.414 240.204 436.127 245.084L445.616 312.953C446.565 319.685 441.369 325.695 434.546 325.695Z" fill="#82CCF9"/>
<path d="M434.546 325.695H416.833C410.056 325.695 404.814 319.685 405.763 312.953L415.252 245.084C409.965 240.159 406.667 233.156 406.667 225.384C406.667 213.274 414.71 203.017 425.735 199.673C436.76 203.017 444.803 213.274 444.803 225.384C444.803 233.156 441.459 240.204 436.173 245.084L445.662 312.953C446.565 319.685 441.369 325.695 434.546 325.695Z" fill="#CCE9FF"/>
<path d="M405.673 269.033V300.933C405.673 305.226 402.193 308.705 397.901 308.705H393.021C390.761 308.705 388.999 306.853 388.999 304.593V304.548C388.999 300.03 386.514 296.099 382.899 294.02C383.08 293.478 383.17 292.936 383.216 292.303C383.351 288.914 380.64 285.977 377.296 285.796C373.682 285.616 370.699 288.462 370.699 292.077C370.699 292.755 370.79 293.387 371.016 294.02C367.356 296.099 364.916 300.03 364.916 304.548V304.593C364.916 306.853 363.153 308.705 360.894 308.705H356.014C351.722 308.705 348.242 305.226 348.242 300.933V269.033H405.673Z" fill="#F7A226"/>
<path d="M159.278 241.244H166.598C170.258 241.244 173.285 244.271 173.285 247.931V282.724C173.285 286.384 170.258 289.411 166.598 289.411H159.278C155.618 289.411 152.59 286.384 152.59 282.724V247.931C152.59 244.226 155.618 241.244 159.278 241.244Z" fill="#FFBE55"/>
<path d="M103.745 191.676C69.7659 191.676 42.2482 224.661 42.2482 265.327C42.2482 305.994 69.7659 338.979 103.745 338.979C137.724 338.979 165.242 305.994 165.242 265.327C165.242 224.661 137.724 191.676 103.745 191.676ZM103.745 319.685C78.6674 319.685 58.3341 295.33 58.3341 265.327C58.3341 235.324 78.6674 210.97 103.745 210.97C128.823 210.97 149.156 235.324 149.156 265.327C149.156 295.33 128.823 319.685 103.745 319.685Z" fill="#FFCB80"/>
<path d="M321.809 365.458C321.809 365.458 328.858 369.073 333.376 371.422C334.325 371.919 333.964 373.365 332.879 373.365C326.915 373.365 317.787 373.365 317.787 373.365V365.458H321.809Z" fill="#072D42"/>
<path d="M332.608 281.368L323.933 366.813H316.613V317.742L319.776 280.329L332.608 281.368Z" fill="#073C59"/>
<path d="M292.8 362.566C295.059 365.684 297.138 371.422 299.759 371.919C298.539 373.817 295.601 373.501 293.704 372.959C291.806 372.416 286.203 365.503 286.203 365.503L289.547 360.804L292.8 362.566Z" fill="#072D42"/>
<path d="M323.933 280.555L317.833 320.047L294.607 364.057H286.158C286.158 364.057 303.012 320.408 307.033 318.872C307.124 312.546 305.09 278.341 305.09 278.341L323.933 280.555Z" fill="#0B4870"/>
<path d="M328.948 225.655C332.021 227.507 338.076 256.878 351.857 261.577C346.57 265.824 340.38 263.068 340.38 263.068C340.38 263.068 325.876 239.572 326.101 235.008C326.282 230.444 328.948 225.655 328.948 225.655Z" fill="#1A85D6"/>
<path d="M315.799 223.215C310.784 223.712 305.678 225.474 305.045 229.36C304.413 233.246 303.102 283.627 303.102 283.627H332.653C332.653 283.627 332.111 227.507 330.033 226.107C327.954 224.706 315.799 223.215 315.799 223.215Z" fill="#2A94F4"/>
<path d="M196.284 315.89C196.104 316.613 187.699 364.78 187.699 364.78H182.684V315.89H196.284Z" fill="#F7C39F"/>
<path d="M187.699 317.2C184.536 321.854 151.054 338.753 145.767 340.561C141.972 337.579 142.966 336.901 142.966 336.901L175.138 311.687L187.699 317.2Z" fill="#FCD2B1"/>
<path d="M180.424 263.656C175.996 268.49 174.37 304.277 159.594 309.97C169.535 321.583 198.227 320.95 214.042 318.646C210.247 301.973 197.64 267.225 192.308 263.384C187.247 260.583 180.424 263.656 180.424 263.656Z" fill="#2A94F4"/>
<path d="M223.576 244.994C225.384 243.955 231.89 239.707 236.454 241.831C234.556 242.554 231.8 242.373 230.806 243.367C231.981 243.774 232.975 243.955 233.879 244.633C232.387 244.813 231.348 244.813 229.721 245.084C228.095 245.807 223.938 247.163 223.938 247.163L223.576 244.994Z" fill="#FCD2B1"/>
<path d="M192.579 238.804C196.375 240.295 202.384 247.796 206.632 248.79C210.879 249.784 224.028 244.181 224.796 244.09C225.113 244.678 225.7 246.847 225.7 246.847C225.7 246.847 211.783 258.007 202.113 254.935C192.444 251.862 193.528 249.919 193.528 249.919L192.579 238.804Z" fill="#AADBF9"/>
<path d="M185.44 237.448C180.967 238.126 175.454 240.204 174.776 241.244C173.556 248.428 176.267 255.432 180.424 263.701C185.35 263.791 188.919 263.836 192.353 263.43C193.483 260.719 195.742 254.212 197.053 250.507C197.279 249.829 197.279 249.106 197.053 248.428C195.697 244.723 193.664 238.713 192.218 238.713C190.501 238.623 185.44 237.448 185.44 237.448Z" fill="#CCE9FF"/>
<path d="M190.365 234.556C190.365 234.556 189.371 238.984 190.365 240.204C189.913 241.967 189.416 243.458 189.416 243.458L184.672 238.984L185.756 232.704L190.365 234.556Z" fill="#FCD2B1"/>
<path d="M194.567 227.507C196.104 227.01 197.143 225.429 197.369 223.847C197.595 222.221 197.053 220.594 196.284 219.148C195.426 217.567 194.116 216.03 192.353 215.714C191.495 215.533 190.591 215.669 189.733 215.804C187.112 216.211 184.491 216.618 181.825 217.024C179.295 217.386 176.584 217.883 174.821 219.69C172.472 222.085 172.517 226.107 170.393 228.727C168.676 230.896 165.83 231.755 163.119 232.297C160.407 232.839 157.561 233.11 155.166 234.556C152.771 235.957 151.099 238.397 150.06 241.018C149.292 242.87 148.84 244.904 149.292 246.847C150.06 250.236 153.494 252.54 156.973 253.037C160.453 253.534 163.932 252.676 167.321 251.817C169.083 251.365 170.936 250.868 172.201 249.558C173.24 248.473 173.737 247.027 174.324 245.672C177.894 237.177 185.576 230.49 194.477 228.14" fill="#0E538C"/>
<path d="M195.787 227.01C195.787 230.941 194.567 235.505 191.314 235.505C188.061 235.505 184.084 233.11 184.084 227.01C184.084 223.079 186.705 219.871 189.959 219.871C193.167 219.871 195.787 223.079 195.787 227.01Z" fill="#FFE3CA"/>
<path d="M196.239 221.453C195.923 222.989 194.884 224.39 193.438 225.113C192.263 225.7 190.862 225.79 189.552 225.881C187.338 226.016 185.124 226.152 182.955 226.287C182.864 226.287 182.729 226.287 182.639 226.197C182.593 226.107 182.639 225.971 182.729 225.881C183.587 224.616 184.446 223.35 185.304 222.04C186.208 220.684 187.338 219.193 188.964 218.922C190.23 218.696 191.45 219.239 192.579 219.871C193.664 220.504 194.748 221.227 196.013 221.453" fill="#0E538C"/>
<path d="M184.669 231.199C185.452 230.814 185.651 229.612 185.111 228.515C184.572 227.417 183.5 226.84 182.716 227.225C181.932 227.61 181.733 228.812 182.273 229.91C182.812 231.007 183.885 231.584 184.669 231.199Z" fill="#FFE3CA"/>
<path d="M184.762 231.845C185.137 231.845 185.44 231.542 185.44 231.167C185.44 230.793 185.137 230.49 184.762 230.49C184.388 230.49 184.084 230.793 184.084 231.167C184.084 231.542 184.388 231.845 184.762 231.845Z" fill="#FFBE55"/>
<path d="M145.767 340.606C145.767 340.606 143.734 352.399 143.644 354.613C140.933 351.36 140.526 340.38 139.216 339.747C137.905 339.115 142.921 336.991 142.921 336.991L145.767 340.606Z" fill="#0B4870"/>
<path d="M187.699 364.78C187.699 364.78 197.188 369.208 199.267 369.931C195.381 371.648 184.265 368.801 183.271 369.886C182.322 370.97 182.684 364.057 182.684 364.057L187.699 364.78Z" fill="#0B4870"/>
<path d="M311.778 204.237C309.519 207.129 310.467 214.268 311.01 215.307C311.552 216.347 311.733 218.516 313.133 219.374C314.534 220.233 316.703 220.684 316.748 220.187C316.793 219.69 317.155 205.638 317.155 205.638L311.778 204.237Z" fill="#0B4870"/>
<path d="M320.589 220.368C320.589 220.368 321.538 224.209 321.809 225.067C321.131 226.197 320.408 228.547 320.408 228.547L314.941 224.661L315.393 217.883L320.589 220.368Z" fill="#FCD2B1"/>
<path d="M326.102 212.913C326.102 216.934 324.61 221.859 321.086 221.859C314.715 221.859 313.404 216.934 313.404 212.913C313.404 208.891 316.251 205.638 319.776 205.638C323.3 205.638 326.102 208.891 326.102 212.913Z" fill="#FFE3CA"/>
<path d="M319.324 210.473C318.014 210.834 316.748 211.241 315.393 211.241C314.083 211.241 312.682 210.879 311.688 209.885C310.694 208.891 310.106 207.219 310.558 205.819C311.1 204.011 312.998 203.153 314.715 203.153C316.387 203.153 318.059 203.785 319.731 203.876C321.402 203.966 323.345 203.379 324.114 201.661C325.424 202.972 326.689 204.282 327.909 205.683C328.542 206.406 329.22 207.355 328.858 208.304C328.632 208.891 328.045 209.162 327.457 209.207C326.915 209.253 326.328 209.117 325.785 209.117C324.746 209.117 323.707 209.524 322.758 209.976C321.809 210.427 321.041 210.337 319.957 210.337L319.324 210.473Z" fill="#0B4870"/>
<path d="M314.85 210.201C315.076 212.19 314.624 213.5 314.218 214.042C314.127 214.991 314.218 216.301 314.218 216.301H313.224L312.365 209.84L314.85 210.201Z" fill="#0B4870"/>
<path d="M313.388 215.951C313.899 215.75 314.018 214.835 313.653 213.905C313.289 212.976 312.579 212.385 312.068 212.586C311.557 212.786 311.438 213.702 311.803 214.632C312.167 215.561 312.877 216.152 313.388 215.951Z" fill="#FFE3CA"/>
<path d="M312.998 212.144L313.63 216.076L314.037 215.85L313.766 212.551L312.998 212.144Z" fill="#0B4870"/>
<path d="M326.102 244.768C324.204 244.768 322.667 243.232 322.667 241.334V236.77H329.536V241.379C329.536 243.277 327.999 244.768 326.102 244.768Z" fill="#49B0FC"/>
<path d="M407.977 275.223H165.242V255.432H407.977C413.444 255.432 417.873 259.86 417.873 265.327C417.873 270.795 413.444 275.223 407.977 275.223Z" fill="#FFBE55"/>
<path d="M340.38 273.506C340.38 273.506 343.814 277.844 349.191 277.166C354.659 276.579 355.02 274.771 355.833 274.319C352.309 274.455 341.193 271.699 341.193 271.699L340.38 273.506Z" fill="#FCD2B1"/>
<path d="M183.09 276.895C184.717 277.663 190.772 278.612 192.308 278.296C193.89 277.979 196.872 275.539 197.459 275.63C195.742 275.584 192.941 277.211 192.353 276.985C191.766 276.759 190.998 276.488 190.998 276.488C190.998 276.488 192.941 275.359 192.715 274.681C191.901 275.042 189.778 276.262 189.778 276.262L182.729 275.539L183.09 276.895Z" fill="#FCD2B1"/>
<path d="M180.786 238.578C176.177 239.256 173.421 241.289 170.755 247.524C168.089 253.805 157.606 275.81 188.829 278.747C189.01 277.889 188.919 275.856 188.919 275.856C188.919 275.856 160.859 272.647 177.578 250.868L180.786 238.578Z" fill="#CCE9FF"/>
<path d="M235.144 242.147C240.34 242.147 244.587 246.395 244.587 251.591V279.019C244.587 284.215 240.34 288.462 235.144 288.462C229.947 288.462 225.7 284.215 225.7 279.019V251.591C225.7 246.395 229.902 242.147 235.144 242.147Z" fill="#FFCB80"/>
<path d="M308.163 225.384C304.91 229.631 304.548 236.59 306.356 238.533C308.163 240.476 331.75 267.903 340.47 275.268C341.419 273.913 342.684 271.563 342.684 271.563L308.163 225.384Z" fill="#49B0FC"/>
<path d="M58.3792 371.016C66.2867 371.016 69.5852 364.735 70.8955 358.047C72.3866 350.501 71.3022 342.504 71.3022 342.504H45.4563C45.4563 342.504 45.4111 342.82 45.3659 343.362C44.8689 348.061 43.3326 371.016 58.3792 371.016Z" fill="#B6E7FF"/>
<path d="M45.4563 342.459C45.4563 343.001 51.24 343.498 58.3793 343.498C65.5185 343.498 71.3022 343.046 71.3022 342.459C71.3022 341.871 65.5185 341.419 58.3793 341.419C51.24 341.464 45.4563 341.916 45.4563 342.459Z" fill="#85DDFF"/>
<path d="M23.4059 270.84C23.4059 270.84 37.0067 291.58 45.1852 304.232C53.3637 316.884 55.4874 319.504 56.4815 323.616C57.4756 327.683 58.3341 342.775 58.3341 342.775H58.9215C58.9215 342.775 58.6956 329.987 57.9726 325.65C57.2496 321.493 58.0178 320.001 58.6052 315.619C59.1926 311.236 59.9608 304.232 55.5326 299.352C51.1045 294.472 52.2793 289.727 50.6978 286.519C49.1615 283.311 37.0519 279.425 35.5156 276.127C34.0245 272.783 27.2015 270.75 23.4059 270.84Z" fill="#2A94F4"/>
<path d="M23.4059 270.84C23.4059 270.84 27.6985 275.72 30.5904 277.347C33.5274 279.019 34.883 277.528 37.097 281.549C39.3563 285.525 39.4015 287.288 41.48 289.321C43.5133 291.354 45.9533 291.445 46.1341 295.918C46.3148 300.391 45.14 304.187 45.14 304.187C45.14 304.187 24.2644 271.925 23.4059 270.84Z" fill="#41AAF7"/>
<path d="M57.2496 342.775H56.617C56.617 342.775 56.4363 338.618 54.8096 336.63C53.7704 335.319 49.2519 333.873 44.7785 332.111C42.3385 331.117 39.8985 330.078 38.0459 328.903C32.8496 325.604 27.9244 314.986 27.5178 313.133C27.3822 312.456 27.2919 312.094 27.2919 311.823C27.2919 311.326 27.563 311.236 27.9696 310.739C28.1956 310.513 28.8282 310.558 29.5963 310.829C31.8104 311.507 33.7081 313.043 34.883 315.076C35.9674 316.929 37.6844 319.279 39.8082 319.866C43.4682 320.86 43.1519 321.447 44.5074 325.153C45.863 328.858 49.2519 329.49 53.4993 333.873C57.7919 338.121 57.2496 342.775 57.2496 342.775Z" fill="#2A94F4"/>
<path d="M44.7785 332.066C42.3385 331.072 39.8985 330.033 38.0459 328.858C32.8496 325.559 27.9244 314.941 27.5178 313.088C27.3822 312.41 27.2919 312.049 27.2919 311.778C27.2919 311.913 27.563 313.585 30.2289 314.715C33.0304 315.89 33.5726 315.89 33.9341 317.652C34.2956 319.414 34.6119 321.312 36.0578 321.673C37.5037 322.035 38.4526 320.408 39.5822 323.074C40.757 325.74 41.2993 326.689 42.3385 327.05C43.423 327.412 44.1911 326.87 44.4622 328.948C44.6882 330.123 44.7333 331.343 44.7785 332.066Z" fill="#41AAF7"/>
<path d="M61.723 342.775H62.4459C62.4459 342.775 63.8467 317.11 65.7896 314.715C67.0548 313.179 71.2118 310.422 76.4533 308.344C79.3452 307.169 82.237 305.949 84.4059 304.548C90.5511 300.662 96.38 288.101 96.877 285.841C97.0578 285.073 97.1481 284.576 97.1481 284.26C97.1481 283.673 96.8318 283.582 96.3348 282.95C96.1089 282.633 95.3407 282.769 94.437 283.04C91.7711 283.853 89.557 285.661 88.1563 288.056C86.8911 290.27 84.8126 293.026 82.3274 293.704C77.9896 294.879 78.3511 295.601 76.7696 299.984C75.1881 304.413 71.1667 305.09 66.1059 310.287C61.0904 315.528 61.723 342.775 61.723 342.775Z" fill="#2A94F4"/>
<path d="M76.4985 308.344C79.3904 307.169 82.2822 305.949 84.4511 304.548C90.5963 300.662 96.4252 288.101 96.9222 285.841C97.103 285.073 97.1933 284.576 97.1933 284.26C97.1933 284.396 96.877 286.384 93.7141 287.739C90.4156 289.095 89.7378 289.095 89.3311 291.219C88.8793 293.297 88.5178 295.556 86.8007 295.963C85.0837 296.415 83.9993 294.427 82.5985 297.635C81.243 300.798 80.5652 301.882 79.3 302.334C78.0348 302.786 77.0859 302.108 76.8148 304.593C76.6341 306.039 76.5437 307.485 76.4985 308.344Z" fill="#41AAF7"/>
<path d="M58.3792 371.016C66.2867 371.016 69.5852 364.735 70.8955 358.047C63.1689 355.11 53.4541 350.411 45.3659 343.362C44.8689 348.061 43.3326 371.016 58.3792 371.016Z" fill="#CCE9FF"/>
</svg>
