<svg width="500" height="500" viewBox="0 0 500 500" fill="none" xmlns="http://www.w3.org/2000/svg">
<path d="M449.92 438.05L333.13 437.98C319.08 437.97 307.7 426.58 307.7 412.54L307.76 119.75C307.76 105.7 319.16 94.31 333.22 94.31L450 94.37C464.05 94.38 475.43 105.77 475.43 119.82L475.37 412.61C475.37 426.67 463.97 438.05 449.92 438.05Z" fill="#0E538C"/>
<path d="M449.88 104.73L427.24 104.72C424.2 104.72 421.74 107.29 421.74 110.46V114.57C421.74 117.74 419.28 120.32 416.24 120.31L372.1 120.28C369.06 120.28 366.6 117.7 366.6 114.53V110.42C366.6 107.25 364.14 104.67 361.1 104.67H353.14L333.32 104.66C323.48 104.65 315.49 112.63 315.49 122.47L315.43 408.26C315.43 418.1 323.4 426.08 333.24 426.08L449.8 426.15C459.64 426.16 467.62 418.18 467.63 408.34L467.69 122.55C467.69 112.71 459.72 104.73 449.88 104.73Z" fill="white"/>
<path d="M441.03 275.16H340.42V295.71H441.03V275.16Z" fill="#EBEBEB"/>
<path d="M441.03 304.98H340.42V325.53H441.03V304.98Z" fill="#EBEBEB"/>
<path d="M417.82 366.94H367.32C361.65 366.94 357.04 362.34 357.04 356.66C357.04 350.98 361.64 346.38 367.32 346.38H417.82C423.5 346.38 428.1 350.98 428.1 356.66C428.1 362.34 423.5 366.94 417.82 366.94Z" fill="#4F46EF"/>
<path d="M354.31 289.96H349.87C349.43 289.96 349.08 289.61 349.08 289.17C349.08 287.53 350.41 286.21 352.04 286.21H352.14C353.78 286.21 355.1 287.54 355.1 289.17C355.1 289.61 354.75 289.96 354.31 289.96Z" fill="#E0E0E0"/>
<path d="M353.86 284.65C353.86 285.63 353.07 286.42 352.09 286.42C351.11 286.42 350.32 285.63 350.32 284.65C350.32 283.67 351.11 282.88 352.09 282.88C353.07 282.88 353.86 283.67 353.86 284.65Z" fill="#E0E0E0"/>
<path d="M354.74 315.58H349.44V319.33H354.74V315.58Z" fill="#E0E0E0"/>
<path d="M355.34 316.38H353.56V315.22C353.56 314.39 352.89 313.72 352.06 313.72C351.23 313.72 350.56 314.39 350.56 315.22V316.38H348.78V315.22C348.78 313.41 350.25 311.94 352.06 311.94C353.87 311.94 355.34 313.41 355.34 315.22V316.38Z" fill="#E0E0E0"/>
<path d="M345.13 141.31C345.13 142.43 345.13 143.56 345.13 144.68C345.13 145.19 344.93 145.39 344.43 145.39C343.13 145.39 341.83 145.39 340.53 145.39C340.05 145.39 339.86 145.19 339.86 144.72C339.86 143.91 339.87 143.09 339.85 142.28C339.83 141.39 338.99 140.85 338.19 141.22C337.73 141.43 337.53 141.82 337.53 142.32C337.53 143.09 337.53 143.85 337.53 144.62C337.53 145.23 337.36 145.39 336.75 145.39C335.52 145.39 334.29 145.39 333.06 145.39C332.52 145.39 332.34 145.22 332.34 144.68C332.34 142.46 332.34 140.24 332.34 138.02C332.34 137.42 332.56 136.96 333.05 136.61C334.81 135.35 336.55 134.08 338.31 132.82C338.63 132.59 338.83 132.59 339.16 132.82C340.91 134.08 342.66 135.35 344.42 136.61C344.91 136.96 345.14 137.42 345.13 138.02C345.12 139.12 345.13 140.21 345.13 141.31ZM333.4 144.29C334.44 144.29 335.45 144.29 336.49 144.29C336.49 143.61 336.48 142.96 336.49 142.3C336.5 141.03 337.48 140.05 338.71 140.05C339.94 140.05 340.92 141.03 340.94 142.3C340.95 142.86 340.96 143.43 340.94 143.99C340.93 144.26 341 144.36 341.29 144.35C342.09 144.33 342.9 144.34 343.7 144.34C343.8 144.34 343.91 144.33 344.04 144.32C344.04 144.17 344.04 144.05 344.04 143.92C344.04 142 344.03 140.08 344.04 138.16C344.04 137.82 343.94 137.6 343.66 137.41C342.07 136.27 340.49 135.12 338.9 133.96C338.76 133.86 338.66 133.85 338.52 133.95C336.92 135.11 335.31 136.27 333.71 137.42C333.48 137.58 333.38 137.77 333.39 138.05C333.4 140.02 333.39 141.99 333.39 143.95C333.4 144.07 333.4 144.17 333.4 144.29Z" fill="black"/>
<path d="M453.12 134.39H440.8C440.56 134.39 440.36 134.19 440.36 133.95C440.36 133.71 440.56 133.51 440.8 133.51H453.12C453.36 133.51 453.56 133.71 453.56 133.95C453.55 134.19 453.36 134.39 453.12 134.39Z" fill="black"/>
<path d="M453.12 137.92H440.8C440.56 137.92 440.36 137.72 440.36 137.48C440.36 137.24 440.56 137.04 440.8 137.04H453.12C453.36 137.04 453.56 137.24 453.56 137.48C453.55 137.72 453.36 137.92 453.12 137.92Z" fill="black"/>
<path d="M453.12 141.45H440.8C440.56 141.45 440.36 141.25 440.36 141.01C440.36 140.77 440.56 140.57 440.8 140.57H453.12C453.36 140.57 453.56 140.77 453.56 141.01C453.55 141.25 453.36 141.45 453.12 141.45Z" fill="black"/>
<path d="M419.92 261.84H363.45C361.73 261.84 360.33 260.44 360.33 258.72V257.34C360.33 255.62 361.73 254.22 363.45 254.22H419.92C421.64 254.22 423.04 255.62 423.04 257.34V258.72C423.04 260.43 421.63 261.84 419.92 261.84Z" fill="#4F46EF"/>
<path d="M408.39 395.21H379.16C377.44 395.21 376.04 393.81 376.04 392.09V390.71C376.04 388.99 377.44 387.59 379.16 387.59H408.39C410.11 387.59 411.51 388.99 411.51 390.71V392.09C411.51 393.81 410.11 395.21 408.39 395.21Z" fill="#4F46EF"/>
<path d="M422.06 385.67H365.5C363.78 385.67 362.38 384.27 362.38 382.55V381.17C362.38 379.45 363.78 378.05 365.5 378.05H422.07C423.79 378.05 425.19 379.45 425.19 381.17V382.55C425.18 384.26 423.78 385.67 422.06 385.67Z" fill="#E0E0E0"/>
<path d="M215.06 131.74L194 131.72C191.18 131.72 188.89 134.11 188.89 137.06V140.88C188.89 143.83 186.6 146.22 183.78 146.22L142.73 146.2C139.91 146.2 137.62 143.8 137.62 140.85V137.03C137.62 134.08 135.33 131.68 132.51 131.68H125.1L106.67 131.67C97.52 131.66 90.09 139.08 90.09 148.24L90.04 414.03C90.04 423.18 97.45 430.6 106.6 430.6L215 430.66C224.15 430.67 231.58 423.25 231.58 414.09L231.63 148.3C231.62 139.16 224.21 131.74 215.06 131.74Z" fill="white"/>
<path d="M215.06 131.74C215.06 131.74 215.25 131.74 215.63 131.76C216 131.8 216.58 131.75 217.31 131.89C218.78 132.06 221.01 132.54 223.53 134.04C224.8 134.76 226.09 135.79 227.31 137.1C228.53 138.42 229.66 140.07 230.47 142.05C231.29 144.02 231.73 146.32 231.71 148.78C231.71 151.23 231.72 153.83 231.72 156.59C231.73 178.67 231.75 210.61 231.78 250.08C231.79 289.55 231.79 336.55 231.8 388.74C231.8 395.26 231.8 401.87 231.8 408.55C231.8 410.22 231.8 411.9 231.8 413.58C231.78 415.26 231.67 417 231.17 418.63C230.69 420.27 230.01 421.87 229.05 423.3C228.09 424.73 226.93 426.02 225.6 427.13C222.91 429.29 219.53 430.67 216.03 430.84C212.56 430.94 209.11 430.87 205.62 430.89C198.65 430.89 191.62 430.88 184.52 430.88C170.32 430.87 155.87 430.87 141.21 430.86C133.88 430.86 126.49 430.85 119.06 430.85C115.34 430.85 111.61 430.85 107.87 430.84C104.11 431.03 100.22 430.04 97.08 427.86C93.93 425.7 91.6 422.42 90.51 418.79C89.93 416.98 89.82 415.05 89.82 413.18C89.82 411.31 89.82 409.45 89.82 407.59C89.82 400.15 89.82 392.77 89.83 385.43C89.83 370.76 89.84 356.31 89.84 342.11C89.85 313.71 89.86 286.31 89.87 260.21C89.88 234.11 89.89 209.31 89.91 186.1C89.92 174.5 89.92 163.29 89.93 152.52C89.93 151.17 89.93 149.83 89.93 148.5C89.94 147.83 89.99 147.16 90.02 146.49C90.14 145.83 90.19 145.16 90.36 144.52C90.97 141.93 92.17 139.5 93.85 137.5C95.54 135.51 97.66 133.94 100 132.91C102.33 131.86 104.89 131.49 107.37 131.52C112.3 131.53 117.12 131.53 121.81 131.54C124.16 131.54 126.47 131.55 128.76 131.55C129.9 131.55 131.04 131.55 132.16 131.55C133.3 131.49 134.49 131.81 135.42 132.46C136.36 133.12 137.08 134.06 137.45 135.12C137.87 136.18 137.77 137.33 137.79 138.39C137.79 138.93 137.79 139.47 137.79 140C137.79 140.54 137.77 141.07 137.84 141.58C137.97 142.61 138.4 143.59 139.08 144.35C139.74 145.13 140.64 145.68 141.61 145.92C142.1 146.04 142.59 146.08 143.1 146.07C143.61 146.07 144.12 146.07 144.63 146.07C146.66 146.07 148.65 146.08 150.61 146.08C158.45 146.09 165.74 146.1 172.46 146.11C175.82 146.12 179.03 146.12 182.09 146.13C182.85 146.12 183.62 146.16 184.35 146.1C185.08 146.02 185.77 145.77 186.38 145.39C187.6 144.63 188.42 143.38 188.7 142.05C188.85 141.39 188.83 140.71 188.83 140.04C188.83 139.37 188.83 138.71 188.83 138.06C188.84 137.41 188.8 136.76 188.92 136.13C189.03 135.5 189.24 134.9 189.55 134.35C190.15 133.26 191.12 132.44 192.2 132.01C193.29 131.54 194.45 131.68 195.49 131.66C199.74 131.67 203.33 131.68 206.24 131.69C209.14 131.7 211.36 131.71 212.85 131.72C214.3 131.72 215.06 131.74 215.06 131.74C215.06 131.74 214.3 131.76 212.81 131.76C211.32 131.76 209.1 131.77 206.2 131.78C203.29 131.78 199.7 131.79 195.45 131.8C194.39 131.82 193.26 131.69 192.21 132.15C191.17 132.56 190.23 133.37 189.65 134.43C189.36 134.96 189.15 135.54 189.05 136.15C188.94 136.76 188.98 137.4 188.97 138.05C188.97 138.7 188.97 139.36 188.97 140.03C188.97 140.69 189 141.39 188.84 142.08C188.55 143.45 187.7 144.75 186.44 145.54C185.81 145.94 185.09 146.2 184.33 146.29C183.56 146.36 182.82 146.31 182.05 146.32C178.99 146.32 175.77 146.32 172.42 146.32C165.7 146.32 158.41 146.32 150.57 146.33C148.61 146.33 146.62 146.33 144.59 146.33C144.08 146.33 143.57 146.33 143.06 146.33C142.55 146.34 142.01 146.31 141.5 146.18C140.47 145.93 139.52 145.34 138.82 144.52C138.11 143.71 137.65 142.68 137.51 141.6C137.44 141.05 137.46 140.51 137.45 139.98C137.45 139.44 137.45 138.91 137.45 138.37C137.44 137.29 137.53 136.2 137.13 135.2C136.78 134.19 136.09 133.3 135.21 132.68C134.32 132.06 133.23 131.77 132.12 131.83C130.99 131.83 129.86 131.83 128.72 131.83C126.43 131.83 124.12 131.83 121.77 131.83C117.08 131.83 112.26 131.83 107.33 131.83C104.88 131.8 102.39 132.17 100.1 133.2C97.82 134.21 95.74 135.76 94.08 137.71C92.44 139.67 91.27 142.05 90.67 144.59C90.5 145.22 90.45 145.88 90.34 146.52C90.31 147.18 90.26 147.83 90.25 148.49C90.25 149.82 90.25 151.16 90.25 152.51C90.25 163.28 90.25 174.49 90.26 186.09C90.26 209.3 90.26 234.1 90.27 260.2C90.27 286.3 90.27 313.7 90.27 342.1C90.27 356.3 90.27 370.75 90.27 385.42C90.27 392.75 90.27 400.14 90.27 407.58C90.27 409.44 90.27 411.3 90.27 413.17C90.27 415.03 90.37 416.87 90.94 418.64C92 422.17 94.26 425.36 97.33 427.46C100.4 429.58 104.13 430.54 107.86 430.36C111.6 430.36 115.33 430.36 119.05 430.37C126.48 430.37 133.87 430.38 141.2 430.38C155.86 430.39 170.31 430.4 184.51 430.41C191.61 430.42 198.65 430.42 205.61 430.42C209.09 430.4 212.58 430.48 216 430.38C219.41 430.21 222.69 428.87 225.31 426.77C226.61 425.69 227.74 424.43 228.67 423.04C229.61 421.65 230.27 420.09 230.73 418.49C231.23 416.89 231.33 415.22 231.35 413.55C231.35 411.87 231.35 410.2 231.35 408.52C231.35 401.84 231.36 395.23 231.36 388.71C231.39 336.52 231.42 289.52 231.44 250.05C231.48 210.58 231.51 178.64 231.53 156.56C231.53 153.8 231.54 151.2 231.54 148.75C231.57 146.31 231.14 144.03 230.33 142.08C229.53 140.12 228.42 138.48 227.22 137.16C226.01 135.85 224.74 134.82 223.48 134.1C220.99 132.6 218.77 132.11 217.31 131.92C216.58 131.77 216.01 131.81 215.64 131.77C215.25 131.75 215.06 131.74 215.06 131.74Z" fill="#1E0F00"/>
<path d="M217.19 156.64C217.19 156.82 213.7 156.96 209.39 156.96C205.08 156.96 201.59 156.82 201.59 156.64C201.59 156.46 205.08 156.32 209.39 156.32C213.7 156.32 217.19 156.46 217.19 156.64Z" fill="#1E0F00"/>
<path d="M215.59 159.21C215.59 159.39 212.1 159.53 207.79 159.53C203.48 159.53 199.99 159.39 199.99 159.21C199.99 159.03 203.48 158.89 207.79 158.89C212.09 158.89 215.59 159.04 215.59 159.21Z" fill="#1E0F00"/>
<path d="M216.39 161.62C216.39 161.8 212.9 161.94 208.59 161.94C204.28 161.94 200.79 161.8 200.79 161.62C200.79 161.44 204.28 161.3 208.59 161.3C212.9 161.31 216.39 161.45 216.39 161.62Z" fill="#1E0F00"/>
<path d="M173.27 181.7C173.27 181.7 173.47 181.75 173.85 181.88C174.26 182.02 174.82 182.22 175.54 182.47C176.27 182.77 177.16 183.16 178.21 183.65C179.22 184.2 180.42 184.8 181.66 185.64C184.17 187.27 187.05 189.6 189.82 192.85C191.17 194.5 192.55 196.33 193.73 198.44C194.37 199.47 194.88 200.61 195.44 201.75C195.92 202.93 196.46 204.13 196.84 205.42C198.56 210.51 199.08 216.57 197.94 222.79C196.81 229 194 235.4 189.4 240.85C187.1 243.57 184.35 246.03 181.21 248.03C178.07 250.04 174.54 251.58 170.81 252.6C163.34 254.63 154.96 254.44 147.2 251.72C139.44 248.94 132.93 243.6 128.56 237.22C124.14 230.85 121.67 223.51 121.33 216.39C120.99 209.28 122.64 202.43 125.87 196.97C129.08 191.46 133.85 187.61 138.57 185.1C143.32 182.57 148.1 181.32 152.3 180.71C156.52 180.1 160.2 180.1 163.19 180.23C169.17 180.56 172.41 181.29 172.41 181.29C172.41 181.29 172.2 181.28 171.8 181.23C171.37 181.18 170.78 181.11 170.02 181.01C168.46 180.83 166.15 180.58 163.17 180.47C160.19 180.38 156.53 180.42 152.34 181.06C148.17 181.7 143.45 182.97 138.77 185.5C134.12 188.01 129.44 191.82 126.31 197.24C123.16 202.62 121.55 209.36 121.9 216.36C122.25 223.36 124.7 230.6 129.06 236.86C133.37 243.14 139.77 248.38 147.4 251.11C155.03 253.79 163.28 253.98 170.63 251.99C178.01 250.04 184.44 245.84 188.94 240.47C193.49 235.12 196.27 228.82 197.41 222.7C198.56 216.57 198.08 210.6 196.4 205.56C196.03 204.28 195.5 203.1 195.04 201.92C194.48 200.79 193.99 199.66 193.36 198.63C192.21 196.53 190.86 194.71 189.53 193.07C186.81 189.83 183.98 187.49 181.5 185.84C180.28 184.99 179.1 184.38 178.1 183.81C177.07 183.31 176.19 182.9 175.47 182.58C174.76 182.3 174.2 182.09 173.8 181.94C173.45 181.8 173.27 181.7 173.27 181.7Z" fill="#1E0F00"/>
<path d="M182.91 231.9C182.89 231.91 182.79 231.69 182.62 231.28C182.43 230.8 182.19 230.19 181.89 229.46C181.26 227.88 180.39 225.57 179.03 222.86C177.67 220.17 175.8 217.01 172.84 214.34C171.37 213.01 169.63 211.81 167.66 210.96C165.68 210.13 163.46 209.65 161.19 209.83C156.61 210.13 152.61 212.49 149.81 215.26C147 218.09 145.3 221.35 144.21 224.15C143.11 226.97 142.56 229.38 142.2 231.04C142.04 231.82 141.92 232.45 141.81 232.96C141.72 233.4 141.67 233.63 141.65 233.63C141.63 233.63 141.64 233.39 141.69 232.94C141.73 232.49 141.82 231.84 141.96 230.99C142.25 229.31 142.73 226.87 143.79 223.99C144.85 221.13 146.53 217.78 149.4 214.84C152.26 211.98 156.37 209.51 161.15 209.19C163.52 209.01 165.86 209.51 167.91 210.38C169.96 211.27 171.75 212.52 173.24 213.9C176.26 216.67 178.12 219.92 179.44 222.66C180.75 225.43 181.56 227.77 182.12 229.37C182.37 230.12 182.57 230.74 182.73 231.23C182.87 231.67 182.93 231.9 182.91 231.9Z" fill="#1E0F00"/>
<path d="M162.15 192.7C162.15 192.68 162.31 192.69 162.6 192.73C162.9 192.76 163.33 192.87 163.86 193.09C164.91 193.5 166.37 194.49 167.39 196.3C167.89 197.2 168.28 198.3 168.33 199.52C168.38 200.74 168.08 202.08 167.34 203.26C165.94 205.59 162.93 207.43 159.7 206.95C156.48 206.4 154.18 203.77 153.49 201.14C153.11 199.81 153.18 198.45 153.51 197.28C153.85 196.11 154.46 195.12 155.13 194.34C156.49 192.78 158.07 192.05 159.16 191.78C159.71 191.63 160.15 191.58 160.45 191.58C160.75 191.57 160.9 191.58 160.9 191.6C160.91 191.66 160.28 191.68 159.23 192.02C158.19 192.36 156.72 193.12 155.48 194.64C154.87 195.4 154.32 196.34 154.03 197.43C153.75 198.52 153.7 199.77 154.07 200.99C154.73 203.42 156.9 205.84 159.81 206.33C162.73 206.77 165.54 205.1 166.85 202.96C167.54 201.89 167.83 200.67 167.81 199.55C167.78 198.42 167.45 197.38 167 196.52C166.09 194.79 164.75 193.78 163.77 193.32C162.77 192.83 162.14 192.77 162.15 192.7Z" fill="#1E0F00"/>
<path d="M199.09 277.01C199.08 277.03 198.79 276.93 198.24 276.71C197.69 276.5 196.87 276.21 195.79 275.93C193.64 275.37 190.39 274.81 186.44 275.39C184.47 275.66 182.35 276.23 180.23 277.2C179.17 277.68 178.09 278.27 176.89 278.73C175.71 279.18 174.33 279.56 172.93 279.18C169.93 278.4 169.48 274.46 166.78 273.95C165.46 273.67 164.25 274.64 163.27 275.69C162.25 276.74 161.3 277.97 159.98 278.89C159.32 279.36 158.53 279.62 157.72 279.75C156.91 279.8 156.09 279.7 155.37 279.4C153.91 278.83 152.72 277.89 151.58 277C150.45 276.1 149.36 275.19 148.19 274.51C147.04 273.82 145.74 273.4 144.52 273.63C143.27 273.79 142.27 274.63 141.47 275.54C140.66 276.46 139.98 277.49 139.22 278.41C138.47 279.33 137.59 280.18 136.56 280.67C135.53 281.17 134.44 281.37 133.4 281.35C131.32 281.31 129.52 280.35 128.48 279.07C127.44 277.79 127.04 276.37 126.96 275.24C126.86 274.1 127.09 273.22 127.28 272.66C127.48 272.1 127.67 271.84 127.67 271.84C127.77 271.86 127 272.99 127.2 275.22C127.31 276.31 127.73 277.65 128.74 278.84C129.74 280.02 131.44 280.88 133.39 280.9C134.36 280.9 135.38 280.7 136.32 280.23C137.27 279.76 138.07 278.98 138.79 278.07C139.52 277.17 140.19 276.14 141.03 275.17C141.86 274.22 142.97 273.25 144.4 273.06C145.81 272.79 147.27 273.27 148.48 273.99C149.71 274.71 150.82 275.63 151.95 276.52C153.08 277.4 154.24 278.31 155.57 278.82C156.23 279.09 156.93 279.17 157.63 279.13C158.32 279.01 159 278.8 159.6 278.37C160.8 277.53 161.74 276.34 162.79 275.25C163.32 274.71 163.87 274.17 164.56 273.78C165.23 273.38 166.08 273.18 166.87 273.34C167.67 273.45 168.37 273.91 168.88 274.44C169.41 274.97 169.82 275.56 170.22 276.13C171.01 277.25 171.86 278.32 173.07 278.63C174.26 278.96 175.54 278.65 176.68 278.22C177.84 277.79 178.91 277.21 180 276.73C182.18 275.75 184.36 275.2 186.37 274.95C190.41 274.43 193.7 275.06 195.85 275.7C196.93 276.03 197.74 276.36 198.28 276.6C198.83 276.85 199.1 276.99 199.09 277.01Z" fill="#1E0F00"/>
<path d="M180.45 287.99C180.45 288.17 172.57 288.31 162.85 288.31C153.13 288.31 145.25 288.17 145.25 287.99C145.25 287.81 153.13 287.67 162.85 287.67C172.56 287.67 180.45 287.81 180.45 287.99Z" fill="#1E0F00"/>
<path d="M106.84 331.21C106.66 331.21 106.6 326.22 106.7 320.07C106.8 313.92 107.02 308.93 107.2 308.93C107.38 308.93 107.44 313.92 107.34 320.08C107.24 326.23 107.02 331.21 106.84 331.21Z" fill="#1E0F00"/>
<path d="M212.97 332.2C212.97 332.38 188.73 332.13 158.83 331.66C128.93 331.18 104.7 330.66 104.7 330.48C104.7 330.3 128.94 330.55 158.84 331.02C188.74 331.5 212.97 332.03 212.97 332.2Z" fill="#1E0F00"/>
<path d="M212.52 307.32C212.52 307.5 189.08 308 160.17 308.44C131.25 308.88 107.81 309.1 107.81 308.92C107.81 308.74 131.24 308.24 160.16 307.8C189.08 307.36 212.52 307.14 212.52 307.32Z" fill="#1E0F00"/>
<path d="M212.08 331.66C211.9 331.66 211.76 326.17 211.76 319.41C211.76 312.64 211.9 307.16 212.08 307.16C212.26 307.16 212.4 312.65 212.4 319.41C212.4 326.17 212.26 331.66 212.08 331.66Z" fill="#1E0F00"/>
<path d="M119.49 317.04C119.49 317.01 119.76 316.96 120.23 317.1C120.69 317.23 121.34 317.61 121.86 318.32C122.36 319.02 122.77 320.11 122.45 321.3C122.15 322.51 120.92 323.45 119.56 323.61C118.21 323.79 116.78 323.19 116.19 322.09C115.58 321.02 115.71 319.86 116.02 319.05C116.35 318.23 116.88 317.71 117.29 317.46C117.71 317.21 117.99 317.19 117.99 317.22C118.07 317.31 116.93 317.66 116.44 319.2C116.21 319.93 116.17 320.94 116.69 321.78C117.18 322.64 118.33 323.12 119.48 322.97C120.63 322.83 121.62 322.08 121.88 321.13C122.17 320.18 121.88 319.22 121.48 318.56C120.63 317.2 119.44 317.15 119.49 317.04Z" fill="#1E0F00"/>
<path d="M110.44 365.53C110.27 365.55 109.51 360.89 108.75 355.11C107.99 349.33 107.51 344.63 107.69 344.6C107.86 344.58 108.62 349.24 109.38 355.02C110.14 360.8 110.61 365.5 110.44 365.53Z" fill="#1E0F00"/>
<path d="M207.69 345.16C207.69 345.34 185.55 345.48 158.25 345.48C130.94 345.48 108.81 345.34 108.81 345.16C108.81 344.98 130.94 344.84 158.25 344.84C185.55 344.85 207.69 344.99 207.69 345.16Z" fill="#1E0F00"/>
<path d="M211.19 364.18C211.01 364.18 210.87 360.19 210.87 355.27C210.87 350.35 211.01 346.36 211.19 346.36C211.37 346.36 211.51 350.35 211.51 355.27C211.51 360.19 211.37 364.18 211.19 364.18Z" fill="#1E0F00"/>
<path d="M212.08 365.38C212.08 365.56 189.65 365.7 161.98 365.7C134.31 365.7 111.88 365.56 111.88 365.38C111.88 365.2 134.31 365.06 161.98 365.06C189.65 365.06 212.08 365.2 212.08 365.38Z" fill="#1E0F00"/>
<path d="M118.15 354.35C118.13 354.33 118.32 354.13 118.79 354.01C119.25 353.89 120.01 353.95 120.73 354.44C121.08 354.69 121.44 355.05 121.65 355.54C121.86 356.03 121.9 356.64 121.72 357.21C121.38 358.33 120.25 359.37 118.81 359.35C117.39 359.29 116.32 358.24 115.93 357.17C115.5 356.05 115.83 354.93 116.3 354.24C116.78 353.52 117.37 353.13 117.8 352.95C118.23 352.76 118.49 352.75 118.5 352.79C118.56 352.89 117.47 353.14 116.69 354.48C116.32 355.13 116.1 356.07 116.48 356.97C116.83 357.86 117.75 358.69 118.83 358.73C119.91 358.77 120.87 357.93 121.16 357.05C121.49 356.14 121.05 355.26 120.46 354.82C119.88 354.36 119.23 354.24 118.82 354.27C118.4 354.29 118.17 354.4 118.15 354.35Z" fill="#1E0F00"/>
<path d="M133.61 407.98C133.61 408 133.48 408.04 133.23 408.08C132.98 408.11 132.6 408.22 132.11 408.22C131.13 408.29 129.68 408.17 128 407.6C126.32 407.04 124.45 405.94 122.83 404.23C121.21 402.54 119.91 400.14 119.63 397.4C119.41 394.65 120.25 392.06 121.53 390.09C122.81 388.11 124.45 386.69 126 385.83C127.55 384.96 128.95 384.58 129.93 384.47C130.41 384.38 130.8 384.42 131.06 384.4C131.32 384.4 131.45 384.41 131.45 384.43C131.49 384.6 129.19 384.42 126.23 386.22C124.77 387.1 123.22 388.5 122.03 390.41C120.83 392.3 120.06 394.77 120.27 397.34C120.54 399.91 121.75 402.19 123.27 403.83C124.8 405.49 126.57 406.58 128.17 407.18C131.39 408.4 133.62 407.81 133.61 407.98Z" fill="#FFBE56"/>
<path d="M200.94 407.4C200.94 407.58 187.07 407.72 169.97 407.72C152.86 407.72 139 407.58 139 407.4C139 407.22 152.86 407.08 169.97 407.08C187.08 407.08 200.94 407.23 200.94 407.4Z" fill="#FFBE56"/>
<path d="M201.59 405.86C201.55 405.77 203 405.56 205.02 404.09C206.02 403.36 207.13 402.27 208.03 400.76C208.93 399.26 209.54 397.28 209.45 395.07C209.36 392.88 208.6 390.45 206.91 388.48C205.23 386.51 202.71 385.11 199.86 384.43C197.01 383.72 193.89 383.58 190.67 383.6C187.44 383.64 184.09 383.68 180.66 383.72C166.97 383.84 154.57 383.95 145.53 384.03C141.08 384.04 137.46 384.05 134.88 384.05C133.67 384.04 132.7 384.03 131.98 384.02C131.32 384.01 130.97 383.99 130.97 383.97C130.97 383.95 131.32 383.92 131.98 383.89C132.7 383.87 133.66 383.84 134.87 383.8C137.45 383.75 141.07 383.67 145.52 383.58C154.57 383.45 166.96 383.28 180.65 383.08C184.08 383.04 187.43 383.01 190.66 382.98C193.9 382.97 197.07 383.12 199.99 383.87C202.91 384.59 205.55 386.06 207.3 388.15C209.05 390.24 209.81 392.78 209.88 395.06C209.94 397.36 209.27 399.42 208.31 400.95C207.35 402.49 206.19 403.58 205.14 404.3C204.09 405.02 203.17 405.41 202.54 405.62C202.23 405.73 201.98 405.79 201.81 405.83C201.68 405.86 201.59 405.87 201.59 405.86Z" fill="#FFBE56"/>
<path d="M197.51 397.34C197.51 397.36 197.26 397.4 196.78 397.44C196.23 397.48 195.54 397.53 194.69 397.6C192.79 397.71 190.19 397.87 187 398.06C180.43 398.39 171.5 398.84 161.63 399.34C158.79 399.48 155.88 399.6 153.27 398.67C151.98 398.21 150.83 397.59 149.65 397.2C148.48 396.79 147.27 396.68 146.2 397.07C144.06 397.87 142.53 399.84 140.37 400.34C138.24 401.07 135.84 399.06 136.57 397.18L136.77 397.45C135.82 397.51 135.06 398.13 134.66 398.79C134.24 399.46 134.16 400.2 134.28 400.78L134.04 400.81C134.06 399.97 134.07 399.3 134.08 398.76C134.1 398.29 134.12 398.05 134.14 398.05C134.16 398.05 134.18 398.29 134.21 398.76C134.23 399.29 134.26 399.97 134.29 400.81L134.33 401.89L134.05 400.84C133.88 400.2 133.94 399.38 134.39 398.62C134.82 397.88 135.64 397.16 136.75 397.05L137.06 397.02L136.94 397.32C136.67 398.01 137.02 398.86 137.69 399.4C138.36 399.97 139.31 400.13 140.26 399.86C141.21 399.61 142.1 399.04 142.99 398.38C143.89 397.73 144.82 396.97 146.02 396.53C147.23 396.07 148.62 396.21 149.85 396.63C151.09 397.04 152.26 397.66 153.49 398.09C155.96 398.97 158.77 398.85 161.62 398.71C171.49 398.28 180.43 397.9 187 397.61C190.19 397.5 192.79 397.41 194.7 397.35C195.55 397.33 196.25 397.32 196.79 397.31C197.26 397.31 197.51 397.32 197.51 397.34Z" fill="#1E0F00"/>
<path d="M205.7 417.76C205.7 417.94 187.01 418.08 163.96 418.08C140.9 418.08 122.21 417.94 122.21 417.76C122.21 417.58 140.9 417.44 163.96 417.44C187.01 417.44 205.7 417.59 205.7 417.76Z" fill="#FFBE56"/>
<path d="M113.72 155.96C113.78 155.96 113.89 156.79 114.02 158.23C114.15 159.67 114.32 161.72 114.49 164.16L114.51 164.43L114.24 164.46C112.27 164.69 110.05 164.95 107.72 165.22C106.12 165.39 104.58 165.56 103.15 165.71L102.83 165.74L102.82 165.42C102.71 162.45 102.64 159.9 102.62 158.09C102.6 156.28 102.61 155.21 102.69 155.21C102.76 155.21 102.87 156.27 103 158.07C103.13 159.87 103.28 162.42 103.43 165.39L103.09 165.1C104.52 164.94 106.06 164.76 107.66 164.57C110 164.32 112.22 164.09 114.19 163.87L113.94 164.17C113.82 161.73 113.74 159.67 113.7 158.22C113.65 156.8 113.66 155.96 113.72 155.96Z" fill="#1E0F00"/>
<path d="M108.05 150.25C108.15 150.4 105.78 152.2 102.93 154.53C100.07 156.84 97.82 158.8 97.7 158.67C97.58 158.55 99.65 156.36 102.53 154.03C105.4 151.7 107.96 150.11 108.05 150.25Z" fill="#1E0F00"/>
<path d="M117.93 158.42C117.82 158.56 115.52 156.84 112.79 154.58C110.06 152.33 107.95 150.39 108.06 150.25C108.17 150.11 110.47 151.83 113.2 154.09C115.92 156.35 118.04 158.28 117.93 158.42Z" fill="#1E0F00"/>
<path d="M169.477 87.3146L146.238 85.1533L144.076 108.393L167.316 110.554L169.477 87.3146Z" fill="#FDE68A"/>
<path d="M155.99 102.8C155.9 102.79 155.89 101.83 155.95 100.27C155.97 99.85 155.99 99.43 156.01 98.99C156.03 98.75 156.07 98.47 156.22 98.2C156.37 97.93 156.61 97.72 156.85 97.57C157.34 97.27 157.86 97.13 158.25 96.83C158.65 96.53 158.99 96.11 159.17 95.61C159.57 94.6 159.14 93.53 158.42 92.93C157.71 92.31 156.81 92.13 156.09 92.22C154.6 92.42 154 93.33 153.94 93.24C153.91 93.22 154 92.98 154.32 92.65C154.64 92.33 155.21 91.93 156.03 91.77C156.83 91.6 157.93 91.75 158.81 92.47C159.24 92.83 159.62 93.31 159.82 93.91C160.03 94.51 160.01 95.2 159.77 95.82C159.54 96.44 159.12 96.96 158.62 97.32C158.1 97.69 157.55 97.83 157.15 98.06C156.74 98.28 156.58 98.58 156.54 99.03C156.49 99.46 156.45 99.88 156.41 100.29C156.22 101.85 156.07 102.81 155.99 102.8Z" fill="#1E0F00"/>
<path d="M155.65 104.12C155.67 104.2 155.64 104.31 155.68 104.39C155.75 104.49 155.72 104.38 155.79 104.4C155.83 104.39 155.83 104.39 155.83 104.42C155.84 104.45 155.87 104.41 155.87 104.36C155.87 104.27 155.8 104.18 155.8 104.09C155.78 104.01 155.97 103.89 156.21 104.06C156.32 104.14 156.44 104.31 156.4 104.56C156.35 104.82 156.11 104.99 155.9 105.02C155.68 105.06 155.42 104.99 155.28 104.78C155.14 104.58 155.18 104.36 155.25 104.24C155.42 103.99 155.64 104.04 155.65 104.12Z" fill="#1E0F00"/>
<path d="M67.6376 94.8371L34.2219 91.7295L31.1142 125.145L64.5299 128.253L67.6376 94.8371Z" fill="#FDE68A"/>
<path d="M75.13 114.29C75.13 114.47 72.95 114.61 70.27 114.61C67.58 114.61 65.41 114.47 65.41 114.29C65.41 114.11 67.59 113.97 70.27 113.97C72.96 113.98 75.13 114.12 75.13 114.29Z" fill="#1E0F00"/>
<path d="M71.51 112.02C71.62 111.87 73.11 112.93 75.27 113.56L75.82 113.72L75.39 114.1C75.34 114.14 75.29 114.19 75.23 114.24C73.44 115.83 71.89 117.02 71.78 116.88C71.66 116.75 73.02 115.35 74.81 113.76C74.86 113.71 74.92 113.67 74.97 113.62L75.09 114.16C72.8 113.48 71.4 112.13 71.51 112.02Z" fill="#1E0F00"/>
<path d="M71.55 163.2C71.55 163.24 70.79 163.27 69.41 163.3C67.93 163.33 65.97 163.38 63.59 163.44C62.36 163.46 61.03 163.62 59.56 163.61C58.1 163.58 56.51 163.43 54.93 162.85C53.36 162.29 51.8 161.21 50.85 159.62C49.87 158.05 49.46 156.17 49.21 154.3C48.44 146.81 47.87 140.05 47.44 135.14C47.25 132.77 47.1 130.81 46.99 129.33C46.9 127.96 46.87 127.2 46.91 127.19C46.95 127.19 47.07 127.94 47.24 129.31C47.41 130.78 47.63 132.74 47.9 135.1C48.41 140.09 49.09 146.8 49.85 154.22C50.09 156.05 50.49 157.85 51.39 159.3C52.26 160.77 53.66 161.76 55.14 162.31C56.62 162.86 58.15 163.04 59.58 163.09C61 163.13 62.36 163 63.59 163C66.06 162.97 68.05 163.02 69.42 163.07C70.79 163.11 71.55 163.16 71.55 163.2Z" fill="#1E0F00"/>
<path d="M69.36 166.39C69.23 166.28 70.55 164.63 72.6 163.06C72.68 163 72.75 162.95 72.82 162.89L72.87 163.43C70.65 162.3 69.34 160.79 69.46 160.68C69.58 160.55 71.03 161.8 73.16 162.86L73.61 163.09L73.2 163.4C73.13 163.45 73.06 163.51 72.98 163.57C70.98 165.1 69.49 166.52 69.36 166.39Z" fill="#1E0F00"/>
<path d="M48.709 287.206L16.5081 284.212L13.5134 316.413L45.7143 319.407L48.709 287.206Z" fill="#FDE68A"/>
<path d="M51.86 219.85H19.52V252.19H51.86V219.85Z" fill="#4F46EF"/>
<path d="M53.5 296.53C53.47 296.48 54.36 295.9 55.89 294.73C57.42 293.58 59.53 291.75 61.81 289.19C64.06 286.61 66.44 283.25 68.34 279.14C70.24 275.04 71.65 270.19 71.99 264.99C72.32 259.79 71.49 254.76 69.65 250.65C67.85 246.5 64.98 243.44 62.19 241.49C59.39 239.52 56.68 238.69 54.82 238.33C52.94 237.98 51.86 238.03 51.86 237.96C51.86 237.94 52.13 237.92 52.64 237.92C53.15 237.9 53.9 237.95 54.86 238.09C56.77 238.37 59.55 239.16 62.45 241.12C65.32 243.05 68.32 246.18 70.19 250.41C72.11 254.61 72.97 259.74 72.63 265.03C72.29 270.33 70.84 275.25 68.88 279.39C66.92 283.54 64.47 286.92 62.16 289.49C59.82 292.04 57.64 293.84 56.05 294.93C55.28 295.52 54.62 295.88 54.19 296.15C53.75 296.41 53.51 296.54 53.5 296.53Z" fill="#1E0F00"/>
<path d="M60.54 298.24C60.55 298.42 57.11 298.75 52.85 298.99H52.83L52.45 299.01L52.5 298.63C53.02 294.4 53.59 291 53.76 291.02C53.93 291.04 53.65 294.48 53.13 298.71L52.8 298.35H52.82C57.07 298.12 60.53 298.06 60.54 298.24Z" fill="#1E0F00"/>
<path d="M111.72 210.23C111.72 210.41 99.26 210.55 83.9 210.55C68.53 210.55 56.08 210.41 56.08 210.23C56.08 210.05 68.53 209.91 83.9 209.91C99.26 209.91 111.72 210.06 111.72 210.23Z" fill="#1E0F00"/>
<path d="M109.01 214.23C108.88 214.12 110.34 212.15 112.28 209.83C112.33 209.77 112.38 209.71 112.43 209.65L112.51 210.12C110.02 208.59 108.12 207.26 108.21 207.12C108.3 206.97 110.35 208.07 112.85 209.58L113.16 209.77L112.92 210.05C112.87 210.11 112.82 210.17 112.77 210.23C110.83 212.56 109.15 214.34 109.01 214.23Z" fill="#1E0F00"/>
<path d="M239.24 356.5C239.24 356.68 234.05 356.82 227.64 356.82C221.23 356.82 216.04 356.68 216.04 356.5C216.04 356.32 221.23 356.18 227.64 356.18C234.05 356.18 239.24 356.32 239.24 356.5Z" fill="#1E0F00"/>
<path d="M237.81 362.37C237.74 362.35 237.81 361.71 238.12 360.69C238.44 359.68 239 358.28 240.02 356.93L239.99 357.26C239.9 357.09 239.8 356.9 239.71 356.72C238.08 353.58 236.04 351.53 236.16 351.41C236.27 351.26 238.59 353.19 240.27 356.42C240.37 356.61 240.47 356.8 240.56 356.97L240.65 357.14L240.53 357.3C238.6 359.88 238 362.44 237.81 362.37Z" fill="#1E0F00"/>
<path d="M275.714 342.619L244.06 344.694L246.135 376.347L277.788 374.273L275.714 342.619Z" fill="#FDE68A"/>
<path d="M266.76 353.95C266.7 354.03 266.32 353.64 265.65 353.75C265.33 353.8 264.98 354.03 264.81 354.4C264.63 354.76 264.68 355.27 265 355.6C265.31 355.94 265.81 356.02 266.19 355.87C266.57 355.73 266.82 355.39 266.89 355.08C267.04 354.41 266.67 354 266.76 353.95C266.77 353.88 267.38 354.2 267.33 355.15C267.29 355.6 266.99 356.15 266.41 356.41C265.85 356.68 265.03 356.58 264.53 356.03C264.02 355.49 263.97 354.67 264.28 354.13C264.58 353.57 265.15 353.31 265.6 353.3C266.55 353.31 266.83 353.94 266.76 353.95Z" fill="white"/>
<path d="M267.46 359.81C267.47 359.82 267.39 359.92 267.21 360.1C267.02 360.26 266.73 360.5 266.3 360.73C265.46 361.17 263.91 361.58 262.18 360.85L262.39 360.82C260.49 362.62 258.05 364.95 255.24 367.62L255.13 367.73L254.98 367.69C254.28 367.52 253.53 367.33 252.75 367.14L252.51 367.08L252.52 366.83C252.55 366.36 252.58 365.86 252.6 365.34L252.61 365.22L252.7 365.14C252.89 364.96 253.1 364.77 253.3 364.57L253.43 364.45L253.6 364.5C253.89 364.58 254.2 364.67 254.52 364.75L254.13 365.09C254.09 364.78 254.04 364.45 253.99 364.11L253.97 363.95L254.09 363.84C254.42 363.53 254.77 363.2 255.13 362.87L255.26 362.75L255.43 362.8C255.91 362.93 256.42 363.08 256.94 363.22L256.54 363.57C256.47 363.06 256.39 362.51 256.31 361.96L256.29 361.8L256.41 361.69C256.51 361.6 256.62 361.49 256.73 361.39C257.03 361.11 257.33 360.83 257.62 360.56L257.75 360.44L257.92 360.49C258.43 360.63 258.93 360.77 259.42 360.91L259.02 361.26C258.94 360.72 258.87 360.18 258.79 359.65L258.77 359.49L258.89 359.38C259.22 359.08 259.54 358.78 259.86 358.48L259.8 358.86C258.99 357.44 258.96 355.7 259.58 354.33C260.19 352.94 261.4 351.95 262.7 351.56C264 351.15 265.36 351.33 266.42 351.86C267.49 352.39 268.24 353.27 268.68 354.15C269.54 355.99 269.07 357.71 268.55 358.6C268 359.51 267.46 359.81 267.46 359.81C267.41 359.77 267.88 359.4 268.34 358.48C268.78 357.59 269.15 355.97 268.31 354.31C267.89 353.51 267.18 352.72 266.21 352.27C265.25 351.81 264.02 351.67 262.86 352.05C261.71 352.42 260.64 353.31 260.12 354.54C259.59 355.76 259.63 357.29 260.34 358.53L260.46 358.74L260.28 358.91C259.96 359.21 259.64 359.51 259.31 359.82L259.41 359.55C259.49 360.08 259.57 360.62 259.64 361.16L259.71 361.64L259.24 361.51C258.74 361.37 258.24 361.23 257.73 361.09L258.03 361.02C257.74 361.3 257.44 361.57 257.14 361.85C257.03 361.95 256.92 362.06 256.82 362.15L256.92 361.87C257 362.42 257.08 362.97 257.15 363.48L257.22 363.96L256.75 363.83C256.23 363.68 255.72 363.54 255.25 363.41L255.55 363.34C255.19 363.67 254.83 364.01 254.51 364.31L254.61 364.04C254.66 364.38 254.71 364.71 254.75 365.02L254.82 365.49L254.36 365.36C254.04 365.27 253.73 365.18 253.44 365.1L253.73 365.03C253.52 365.23 253.31 365.42 253.12 365.59L253.22 365.39C253.19 365.91 253.15 366.42 253.12 366.88L252.9 366.57C253.67 366.77 254.42 366.96 255.12 367.14L254.85 367.21C257.71 364.59 260.2 362.31 262.13 360.55L262.23 360.46L262.34 360.51C263.91 361.23 265.38 360.92 266.21 360.55C267.07 360.15 267.43 359.77 267.46 359.81Z" fill="white"/>
<path d="M266.76 353.95C266.7 354.03 266.32 353.64 265.65 353.75C265.33 353.8 264.98 354.03 264.81 354.4C264.63 354.76 264.68 355.27 265 355.6C265.31 355.94 265.81 356.02 266.19 355.87C266.57 355.73 266.82 355.39 266.89 355.08C267.04 354.41 266.67 354 266.76 353.95C266.77 353.88 267.38 354.2 267.33 355.15C267.29 355.6 266.99 356.15 266.41 356.41C265.85 356.68 265.03 356.58 264.53 356.03C264.02 355.49 263.97 354.67 264.28 354.13C264.58 353.57 265.15 353.31 265.6 353.3C266.55 353.31 266.83 353.94 266.76 353.95Z" fill="white"/>
<path d="M267.46 359.81C267.47 359.82 267.39 359.92 267.21 360.1C267.02 360.26 266.73 360.5 266.3 360.73C265.46 361.17 263.91 361.58 262.18 360.85L262.39 360.82C260.49 362.62 258.05 364.95 255.24 367.62L255.13 367.73L254.98 367.69C254.28 367.52 253.53 367.33 252.75 367.14L252.51 367.08L252.52 366.83C252.55 366.36 252.58 365.86 252.6 365.34L252.61 365.22L252.7 365.14C252.89 364.96 253.1 364.77 253.3 364.57L253.43 364.45L253.6 364.5C253.89 364.58 254.2 364.67 254.52 364.75L254.13 365.09C254.09 364.78 254.04 364.45 253.99 364.11L253.97 363.95L254.09 363.84C254.42 363.53 254.77 363.2 255.13 362.87L255.26 362.75L255.43 362.8C255.91 362.93 256.42 363.08 256.94 363.22L256.54 363.57C256.47 363.06 256.39 362.51 256.31 361.96L256.29 361.8L256.41 361.69C256.51 361.6 256.62 361.49 256.73 361.39C257.03 361.11 257.33 360.83 257.62 360.56L257.75 360.44L257.92 360.49C258.43 360.63 258.93 360.77 259.42 360.91L259.02 361.26C258.94 360.72 258.87 360.18 258.79 359.65L258.77 359.49L258.89 359.38C259.22 359.08 259.54 358.78 259.86 358.48L259.8 358.86C258.99 357.44 258.96 355.7 259.58 354.33C260.19 352.94 261.4 351.95 262.7 351.56C264 351.15 265.36 351.33 266.42 351.86C267.49 352.39 268.24 353.27 268.68 354.15C269.54 355.99 269.07 357.71 268.55 358.6C268 359.51 267.46 359.81 267.46 359.81C267.41 359.77 267.88 359.4 268.34 358.48C268.78 357.59 269.15 355.97 268.31 354.31C267.89 353.51 267.18 352.72 266.21 352.27C265.25 351.81 264.02 351.67 262.86 352.05C261.71 352.42 260.64 353.31 260.12 354.54C259.59 355.76 259.63 357.29 260.34 358.53L260.46 358.74L260.28 358.91C259.96 359.21 259.64 359.51 259.31 359.82L259.41 359.55C259.49 360.08 259.57 360.62 259.64 361.16L259.71 361.64L259.24 361.51C258.74 361.37 258.24 361.23 257.73 361.09L258.03 361.02C257.74 361.3 257.44 361.57 257.14 361.85C257.03 361.95 256.92 362.06 256.82 362.15L256.92 361.87C257 362.42 257.08 362.97 257.15 363.48L257.22 363.96L256.75 363.83C256.23 363.68 255.72 363.54 255.25 363.41L255.55 363.34C255.19 363.67 254.83 364.01 254.51 364.31L254.61 364.04C254.66 364.38 254.71 364.71 254.75 365.02L254.82 365.49L254.36 365.36C254.04 365.27 253.73 365.18 253.44 365.1L253.73 365.03C253.52 365.23 253.31 365.42 253.12 365.59L253.22 365.39C253.19 365.91 253.15 366.42 253.12 366.88L252.9 366.57C253.67 366.77 254.42 366.96 255.12 367.14L254.85 367.21C257.71 364.59 260.2 362.31 262.13 360.55L262.23 360.46L262.34 360.51C263.91 361.23 265.38 360.92 266.21 360.55C267.07 360.15 267.43 359.77 267.46 359.81Z" fill="white"/>
<path d="M264.04 375.13C264.06 375.13 264.09 375.4 264.13 375.92C264.17 376.5 264.21 377.25 264.27 378.18C264.37 380.15 264.48 383 264.57 386.52C264.65 390.04 264.7 394.24 264.67 398.89C264.65 401.22 264.62 403.66 264.56 406.2C264.52 407.46 264.53 408.77 264.27 410.1C264.03 411.41 263.4 412.8 262.22 413.66C261.05 414.52 259.66 414.82 258.36 415.03C257.05 415.21 255.77 415.35 254.51 415.49C251.99 415.75 249.54 415.94 247.21 416.06C242.55 416.31 238.35 416.31 234.83 416.19C231.31 416.08 228.46 415.85 226.5 415.66C225.52 415.57 224.76 415.47 224.25 415.41C223.74 415.34 223.47 415.3 223.47 415.27C223.47 415.25 223.75 415.25 224.26 415.28C224.84 415.31 225.59 415.36 226.52 415.42C228.48 415.54 231.33 415.69 234.84 415.75C238.35 415.81 242.54 415.76 247.18 415.48C249.5 415.35 251.93 415.14 254.44 414.87C255.69 414.74 256.98 414.59 258.26 414.41C259.52 414.21 260.82 413.91 261.83 413.16C262.85 412.42 263.41 411.22 263.64 409.99C263.89 408.75 263.89 407.46 263.92 406.2C263.97 403.67 264.02 401.23 264.07 398.9C264.13 394.25 264.13 390.06 264.11 386.54C264.07 383.08 264.04 380.25 264.02 378.21C264.01 377.28 264.01 376.53 264 375.94C264 375.4 264.01 375.13 264.04 375.13Z" fill="#1E0F00"/>
<path d="M230.67 422.2C230.62 422.27 229.6 421.61 227.89 420.59C226.19 419.58 223.77 418.24 220.96 416.98L220.51 416.78L220.88 416.46C221.09 416.28 221.31 416.08 221.53 415.88C223.99 413.69 226.25 411.74 227.9 410.34C229.55 408.95 230.61 408.12 230.66 408.19C230.72 408.26 229.77 409.2 228.2 410.68C226.62 412.16 224.42 414.16 221.95 416.35C221.73 416.55 221.51 416.74 221.3 416.93L221.22 416.41C224.06 417.69 226.46 419.11 228.12 420.23C229.78 421.35 230.71 422.14 230.67 422.2Z" fill="#1E0F00"/>
<path d="M206.81 147.23C206.81 147.23 208.01 146.87 210.22 147.19C212.36 147.55 215.58 148.81 218.07 151.97C219.29 153.53 220.28 155.57 220.54 157.93C220.66 159.1 220.62 160.32 220.41 161.56C220.17 162.79 219.76 164.02 219.18 165.2C218.03 167.57 216.12 169.74 213.63 171.2C211.14 172.66 208.06 173.25 205.04 172.9C202.01 172.56 199.17 171.35 196.93 169.55C194.67 167.76 193.07 165.36 192.21 162.87C191.34 160.38 191.16 157.8 191.61 155.49C192.07 153.19 193.16 151.18 194.57 149.77C195.96 148.33 197.56 147.41 199.04 146.88C200.52 146.34 201.9 146.17 203 146.21C204.11 146.23 204.95 146.45 205.5 146.62C206.05 146.82 206.32 146.94 206.32 146.96C206.3 147.06 205.18 146.44 203 146.46C201.92 146.47 200.59 146.66 199.17 147.22C197.75 147.77 196.22 148.69 194.9 150.09C193.57 151.47 192.55 153.39 192.13 155.6C191.72 157.81 191.91 160.3 192.76 162.68C193.61 165.07 195.15 167.35 197.31 169.07C199.46 170.79 202.2 171.95 205.11 172.27C208.01 172.61 210.95 172.04 213.32 170.66C215.7 169.28 217.54 167.21 218.66 164.94C219.23 163.81 219.63 162.63 219.86 161.45C220.07 160.27 220.12 159.1 220.02 157.98C219.8 155.73 218.87 153.77 217.72 152.24C215.36 149.15 212.27 147.85 210.19 147.43C208.03 147.04 206.81 147.31 206.81 147.23Z" fill="#FFBE56"/>
<path d="M238.31 131.05C238.35 131.06 238.32 131.52 238.17 132.36C238.02 133.19 237.72 134.38 237.17 135.8C236.1 138.62 233.82 142.34 230.07 145.16C226.33 147.97 222.11 149.13 219.11 149.38C217.6 149.51 216.37 149.48 215.53 149.39C214.69 149.3 214.23 149.2 214.24 149.16C214.25 149.04 216.11 149.31 219.07 148.93C222 148.57 226.07 147.38 229.7 144.65C233.33 141.92 235.6 138.35 236.76 135.63C237.94 132.89 238.19 131.02 238.31 131.05Z" fill="#FFBE56"/>
<path d="M240.56 133.15C240.42 133.24 239.34 131.84 238.13 129.98L238.62 130.03C238.57 130.08 238.52 130.13 238.47 130.18C236.86 131.84 235.45 133.09 235.33 132.97C235.21 132.85 236.41 131.4 238.02 129.74C238.07 129.69 238.12 129.64 238.17 129.59L238.45 129.3L238.67 129.64C239.87 131.5 240.71 133.06 240.56 133.15Z" fill="#FFBE56"/>
<path d="M277.491 100.058L247.65 104.001L251.593 133.842L281.434 129.899L277.491 100.058Z" fill="#4F46EF"/>
<path d="M241.956 98.0359L212.151 93.8219L207.937 123.627L237.742 127.841L241.956 98.0359Z" fill="#FDE68A"/>
<path d="M249.65 116.15C249.65 116.33 247.34 116.53 244.48 116.61C241.62 116.69 239.3 116.6 239.29 116.43C239.29 116.25 241.6 116.05 244.46 115.97C247.32 115.9 249.65 115.98 249.65 116.15Z" fill="#FFBE56"/>
<path d="M111.44 149.77C111.45 149.75 111.72 149.81 112.24 149.96C112.75 150.13 113.5 150.43 114.36 151.01C116.05 152.13 118.26 154.51 118.98 158.21C119.35 160.03 119.22 162.14 118.49 164.21C117.76 166.27 116.43 168.27 114.62 169.93C112.81 171.59 110.51 172.91 107.9 173.56C105.31 174.2 102.43 174.25 99.71 173.36C96.99 172.51 94.64 170.68 93.25 168.37C91.82 166.08 91.28 163.44 91.32 160.99C91.39 158.53 92.11 156.22 93.28 154.36C94.45 152.51 95.98 151.1 97.54 150.11C100.68 148.09 103.76 147.65 105.79 147.6C106.82 147.59 107.61 147.67 108.14 147.76C108.67 147.85 108.95 147.91 108.94 147.93C108.93 148 107.81 147.76 105.79 147.85C103.8 147.97 100.79 148.48 97.78 150.49C96.28 151.47 94.83 152.86 93.72 154.64C92.62 156.42 91.95 158.64 91.9 161C91.87 163.35 92.4 165.87 93.77 168.04C95.1 170.23 97.3 171.94 99.89 172.76C102.48 173.6 105.24 173.57 107.73 172.96C110.23 172.35 112.45 171.09 114.2 169.51C115.95 167.92 117.25 166.01 117.97 164.04C118.69 162.06 118.84 160.06 118.51 158.3C117.88 154.74 115.8 152.37 114.19 151.22C112.58 150.02 111.4 149.86 111.44 149.77Z" fill="#FFBE56"/>
<path d="M157.74 119.22C157.76 119.22 157.79 119.44 157.82 119.86C157.84 120.28 157.91 120.9 157.9 121.7C157.93 123.3 157.79 125.62 157.27 128.44C156.75 131.26 155.76 134.56 154.1 137.97C152.45 141.39 150.08 144.89 146.99 148.01C143.87 151.1 140.37 153.47 136.95 155.12C133.53 156.78 130.23 157.77 127.42 158.29C124.6 158.81 122.28 158.95 120.68 158.92C119.88 158.94 119.26 158.86 118.84 158.84C118.42 158.81 118.2 158.78 118.2 158.76C118.2 158.7 119.08 158.72 120.67 158.67C122.26 158.62 124.55 158.42 127.33 157.84C132.84 156.74 140.4 153.68 146.54 147.55C152.67 141.41 155.73 133.85 156.83 128.34C157.4 125.57 157.61 123.27 157.65 121.68C157.7 120.1 157.68 119.22 157.74 119.22Z" fill="#FFBE56"/>
<path d="M163.07 124.07C162.93 124.17 160.7 121.36 158.01 117.71L158.54 117.68C158.46 117.81 158.38 117.96 158.3 118.1C155.93 122.22 153.89 125.49 153.74 125.4C153.59 125.31 155.38 121.9 157.75 117.78C157.83 117.64 157.92 117.49 157.99 117.36L158.23 116.94L158.52 117.33C161.2 121 163.21 123.97 163.07 124.07Z" fill="#FFBE56"/>
<path d="M429.81 205.184C432.377 185.279 418.325 167.062 398.425 164.496C378.525 161.929 360.312 175.986 357.745 195.891C355.178 215.797 369.23 234.014 389.13 236.58C409.03 239.146 427.243 225.09 429.81 205.184Z" fill="#4F46EF"/>
<path d="M406.26 215.19L381.33 215.22V212.16C381.32 205.28 386.9 199.69 393.78 199.68C400.66 199.67 406.25 205.25 406.26 212.13V215.19Z" fill="white"/>
<path d="M401.1 193.21C401.11 197.26 397.83 200.54 393.78 200.55C389.73 200.56 386.45 197.28 386.44 193.23C386.43 189.18 389.71 185.9 393.76 185.89C397.81 185.89 401.09 189.17 401.1 193.21Z" fill="white"/>
</svg>
