<svg width="473" height="349" viewBox="0 0 473 349" fill="none" xmlns="http://www.w3.org/2000/svg">
<g clip-path="url(#clip0)">
<path d="M46.0269 247.143C64.3092 271.559 85.8822 280.645 127.848 297.66C213.708 332.465 311.411 340.197 383.227 308.962C435.74 286.137 459.897 252.1 470.809 178.597C479.812 117.901 461.034 34.6655 414.465 16.1217C364.717 -3.68579 322.996 66.1657 253.763 45.0622C216.684 33.7647 216.849 10.1364 178.801 2.14935C135.253 -6.97619 86.2198 13.7346 55.8245 47.3392C4.77374 103.789 7.31939 195.462 46.0269 247.143Z" fill="#F2F2F2"/>
<path d="M140.914 80.7636H65.1444V237.652H140.914V80.7636Z" fill="#D3D3D3"/>
<path d="M219.184 117.546H161.169V237.652H219.184V117.546Z" fill="#D3D3D3"/>
<path d="M291.203 95.5267H208.431V237.652H291.203V95.5267Z" fill="#D3D3D3"/>
<path d="M427.738 135.312H339.966V237.652H427.738V135.312Z" fill="#D3D3D3"/>
<path d="M458.371 232.773H31.7607V254.542H458.371V232.773Z" fill="#0E538C"/>
<path d="M329.588 68.5028H262.07V136.062H286.077L295.829 145.821L305.582 136.062H329.588V68.5028Z" fill="#0E538C"/>
<path d="M325.212 72.5064H266.947V130.808H325.212V72.5064Z" fill="white"/>
<path d="M182.44 195.032C182.094 195.033 181.75 195.093 181.424 195.21V204.468C181.75 204.585 182.094 204.646 182.44 204.648C184.808 204.648 187.809 202.493 187.809 199.839C187.809 197.184 184.808 195.032 182.44 195.032Z" fill="#FFE3CA"/>
<path d="M182.8 183.114C182.316 183.109 181.839 183.239 181.424 183.489V193.748C181.84 193.996 182.316 194.125 182.8 194.121C185.168 194.121 188.166 191.656 188.166 188.616C188.166 185.576 185.168 183.114 182.8 183.114Z" fill="#FFE3CA"/>
<path d="M186.273 151.233C184.631 150.959 182.945 151.175 181.424 151.854V162.726C185.603 162.843 188.346 158.647 189.427 154.994C190.302 152.031 186.273 151.233 186.273 151.233Z" fill="#FFE3CA"/>
<path d="M187.449 171.574C185.413 169.419 182.22 170.991 181.424 171.434V182.896L183.175 182.12C189.142 179.466 191.77 176.148 187.449 171.574Z" fill="#FFE3CA"/>
<path d="M139.876 191.661C139.944 191.872 140.029 192.117 140.099 192.324L140.114 192.362C140.009 192.067 139.934 191.834 139.876 191.661Z" fill="#F7BE89"/>
<path d="M139.876 191.661C139.726 191.223 139.641 190.971 139.876 191.661V191.661Z" fill="#F7BE89"/>
<path d="M140.229 192.71C140.216 192.665 140.181 192.562 140.116 192.374C140.166 192.527 140.211 192.655 140.229 192.71Z" fill="#F7BE89"/>
<path d="M140.117 192.375C140.117 192.375 140.113 192.372 140.117 192.375V192.375Z" fill="#F7BE89"/>
<path d="M140.114 192.362L140.099 192.324L140.114 192.364V192.362Z" fill="#F7BE89"/>
<path d="M118.461 155.73C119.031 154.884 120.674 150.097 120.674 150.097C120.674 150.097 118.958 148.433 117.753 147.845C116.438 149.201 115.662 152.877 115.2 155.78L116.515 156.102C116.515 156.102 117.888 156.573 118.461 155.73Z" fill="#FCD2B1"/>
<path d="M143.38 224.718C140.331 225.306 137.278 222.896 136.598 219.363L129.826 184.285C127.168 186.394 124.795 188.559 124.795 188.559L121.429 171.098C121.429 171.098 124.342 164.31 124.952 158.995L123.72 152.604C122.824 150.47 121.439 148.466 119.501 147.492C118.828 147.155 118.251 147.33 117.75 147.848C118.956 148.433 120.671 150.1 120.671 150.1C120.671 150.1 119.028 154.886 118.458 155.732C117.888 156.578 116.513 156.108 116.513 156.108L115.2 155.785C114.895 157.681 114.995 157.316 114.895 157.681C113.494 162.984 108.618 163.271 109.296 168.626C110.144 175.352 105.232 187.893 108.045 193.3C110.649 198.332 110.599 204.355 111.599 209.865C111.869 211.366 111.141 213.738 111.376 214.804C109.306 218.292 96.415 230.295 96.415 230.295L118.736 254.101C118.736 254.101 133.45 237.614 141.392 234.407C153.462 229.53 155.835 225.166 158.454 221.813L143.38 224.718Z" fill="#FFE3CA"/>
<path d="M174.898 125.21H133.9C130.342 125.21 127.458 128.096 127.458 131.656V223.73C127.458 227.289 130.342 230.175 133.9 230.175H174.898C178.455 230.175 181.339 227.289 181.339 223.73V131.656C181.339 128.096 178.455 125.21 174.898 125.21Z" fill="#0B4870"/>
<path d="M173.025 127.858H135.773C132.458 127.858 129.771 130.546 129.771 133.863V221.525C129.771 224.842 132.458 227.53 135.773 227.53H173.025C176.339 227.53 179.026 224.842 179.026 221.525V133.863C179.026 130.546 176.339 127.858 173.025 127.858Z" fill="white"/>
<path d="M143.767 125.981H165.023V127.337C165.023 127.883 164.915 128.423 164.707 128.928C164.498 129.432 164.192 129.89 163.806 130.276C163.42 130.662 162.963 130.968 162.459 131.177C161.955 131.386 161.415 131.493 160.869 131.493H147.921C146.819 131.493 145.763 131.055 144.984 130.276C144.205 129.497 143.767 128.439 143.767 127.337V125.981V125.981Z" fill="#0B4870"/>
<path d="M182.525 261.258L175.273 245.021C173.022 239.964 170.897 234.899 168.881 229.787L168.859 229.747C168.859 229.747 172.325 251.326 172.795 253.749C173.963 259.754 180.192 264.33 184.203 268.366C184.968 269.14 196.271 279.779 196.271 279.779C195.521 278.986 194.735 278.072 193.84 276.967C189.842 272.025 185.158 267.148 182.525 261.258Z" fill="#FCD2B1"/>
<path d="M235.681 266.042C230.52 260.369 235.013 247.776 231.78 240.957C229.429 236.008 225.386 222.561 219.357 221.225C216.546 220.602 214.751 222.253 212.22 219.701C209.384 216.836 207.484 219.951 204.628 219.148C201.892 218.372 200.825 214.184 197.409 216.849C195.351 217.819 194.02 219.626 191.497 218.075C189.312 216.731 187.614 214.572 184.87 216.573C183.162 217.271 182.242 219.02 180.079 218.057C178.126 217.189 177.041 213.761 176.143 212.002L165.193 190.593C164.155 188.566 162.977 185.056 161.019 184.01C154.44 180.492 155.268 191.919 156.355 195.019L163.585 215.552C165.274 220.36 167.042 225.105 168.889 229.787C170.904 234.899 173.02 239.964 175.28 245.021L182.532 261.258C185.165 267.148 189.852 272.017 193.84 276.964C194.735 278.07 195.521 278.983 196.271 279.776C198.591 282.229 200.552 283.53 204.21 285.782C208.584 288.477 216.354 298.375 216.354 298.375L245.148 281.253C245.148 281.253 237.737 268.296 235.681 266.042Z" fill="#FFE3CA"/>
<path d="M156.768 185.441C156.768 185.441 157.891 189.605 159.379 189.83C160.867 190.055 164.23 188.529 164.22 188.504C163.322 186.84 162.582 184.65 161.019 183.945C160.74 183.819 160.454 183.711 160.161 183.622C158.879 183.872 157.356 184.385 156.768 185.441Z" fill="#FCD2B1"/>
<path d="M94.8746 224.856L124.395 254.752L60.8933 331.735L0 314.575L94.8746 224.856Z" fill="#FFBE56"/>
<path d="M207.796 298.345L248.874 273.969L298.955 342.744L238.939 349L207.796 298.345Z" fill="#FFBE56"/>
</g>
<defs>
<clipPath id="clip0">
<rect width="473" height="349" fill="white"/>
</clipPath>
</defs>
</svg>
