<svg width="159" height="158" viewBox="0 0 159 158" fill="none" xmlns="http://www.w3.org/2000/svg">
<path d="M102.851 17.0678C111.351 22.9678 114.451 37.4678 122.751 49.6678C131.151 61.8678 144.851 71.6678 150.351 84.7678C155.751 97.7678 153.051 113.968 144.851 126.568C136.751 139.068 123.251 148.068 109.251 152.968C95.1506 157.868 80.6506 158.768 67.9506 155.668C55.2506 152.568 44.3506 145.368 33.3506 138.668C22.3506 131.968 11.2506 125.868 5.95061 116.468C0.750615 106.968 1.45062 94.2678 0.950619 81.2678C0.450619 68.2678 -1.24938 54.9678 1.65062 41.5678C4.65062 28.1678 12.2506 14.7678 23.7506 10.5678C35.2506 6.46782 50.7506 11.5678 65.4506 12.7678C80.2506 13.9678 94.2506 11.1678 102.851 17.0678Z" fill="#FDE68A"/>
<path d="M36.5631 138.171C36.5631 138.171 35.8901 139.428 35.4503 139.925C35.0099 140.425 33.3247 141.316 33.3159 142.797C33.3065 144.404 36.1569 143.958 37.2719 143.899C38.3869 143.841 38.4715 142.983 38.9411 142.073C39.4092 141.165 39.8832 141.318 39.9707 140.584C40.0582 139.851 39.5157 138.171 39.5157 138.171H36.5631Z" fill="#0B4870"/>
<path d="M53.5341 138.024C53.5341 138.024 54.9087 139.558 56.3029 139.88C57.6979 140.2 58.6729 140.611 58.6845 141.491C58.6948 142.372 54.671 142.951 53.074 142.064C50.6931 140.739 50.451 141.138 50.1863 140.476C49.9223 139.814 50.5035 138.044 50.4867 137.834C50.4649 137.574 53.5341 138.024 53.5341 138.024Z" fill="#0B4870"/>
<path d="M53.3803 137.29C53.3803 137.29 53.5618 138.009 53.5341 138.024C53.5071 138.039 50.3912 138.41 50.486 137.834C50.5618 137.366 50.6712 136.857 50.6712 136.857L53.3803 137.29Z" fill="#81807E"/>
<path d="M39.4771 137.687C39.4771 137.687 39.6083 138.371 39.5828 138.388C39.5573 138.404 36.4238 138.964 36.4406 138.395C36.4545 137.943 36.7294 137.416 36.7294 137.416L39.4771 137.687Z" fill="#81807E"/>
<path d="M49.1078 93.5231C49.1078 93.5231 51.6797 105.28 52.2689 109.047C52.9595 113.452 53.1928 117.091 53.3846 119.371C53.626 122.239 53.6726 136.345 53.8425 137.184C54.011 138.021 50.0893 137.415 50.0893 137.415C50.0893 137.415 48.1598 118.985 47.4393 115.93C46.7692 113.087 44.2811 100.844 43.6693 101.621C43.0582 102.397 42.2998 115.907 41.8463 118.15C41.3934 120.392 40.0152 137.95 40.0152 137.95C40.0152 137.95 36.8942 138.572 36.0629 137.869C36.0629 137.869 35.6851 122.738 35.9739 118.534C36.0833 116.93 34.0962 99.3196 36.6448 92.2309C37.9916 88.4842 49.1078 93.5231 49.1078 93.5231Z" fill="#2A94F4"/>
<path d="M65.2329 74.2208C65.2329 74.2208 67.4971 71.7385 67.7793 71.7116C68.063 71.6838 68.1855 71.826 67.982 72.0667C67.7793 72.3088 65.8593 74.5351 65.8593 74.5351C65.8593 74.5351 69.0095 72.0878 69.237 72.0113C69.3697 71.9661 69.6191 72.2257 69.5214 72.3664C69.4252 72.5057 66.4354 75.1243 66.4354 75.1243C66.4354 75.1243 69.3814 72.8462 69.59 72.8418C69.7723 72.8389 69.9458 73.1379 69.738 73.3231C69.5309 73.5083 66.9116 75.7908 66.9116 75.7908C66.9116 75.7908 69.1568 74.2791 69.3362 74.387C69.4456 74.4527 69.6709 74.6663 69.0795 75.0382C68.4888 75.4079 67.1836 76.4405 67.1836 76.4405L65.2329 74.2208Z" fill="#F1B99E"/>
<path d="M63.0569 77.5161C63.0569 77.5161 63.7526 76.6491 63.4945 76.0438C63.2743 75.5305 63.3348 74.7043 63.3545 74.4498C63.3778 74.11 63.0876 73.0293 63.4894 73.0657C63.8926 73.1029 64.0487 74.8253 64.1486 75.1812C64.2485 75.5363 65.0987 74.1741 65.4393 74.0604C65.7806 73.9452 67.8399 75.6224 67.1544 76.4821C66.4689 77.3433 65.1957 77.7677 65.1046 77.9456C65.0127 78.1221 64.6291 78.5924 64.6291 78.5924L63.0569 77.5161Z" fill="#F1B99E"/>
<path d="M44.8339 68.1123C44.7515 68.0525 44.6566 68 44.575 67.9643L44.5334 68.4601L45.1671 69.2922L45.4355 72.1937C45.4355 72.1937 43.6044 70.3794 43.0852 70.0432C42.7016 69.8011 42.6637 68.7613 42.1912 68.5024C41.6362 68.1954 41.0762 67.9241 40.6336 67.806C40.6336 67.806 40.5986 67.8242 40.5329 67.8658C40.4797 67.2401 40.3565 66.1186 40.0728 64.5034C40.0728 64.5034 40.1676 64.2445 40.3091 63.8901C40.4681 64.2679 40.6387 64.5683 40.8159 64.7513C40.9515 64.8928 41.1353 65.0343 41.3519 65.1757C41.3519 65.1757 41.9126 66.6393 44.8083 67.612C44.8156 67.7863 44.8222 67.9584 44.8339 68.1123Z" fill="#F1B99E"/>
<path d="M43.5184 69.2914C42.7221 69.2914 41.7427 69.1317 40.9472 68.6957C40.8174 68.6308 40.6883 68.5549 40.5694 68.466C40.5694 68.466 40.5636 68.2654 40.5337 67.8651C40.5993 67.8235 40.6343 67.8053 40.6343 67.8053C41.0762 67.9234 41.637 68.1947 42.1919 68.5017C42.6637 68.7598 43.1341 69.0493 43.5184 69.2914Z" fill="#F1B99E"/>
<path d="M44.8156 66.6662C44.8098 66.8784 44.8032 67.1205 44.8098 67.3619V67.6098C41.9134 66.6371 41.3533 65.1735 41.3533 65.1735C41.136 65.0321 40.9523 64.8906 40.8174 64.7491C40.6402 64.5661 40.4688 64.2657 40.3106 63.8879C40.1691 64.2416 40.0743 64.5012 40.0743 64.5012C40.0743 64.5012 40.0743 64.5012 40.0685 64.4888C40.0269 64.2533 39.9795 64.0061 39.9321 63.7457C39.9095 63.6159 40.0094 63.5802 40.2041 63.6094C40.2624 63.6218 40.3332 63.6393 40.4097 63.656C41.6421 64.0345 44.839 65.9749 44.839 65.9749C44.839 65.9749 44.828 66.271 44.8156 66.6662Z" fill="#F1B99E"/>
<path d="M45.0111 68.8429C45.076 68.9844 44.8514 69.1208 44.462 69.2032L44.5334 68.4594L44.575 67.9635C44.6567 67.9992 44.7515 68.0517 44.8339 68.1115C44.8397 68.1524 44.8397 68.1932 44.8455 68.2282C44.8521 68.3113 44.8762 68.4178 44.9112 68.517C44.9454 68.6548 44.9928 68.7897 45.0111 68.8429Z" fill="#F1B99E"/>
<path d="M47.7062 63.9943C47.5057 64.2065 46.899 66.8317 46.1136 66.9083C45.8773 66.9316 45.3997 66.8368 44.8156 66.6662C44.8156 66.6662 44.7566 66.6487 44.6501 66.6137C43.8181 66.3657 42.8161 65.9763 42.0081 65.5512C41.7485 65.4214 41.5247 65.2923 41.3533 65.1735C41.136 65.032 40.9522 64.8905 40.8173 64.7491C40.6401 64.566 40.4688 64.2656 40.3105 63.8879C40.2748 63.7989 40.2391 63.7107 40.2041 63.61C39.5667 61.8468 39.2007 58.7797 39.7024 57.2994C40.3455 55.3882 45.5419 54.5984 47.5115 58.2015C47.5115 58.2015 47.731 58.6091 47.9308 59.0926C48.1722 59.6942 48.3786 60.4081 48.0723 60.5911C47.6122 60.8558 48.6032 62.8794 48.7322 63.2097C48.8628 63.54 47.9068 63.7814 47.7062 63.9943Z" fill="#F1B99E"/>
<path d="M47.9308 59.0933C47.925 59.0991 47.925 59.1049 47.925 59.1049C45.2174 60.8273 45.0818 59.1873 43.9435 59.4652C42.8044 59.7364 43.53 61.671 43.53 61.671C43.53 61.671 43.1063 61.6346 42.5988 61.6769C42.1503 61.7177 41.6377 61.8125 41.3074 62.0546C41.284 62.0721 41.2607 62.0962 41.2315 62.1253C40.9778 62.3908 40.6533 63.0864 40.4112 63.6589C40.3754 63.742 40.3463 63.8186 40.3113 63.8893C40.1698 64.243 40.075 64.5026 40.075 64.5026C40.075 64.5026 40.075 64.5026 40.0692 64.4902C40.0225 64.4085 39.7979 63.8893 38.8711 60.68C37.6445 56.4039 40.0743 56.2384 40.5052 56.1268C40.9355 56.0145 44.6566 54.1674 47.1586 55.0177C49.0625 55.6601 48.0008 58.8745 47.9308 59.0933Z" fill="#0B4870"/>
<path d="M42.3195 60.5619C42.2196 60.2965 41.8951 59.156 40.9165 59.8262C39.9386 60.4948 41.5261 62.6438 41.696 62.6708C41.8674 62.6993 43.1647 62.7933 42.3195 60.5619Z" fill="#EEA886"/>
<path d="M44.8098 67.3618V67.6098C41.9134 66.637 41.3533 65.1735 41.3533 65.1735C41.5247 65.2916 41.7486 65.4214 42.0082 65.5512C42.916 65.9997 44.2024 66.454 44.6501 66.6137C44.7566 66.6487 44.8156 66.6662 44.8156 66.6662C44.8098 66.8784 44.804 67.1205 44.8098 67.3618Z" fill="#A77860"/>
<path d="M65.1731 78.2271C65.1731 78.2271 65.0827 77.977 64.8924 77.6459C64.6021 77.134 64.0807 76.4216 63.3092 76.0861C63.3092 76.0861 59.6099 78.8564 58.0625 79.7278C57.9262 79.8 57.7767 79.8817 57.6265 79.9575C57.6265 79.9575 57.59 79.9801 57.5229 80.0181C56.2796 80.6423 54.6104 81.3233 53.2322 82.2713C52.1537 78.7886 50.4926 71.6095 48.0942 69.7092L48.0891 69.7048C47.486 69.2286 46.8421 69.0835 46.1443 69.4153C46.1443 69.4153 42.5565 71.8545 44.9425 77.9267C45.7768 80.0443 46.8968 81.7988 48.003 83.1777C49.2463 84.7288 50.4685 85.8131 51.2517 86.4337H51.2502C51.2502 86.4337 52.3798 87.5669 53.4568 87.4823C54.5339 87.397 55.6022 86.4701 55.6022 86.4701H55.6014C58.5832 84.467 65.1731 78.2271 65.1731 78.2271Z" fill="#FCD2B1"/>
<path d="M50.6901 81.2702C50.3897 87.6814 49.4045 87.3868 49.5168 93.1082C49.5168 93.1957 49.546 93.4677 49.5759 93.6916C49.5876 93.8331 49.6051 93.957 49.6175 94.011C49.6466 94.1707 49.6765 94.5594 49.2871 94.6359C49.2755 94.7424 49.2638 94.8423 49.2456 94.9305C48.9087 96.7404 47.0922 96.7703 45.0052 96.1286C41.7252 95.126 37.743 93.4881 37.743 93.4881C37.743 93.4881 35.4328 93.8404 36.0818 90.9862C36.4063 89.5409 37.891 86.6846 37.3484 85.31C36.4347 82.9743 35.0784 79.2116 34.5176 76.0796C34.293 74.848 34.1574 73.8446 34.1457 73.0126C34.1224 70.5296 35.2425 69.6392 38.6756 68.8422C39.1233 68.7357 39.5718 68.6365 40.0086 68.5417C40.328 68.4703 40.6394 68.4119 40.9457 68.3529C41.3715 68.2705 40.9843 68.6307 41.3912 68.5833C41.8623 68.8429 42.5018 69.5182 42.8854 69.7595C43.4046 70.0957 44.545 70.5558 44.545 70.5558L44.8156 69.093L44.8389 68.0991C44.9221 68.105 44.8863 68.1224 44.9694 68.1341C45.011 68.1399 45.0679 68.1997 45.1087 68.2114C45.2794 68.2406 45.2407 68.234 45.399 68.2698C46.826 68.5826 47.7171 69.1018 48.819 70.1212C50.572 71.7379 50.9971 74.6876 50.6901 81.2702Z" fill="#FFE3CA"/>
<path d="M44.3066 71.8538C44.3066 71.8538 45.0898 84.0834 44.4226 88.4273C44.4226 88.4273 45.2933 90.7688 45.8577 90.9672C46.4221 91.1663 46.8341 89.783 47.3868 88.2822C47.9403 86.7808 45.3611 71.7473 45.3611 71.7473L44.3066 71.8538Z" fill="#0E538C"/>
<path d="M43.6555 71.083L44.3066 71.8538L45.3596 71.7473C45.3596 71.7473 45.4187 71.3791 45.4355 70.4107C45.4355 70.4107 44.8156 70.0191 44.4226 70.0432L43.6555 71.083Z" fill="#0E538C"/>
<path d="M44.4212 70.0402L43.8203 71.2791L43.7255 71.4738C43.7255 71.4738 41.3607 69.7981 40.8655 69.4976C40.5702 69.3146 40.2574 69.1556 40.0277 69.0433C39.8388 68.9493 39.7083 68.896 39.7083 68.896C40.0335 68.4009 40.2318 68.099 40.3966 67.994C40.4615 67.9524 40.4965 67.9342 40.4965 67.9342C40.9392 68.0523 41.6553 68.3535 42.2095 68.6605C42.6813 68.9194 43.1531 69.2089 43.5366 69.451C44.0558 69.7871 44.4212 70.0402 44.4212 70.0402Z" fill="#FCD2B1"/>
<path d="M45.7483 70.9306C45.7243 70.8781 45.7009 70.83 45.6652 70.7774V70.7716C45.3531 70.2641 44.6027 70.0563 44.6027 70.0563L44.7223 69.3497L44.7923 68.6066L44.8339 68.1115C44.917 68.1465 45.0118 68.199 45.0935 68.258C45.3764 68.4352 45.6294 68.6766 45.6294 68.6766C45.6418 68.7065 45.6535 68.7357 45.6593 68.759C46.1552 70.1525 45.7483 70.9306 45.7483 70.9306Z" fill="#FCD2B1"/>
<path d="M134.822 88.7102L142.477 93.8986C143.861 92.56 145.165 91.1682 146.38 89.7201L146.215 89.5076C146.254 89.4631 146.292 89.4185 146.329 89.3733L146.114 89.0958C146.18 89.0176 146.25 88.9402 146.315 88.8621L140.992 82.0284C141.533 81.3099 142.059 80.5855 142.551 79.8406L151.272 82.8617C152.259 81.2215 153.16 79.5361 153.96 77.8142L153.802 77.6944C153.838 77.6185 153.877 77.544 153.912 77.4688L153.72 77.3242C153.778 77.2008 153.839 77.0796 153.896 76.9569L146.831 71.6173C147.14 70.8382 147.433 70.0539 147.697 69.2601L156.894 69.9166C157.42 68.0778 157.845 66.215 158.176 64.3346L158.069 64.2908C158.088 64.1907 158.109 64.09 158.127 63.9892L158.023 63.9468C158.052 63.7898 158.084 63.6328 158.112 63.4758L149.724 60.0765C149.815 59.2886 149.891 58.4985 149.94 57.7069L158.989 55.9601C159.026 54.0498 158.97 52.1402 158.807 50.2336L158.793 50.2314C158.773 49.9458 158.767 49.6603 158.743 49.3763L149.59 48.2436C149.489 47.4674 149.363 46.6933 149.223 45.9207L157.445 41.9175C157.418 41.808 157.387 41.6977 157.36 41.5896L157.396 41.5721C157.358 41.4188 157.316 41.2647 157.276 41.1113L157.382 41.0602C156.93 39.2178 156.369 37.39 155.716 35.5863L146.576 36.8708C146.264 36.1135 145.919 35.365 145.56 34.6209L152.298 28.7738C152.249 28.6869 152.198 28.6008 152.149 28.5139L152.248 28.4284C152.184 28.3109 152.114 28.1948 152.049 28.0772L152.234 27.9158C151.318 26.2581 150.31 24.6399 149.207 23.0626L140.699 26.6773C140.378 26.2567 140.061 25.8353 139.723 25.4242C139.503 25.1569 139.276 24.8955 139.048 24.6363L143.927 17.4127C143.872 17.3557 143.815 17.3002 143.759 17.2433L143.878 17.0673C143.807 16.9935 143.735 16.9242 143.665 16.8511L143.864 16.5561C142.53 15.1657 141.138 13.863 139.694 12.6449L132.409 18.3379C131.661 17.7596 130.898 17.206 130.12 16.6795L132.913 8.59864C132.866 8.57162 132.819 8.54533 132.772 8.51758L132.864 8.25396C132.811 8.22256 132.757 8.19189 132.704 8.16049L132.849 7.74206C131.21 6.75258 129.529 5.85072 127.809 5.04891L122.247 12.4368C121.307 12.0454 120.354 11.6927 119.393 11.367L119.991 2.96626C119.967 2.95896 119.944 2.95384 119.918 2.94654L119.942 2.62158C119.925 2.6172 119.908 2.61136 119.891 2.60698L119.928 2.10822C118.092 1.58025 116.231 1.15671 114.354 0.825176L110.899 9.38511C109.851 9.24563 108.798 9.14413 107.742 9.07549L105.997 0.0109483C104.091 -0.0262942 102.184 0.03067 100.282 0.194245L99.152 9.36393C98.1038 9.50048 97.0579 9.66918 96.0178 9.88095L91.9821 1.55834C90.1417 2.01255 88.3174 2.57338 86.52 3.22768L86.5877 3.7206C86.5703 3.72717 86.552 3.73301 86.5331 3.73958L87.7459 12.4076C86.7882 12.8048 85.8465 13.2445 84.9106 13.7104L78.861 6.71606C77.2058 7.63179 75.5913 8.64391 74.0155 9.75023L74.1861 10.1548C74.1343 10.1913 74.0811 10.2263 74.0294 10.2614L74.1533 10.5564C74.1292 10.5732 74.1037 10.5893 74.0782 10.6075L77.396 18.4467C77.0527 18.7081 76.7109 18.9725 76.3734 19.2507C75.9631 19.5903 75.5687 19.9408 75.1752 20.2891L67.5213 15.1015C66.135 16.4385 64.8325 17.8311 63.6168 19.2814L63.8325 19.5582C63.7662 19.637 63.6962 19.7137 63.6306 19.7918L63.7968 20.0036C63.7582 20.0496 63.7196 20.0927 63.6809 20.1387L69.0068 26.9723C68.4645 27.6902 67.9361 28.4168 67.4426 29.1616L58.7239 26.1377C57.737 27.78 56.8354 29.4639 56.0358 31.1851L56.2275 31.3312C56.1692 31.4524 56.108 31.5751 56.0512 31.6977L56.2093 31.8168C56.1729 31.8927 56.135 31.9672 56.1 32.0439L63.1671 37.382C62.858 38.1619 62.5658 38.9476 62.3012 39.7399L53.1029 39.0827C52.5752 40.9237 52.1517 42.7858 51.8208 44.6669L51.925 44.7085C51.8959 44.8648 51.8638 45.0211 51.8368 45.1795L51.9433 45.2226C51.925 45.3241 51.9039 45.4234 51.8857 45.5249L60.2742 48.9257C60.1846 49.7122 60.1073 50.5008 60.057 51.2924L51.0103 53.0399C50.9906 54.0571 50.9994 55.0729 51.0344 56.0909C51.0613 57.1534 51.116 58.2166 51.2064 59.2784L51.2312 59.2813C51.2414 59.396 51.2465 59.5099 51.2559 59.6238L60.4083 60.7549C60.5082 61.5319 60.635 62.3067 60.7749 63.0786L52.5533 67.0811C52.5912 67.2351 52.6335 67.3885 52.6729 67.5426L52.5664 67.593C52.5941 67.7025 52.624 67.8113 52.6517 67.9201L52.6153 67.9384C53.0686 69.7837 53.6306 71.6086 54.2815 73.4115L63.4207 72.127C63.7341 72.8843 64.0774 73.6335 64.4368 74.3777L57.7035 80.2276C57.7684 80.3452 57.8369 80.4613 57.9025 80.5782L57.7173 80.7388C57.764 80.8265 57.8157 80.9126 57.8646 80.9995L57.7655 81.085C58.6794 82.7397 59.6889 84.3579 60.7917 85.9382L69.3012 82.3242C69.6219 82.7426 69.9397 83.1654 70.2757 83.5766C70.4966 83.8446 70.724 84.106 70.9521 84.3638L66.0723 91.5895C66.1423 91.6618 66.2152 91.7327 66.2859 91.8057L66.0869 92.1014C66.1416 92.1584 66.1984 92.2132 66.2538 92.2709L66.1358 92.4461C67.4681 93.8321 68.8588 95.1363 70.3071 96.3566L77.5877 90.6585C78.337 91.239 79.1008 91.7926 79.8778 92.3191L77.0855 100.4C77.138 100.431 77.1919 100.461 77.2451 100.493L77.1001 100.912C77.1467 100.94 77.1941 100.966 77.24 100.994L77.1497 101.257C78.7896 102.245 80.4711 103.15 82.1898 103.95L87.7517 96.564C88.692 96.9532 89.6446 97.3074 90.6045 97.6309L90.0083 106.034C90.0244 106.039 90.0418 106.043 90.0579 106.048L90.0222 106.547C90.047 106.554 90.0703 106.561 90.0951 106.567L90.0725 106.891C91.9085 107.418 93.7671 107.842 95.6447 108.173L99.0995 99.6135C100.148 99.7515 101.201 99.8574 102.256 99.9231L104.003 108.99C105.906 109.026 107.814 108.968 109.718 108.804L110.846 99.6361C111.895 99.4988 112.939 99.3294 113.981 99.1169L118.016 107.442C119.856 106.986 121.681 106.427 123.479 105.772L123.361 104.933C123.379 104.927 123.397 104.921 123.414 104.914L122.25 96.5946C123.21 96.1974 124.154 95.7556 125.089 95.2897L131.14 102.283C132.792 101.366 134.407 100.355 135.984 99.2513L135.858 98.957C135.884 98.9409 135.909 98.9234 135.934 98.9066L135.764 98.5006C135.815 98.4641 135.868 98.4305 135.92 98.394L132.603 90.5497C132.945 90.2882 133.289 90.0261 133.627 89.7493C134.036 89.4112 134.43 89.06 134.822 88.7102ZM124.516 77.8785C111.415 88.6766 91.9843 86.7823 81.208 73.6576C78.5301 70.3964 76.6365 66.7429 75.4995 62.9289C72.4776 51.6597 76.025 39.1331 85.587 31.2516C98.6192 20.5089 117.946 22.3937 128.667 35.4497C133.336 41.1376 135.613 48.0209 135.621 54.8677C135.603 56.6597 135.429 58.4466 135.103 60.2087C133.75 66.9102 130.185 73.2063 124.516 77.8785Z" fill="#2A94F4"/>
<path d="M55 75.3727C55 75.3727 54.8604 75.1412 54.6041 74.8488C54.2128 74.3961 53.5503 73.7883 52.7133 73.6064C52.7133 73.6064 49.5695 77.1071 48.1963 78.2849C48.0752 78.3836 47.9415 78.4949 47.8071 78.6011C47.8071 78.6011 47.7752 78.6307 47.7158 78.6812C46.598 79.5517 45.0666 80.5633 43.8776 81.7826C42.1078 78.5209 39.0226 71.6858 36.2487 70.2646L36.2428 70.2616C35.5462 69.9061 34.874 69.889 34.2427 70.3588C34.2427 70.3588 31.1435 73.5055 34.7336 79.0938C35.988 81.042 37.4563 82.57 38.8355 83.7263C40.3862 85.028 41.8218 85.8674 42.7271 86.3312H42.7264C42.7264 86.3312 44.0796 87.2381 45.1394 86.9398C46.1977 86.6407 47.0808 85.503 47.0808 85.503H47.08C49.6586 82.9114 55 75.3727 55 75.3727Z" fill="#FCD2B1"/>
<path d="M54.916 70.9853C54.916 70.9853 57.1802 68.5031 57.4624 68.4761C57.746 68.4484 57.8685 68.5906 57.6651 68.8312C57.4624 69.0733 55.5424 71.2996 55.5424 71.2996C55.5424 71.2996 58.6926 68.8524 58.9201 68.7758C59.0528 68.7306 59.3022 68.9902 59.2045 69.1309C59.1082 69.2702 56.1184 71.8888 56.1184 71.8888C56.1184 71.8888 59.0645 69.6107 59.273 69.6064C59.4553 69.6034 59.6289 69.9024 59.421 70.0876C59.2139 70.2729 56.5946 72.5553 56.5946 72.5553C56.5946 72.5553 58.8399 71.0436 59.0192 71.1516C59.1286 71.2172 59.354 71.4309 58.7626 71.8028C58.1719 72.1725 56.8666 73.205 56.8666 73.205L54.916 70.9853Z" fill="#F1B99E"/>
<path d="M52.7393 74.2806C52.7393 74.2806 53.4349 73.4136 53.1768 72.8084C52.9566 72.295 53.0171 71.4688 53.0368 71.2143C53.0601 70.8745 52.7699 69.7938 53.1717 69.8302C53.5749 69.8674 53.731 71.5898 53.8309 71.9457C53.9308 72.3008 54.7811 70.9386 55.1216 70.8249C55.4629 70.7097 57.5222 72.3869 56.8367 73.2466C56.1513 74.1078 54.8781 74.5322 54.7869 74.7101C54.695 74.8866 54.3114 75.357 54.3114 75.357L52.7393 74.2806Z" fill="#F1B99E"/>
</svg>
