<svg width="149" height="133" viewBox="0 0 149 133" fill="none" xmlns="http://www.w3.org/2000/svg">
<path d="M139.133 27.5932C152.822 47.9405 152.102 80.1656 138.001 101.649C124.003 123.132 96.5214 133.874 70.6867 132.944C44.852 131.912 20.767 119.311 8.82748 99.0668C-3.11206 78.8228 -2.9062 51.039 9.23919 31.6214C21.2817 12.2037 45.1607 1.35874 71.2013 0.119314C97.2418 -1.12011 125.341 7.24601 139.133 27.5932Z" fill="#FDE68A"/>
<path d="M92.5 121C105.479 121 116 93.9132 116 60.5C116 27.0868 105.479 0 92.5 0C79.5213 0 69 27.0868 69 60.5C69 93.9132 79.5213 121 92.5 121Z" fill="#F6A704"/>
<path d="M92 119C103.598 119 113 92.8086 113 60.5C113 28.1913 103.598 2 92 2C80.402 2 71 28.1913 71 60.5C71 92.8086 80.402 119 92 119Z" fill="#8FC7F9"/>
<path d="M89.2068 27.8942C89.2068 27.8942 98.2854 27.0539 101.59 34.1314C104.895 41.2089 100.118 45.7872 102.846 47.1819C105.575 48.581 108.005 49.5339 106.017 52.0331C104.024 54.5323 110.218 54.0255 109.114 56.9059C108.009 59.7863 102.145 60.8388 104.579 61.6661C107.013 62.4934 95.0672 65.8676 95.0672 65.8676L90.974 51.9724L89.2068 27.8942Z" fill="#0B4870"/>
<path d="M86.9155 51.9766C86.9155 51.9766 88.4965 55.0736 86.9155 55.7709C85.3346 56.4726 85.7894 58.5993 86.9155 59.2837C88.0417 59.9637 83.4981 60.7824 83.9355 62.1121C84.373 63.4418 87.9464 64.4207 86.2528 65.8718C86.2528 65.8718 89.2805 64.5464 88.1543 63.2166C87.0282 61.8912 89.0206 60.0937 89.6833 59.1494C90.346 58.2052 87.2707 57.824 88.2756 56.9101C89.2805 55.9919 91.052 53.1548 90.2767 52.2322C89.5014 51.3096 86.9155 51.9766 86.9155 51.9766Z" fill="#0B4870"/>
<path d="M113.545 100.103C113.545 100.103 111.773 103.503 112.93 103.122C114.086 102.741 115.156 100.224 115.156 100.224L113.545 100.103Z" fill="#FAB9AF"/>
<path d="M78.9934 58.842C78.9934 58.842 81.5576 56.0959 82.3805 55.0434C83.2035 53.9908 82.7227 52.6568 82.779 51.9204C82.8354 51.1841 81.9821 52.7434 81.3583 53.6833C80.7346 54.6232 79.171 54.5366 79.7817 53.7396C80.3924 52.9426 81.0725 51.1841 81.9258 51.1278C82.779 51.0715 82.779 50.2485 82.151 50.2182C81.5273 50.1879 78.3177 50.7076 78.3177 50.7076L77.2089 55.953L78.9934 58.842Z" fill="#FAB9AF"/>
<path d="M86.9112 60.5269C86.9112 60.5269 81.5576 70.4545 77.5121 75.0198C78.4217 70.1903 77.3258 61.7397 78.4607 60.1804C79.5955 58.6211 79.0844 54.7575 78.6859 53.5621C78.2874 52.3666 79.0844 52.085 81.2977 52.5961C82.2939 52.8257 80.9122 50.8549 79.2013 50.647C77.4904 50.4391 76.8754 51.6302 76.1304 55.9486C75.3897 60.2671 73.8088 69.8394 71.8986 74.578C70.7248 77.4843 72.0935 82.5824 73.9863 83.7605C75.6886 84.8174 80.8256 78.944 82.8657 76.8433C89.1332 70.3852 88.111 67.847 88.111 67.847L86.9112 60.5269Z" fill="#FFE3CA"/>
<path d="M106.736 59.2837C106.736 59.2837 131.425 78.8789 130.836 82.1708C130.251 85.4583 117.725 100.843 117.725 100.843L116.157 97.5689C121.775 84.2455 120.67 86.8747 121.571 84.7306C122.576 82.3397 123.91 82.2617 123.91 82.2617L109.027 69.4711L106.736 59.2837Z" fill="#FFE3CA"/>
<path d="M87.9204 90.5825L86.2528 100.844L109.114 96.811L106.415 89.4087L87.9204 90.5825Z" fill="#FFE3CA"/>
<path d="M100.403 56.1825C100.403 56.1825 103.167 57.0488 107.095 59.0109C107.095 59.0109 110.491 67.2579 107.299 79.6197C105.796 85.4367 107.542 88.3994 108.425 90.734C108.767 91.6393 86.7163 91.2538 86.7163 91.2538C86.7163 91.2538 88.3059 82.7946 85.8154 77.9174C83.3248 73.0403 83.1472 70.9959 85.5771 64.2346C86.9069 60.5312 86.9069 60.5312 86.9069 60.5312L91.8663 58.0667L100.403 56.1825Z" fill="#F8B936"/>
<path d="M87.6085 48.7065L94.0406 47.1646L100.403 56.1825L94.8983 63.5849L91.4158 58.2139L87.6085 48.7065Z" fill="#FFE3CA"/>
<path d="M90.8787 56.8669C91.5414 57.1874 95.444 55.6064 96.4576 50.5907L94.0363 47.1646L87.6085 48.7065L90.8787 56.8669Z" fill="#FAB9AF"/>
<path d="M81.1678 41.7547C81.1461 40.5765 81.0984 39.2555 81.0421 37.9301C80.8429 33.499 84.0915 29.6614 88.4965 29.146C93.2394 28.5916 97.5014 32.0783 97.8956 36.8385L98.3157 41.9063C98.5453 43.8554 97.4798 46.9004 95.7819 48.7759C92.8235 52.0417 90.5582 53.4278 88.3449 53.6877C84.5592 53.4494 81.2674 47.2989 81.1678 41.7547Z" fill="#FFE3CA"/>
<path d="M99.3293 39.5846C100.568 39.7578 101.842 40.5981 101.547 42.6945C101.252 44.7909 99.5069 47.3464 98.2682 47.1732C97.0294 46.9999 96.2627 45.1591 96.5572 43.067C96.8518 40.9706 98.0906 39.4113 99.3293 39.5846Z" fill="#FFE3CA"/>
<path d="M83.0389 49.4075L80.9011 51.5453L82.0221 52.6662L84.1599 50.5285L83.0389 49.4075Z" fill="#F8B936"/>
<path d="M84.0396 48.4076L83.0391 49.4082L84.1609 50.53L84.724 49.9669C84.8063 49.8846 84.8453 49.7677 84.8236 49.6507L84.646 48.6068C84.6027 48.3123 84.2475 48.1997 84.0396 48.4076Z" fill="#0B4870"/>
<path d="M116.07 97.4521C116.07 97.4521 110.53 98.4917 109.456 99.2497C108.382 100.008 106.485 104.85 107.689 104.928C108.893 105.006 110.296 101.558 111.977 101.723C113.658 101.887 116.793 102.243 117.374 101.363C118.647 99.4359 116.07 97.4521 116.07 97.4521Z" fill="#FFE3CA"/>
<path d="M79.7818 53.7352C80.3925 52.9382 81.0725 51.1797 81.9258 51.1234C82.7791 51.0671 82.7791 50.2441 82.151 50.2138C81.7915 50.1965 80.5701 50.3611 79.5999 50.504" fill="#FAB9AF"/>
<path d="M79.2057 50.6514C80.9166 50.8593 82.2983 52.8301 81.3021 52.6005C79.0887 52.0894 78.2917 52.3753 78.6902 53.5664L77.3778 53.8133L79.2057 50.6514Z" fill="#FFE3CA"/>
<path d="M81.6356 32.1433C81.6356 32.1433 78.4001 35.5434 81.0379 37.9344C83.6757 40.3253 89.796 41.0356 88.1717 39.576C86.5474 38.1163 86.1056 36.3751 86.7164 35.6257C87.3227 34.8807 87.2145 37.0897 88.7608 38.5018C90.3071 39.9138 92.8236 40.1044 95.1756 40.3296C97.5275 40.5549 98.3375 39.8055 98.3375 39.8055C98.3375 39.8055 98.9959 32.6111 96.2541 29.9819C93.521 27.3571 84.3774 26.3609 81.6356 32.1433Z" fill="#0B4870"/>
<path d="M93.6292 39.7362C93.6292 39.7362 96.6871 40.9533 94.9546 42.9804C93.222 45.0075 94.5777 45.4883 95.4873 46.151C96.3926 46.8137 94.5561 48.3037 94.5561 48.3037C94.5561 48.3037 97.2589 47.4201 96.8864 45.9561C96.5182 44.4921 96.241 43.6821 97.5317 42.2441C98.8225 40.8061 98.3331 39.8098 98.3331 39.8098L93.6292 39.7362Z" fill="#0B4870"/>
<path d="M97.5708 46.87C97.5708 46.87 95.5827 52.1499 98.0516 53.8132C100.52 55.4765 100.633 58.5604 99.5242 59.2838C98.4154 60.0071 98.4717 62.2941 100.196 62.9611C101.919 63.6238 101.677 65.7635 100.196 66.6471C98.7143 67.5307 101.036 67.5307 102.548 66.6471C104.059 65.7635 103.249 62.6276 102.032 61.8566C100.815 61.0856 102.755 59.3617 103.371 57.3086C103.986 55.2556 100.404 53.7396 100.404 53.7396L99.94 46.1986C99.94 46.1986 98.6406 48.4726 97.5708 46.87Z" fill="#0B4870"/>
<path d="M86.2744 30.7225C86.2744 30.7225 88.2755 30.1248 90.2376 31.5541C90.2376 31.5541 90.6881 28.99 88.4878 28.7691C86.6296 28.5828 86.2744 30.7225 86.2744 30.7225Z" fill="#2A94F4"/>
<path d="M90.2377 31.5499C90.2377 31.5499 94.8506 32.1693 97.8306 36.1932C97.8306 36.1932 96.947 32.2126 90.2377 29.6311H89.2068L90.2377 31.5499Z" fill="#2A94F4"/>
<path d="M86.9155 29.3712C86.9155 29.3712 84.1954 29.8 82.6448 31.5499C82.6448 31.5499 83.7709 30.9219 86.2745 30.7183L86.9155 29.3712Z" fill="#2A94F4"/>
<path d="M89.2068 29.6354C89.2068 29.6354 91.3638 27.3137 94.006 27.1275C96.6525 26.9412 97.5361 25.0614 97.5361 25.0614C97.5361 25.0614 98.3027 27.9201 96.0287 29.0853C93.7548 30.2504 90.229 30.4583 90.229 30.4583L89.2068 29.6354Z" fill="#2A94F4"/>
<path d="M88.1543 29.1113C88.1543 29.1113 87.0931 26.794 85.1743 26.5731C83.2554 26.3522 81.9647 24.3597 81.9647 24.3597C81.9647 24.3597 80.466 28.0501 82.8699 29.1113C85.2739 30.1725 86.2701 29.7177 86.2701 29.7177L88.1543 29.1113Z" fill="#2A94F4"/>
<path d="M112.514 99.4143C112.514 99.4143 110.552 103.213 110.292 104.058C110.032 104.907 111.111 104.538 111.401 104.058C111.691 103.577 112.055 101.987 113.844 101.623C115.637 101.259 112.514 99.4143 112.514 99.4143Z" fill="#FFE3CA"/>
<path d="M48.1364 27.8942C48.1364 27.8942 39.0578 27.0539 35.753 34.1314C32.4481 41.2089 37.2257 45.7872 34.4969 47.1819C31.7681 48.5766 29.3382 49.5339 31.3263 52.0331C33.3187 54.5323 27.1248 54.0255 28.2294 56.9059C29.3339 59.7863 35.1986 60.8388 32.7643 61.6661C30.3301 62.4934 42.2761 65.8676 42.2761 65.8676L46.3692 51.9724L48.1364 27.8942Z" fill="#0B4870"/>
<path d="M50.4278 51.9766C50.4278 51.9766 48.8468 55.0736 50.4278 55.7709C52.0087 56.4726 51.554 58.5993 50.4278 59.2837C49.3016 59.9681 53.8453 60.7824 53.4078 62.1121C52.9703 63.4418 49.3969 64.4207 51.0905 65.8718C51.0905 65.8718 48.0629 64.5464 49.189 63.2166C50.3152 61.8869 48.3227 60.0937 47.66 59.1494C46.9973 58.2052 50.0726 57.824 49.0677 56.9101C48.0629 55.9919 46.2913 53.1548 47.0666 52.2322C47.8419 51.3096 50.4278 51.9766 50.4278 51.9766Z" fill="#0B4870"/>
<path d="M23.7984 100.103C23.7984 100.103 25.57 103.503 24.4135 103.122C23.257 102.741 22.1871 100.224 22.1871 100.224L23.7984 100.103Z" fill="#FAB9AF"/>
<path d="M58.3499 58.842C58.3499 58.842 55.7857 56.0959 54.9628 55.0434C54.1398 53.9908 54.6206 52.6568 54.5643 51.9204C54.508 51.1841 55.3612 52.7434 55.985 53.6833C56.6087 54.6232 58.1723 54.5366 57.5616 53.7396C56.9509 52.9426 56.2708 51.1841 55.4175 51.1278C54.5643 51.0715 54.5643 50.2485 55.1923 50.2182C55.816 50.1879 59.0256 50.7076 59.0256 50.7076L60.1344 55.953L58.3499 58.842Z" fill="#FAB9AF"/>
<path d="M50.4322 60.5268C50.4322 60.5268 55.7858 70.4544 59.8313 75.0197C58.9217 70.1902 60.0175 61.7396 58.8827 60.1803C57.7479 58.621 58.259 54.7574 58.6575 53.5619C59.056 52.3665 58.259 52.0849 56.0457 52.596C55.0494 52.8256 56.4312 50.8548 58.1421 50.6469C59.853 50.439 60.468 51.6301 61.213 55.9485C61.9537 60.2669 63.5346 69.8393 65.4448 74.5779C66.6186 77.4842 65.2499 82.5823 63.3571 83.7604C61.6548 84.8173 56.5178 78.9439 54.4777 76.8432C48.2102 70.3851 49.2324 67.8469 49.2324 67.8469L50.4322 60.5268Z" fill="#FFE3CA"/>
<path d="M30.6073 59.2837C30.6073 59.2837 5.91838 78.8789 6.50745 82.1708C7.09218 85.4583 19.6186 100.843 19.6186 100.843L21.1865 97.5689C15.5687 84.2455 16.6732 86.8747 15.7723 84.7306C14.7674 82.3397 13.4333 82.2617 13.4333 82.2617L28.316 69.4711L30.6073 59.2837Z" fill="#FFE3CA"/>
<path d="M49.4229 90.5825L51.0905 100.844L28.2294 96.811L30.9278 89.4087L49.4229 90.5825Z" fill="#FFE3CA"/>
<path d="M36.9356 56.1825C36.9356 56.1825 34.1721 57.0488 30.2435 59.0109C30.2435 59.0109 26.8477 67.2579 30.04 79.6197C31.543 85.4367 29.7974 88.3994 28.9138 90.734C28.5716 91.6393 50.6228 91.2538 50.6228 91.2538C50.6228 91.2538 49.0331 82.7946 51.5237 77.9174C54.0142 73.0403 54.1918 70.9959 51.7619 64.2346C50.4322 60.5312 50.4322 60.5312 50.4322 60.5312L45.4727 58.0667L36.9356 56.1825Z" fill="#F8B936"/>
<path d="M49.7305 48.7065L43.3027 47.1646L36.9355 56.1825L42.4451 63.5849L45.9275 58.2139L49.7305 48.7065Z" fill="#FFE3CA"/>
<path d="M46.4646 56.8669C45.8019 57.1874 41.8993 55.6064 40.8857 50.5907L43.307 47.1646L49.7348 48.7065L46.4646 56.8669Z" fill="#FAB9AF"/>
<path d="M56.1756 41.7547C56.1972 40.5765 56.2449 39.2555 56.3012 37.9301C56.5004 33.499 53.2519 29.6614 48.8469 29.146C44.104 28.5916 39.8419 32.0783 39.4477 36.8385L39.0276 41.9063C38.798 43.8554 39.8635 46.9004 41.5614 48.7759C44.5198 52.0417 46.7851 53.4278 48.9985 53.6877C52.7841 53.4494 56.0759 47.2989 56.1756 41.7547Z" fill="#FFE3CA"/>
<path d="M38.014 39.5846C36.7752 39.7578 35.5018 40.5981 35.7963 42.6945C36.0909 44.7909 37.8364 47.3464 39.0752 47.1732C40.314 46.9999 41.0807 45.1591 40.7861 43.067C40.4916 40.9706 39.2528 39.4113 38.014 39.5846Z" fill="#FFE3CA"/>
<path d="M53.1819 50.5296L55.3197 52.6674L56.4407 51.5464L54.3029 49.4086L53.1819 50.5296Z" fill="#F8B936"/>
<path d="M53.3038 48.4076L54.3044 49.4082L53.1825 50.53L52.6194 49.9669C52.5371 49.8846 52.4982 49.7677 52.5198 49.6507L52.6974 48.6068C52.7407 48.3123 53.0959 48.1997 53.3038 48.4076Z" fill="#0B4870"/>
<path d="M21.2731 97.4521C21.2731 97.4521 26.813 98.4917 27.8872 99.2497C28.9614 100.008 30.8585 104.85 29.6544 104.928C28.4503 105.01 27.0469 101.558 25.3663 101.723C23.6857 101.887 20.5498 102.243 19.9694 101.363C18.696 99.4359 21.2731 97.4521 21.2731 97.4521Z" fill="#FFE3CA"/>
<path d="M57.5616 53.7352C56.9509 52.9382 56.2708 51.1797 55.4176 51.1234C54.5643 51.0671 54.5643 50.2441 55.1923 50.2138C55.5518 50.1965 56.7733 50.3611 57.7435 50.504" fill="#FAB9AF"/>
<path d="M58.1377 50.6512C56.4268 50.8592 55.0451 52.8299 56.0413 52.6004C58.2546 52.0893 59.0516 52.3751 58.6531 53.5663L59.9655 53.8132L58.1377 50.6512Z" fill="#FFE3CA"/>
<path d="M55.7078 32.1433C55.7078 32.1433 58.9434 35.5434 56.3055 37.9344C53.6677 40.3253 47.5475 41.0356 49.1717 39.576C50.796 38.1163 51.2378 36.3751 50.6271 35.6257C50.0163 34.8764 50.129 37.0897 48.5827 38.5018C47.0363 39.9138 44.5198 40.1044 42.1679 40.3296C39.8159 40.5549 39.0059 39.8055 39.0059 39.8055C39.0059 39.8055 38.3476 32.6111 41.0893 29.9819C43.8225 27.3571 52.966 26.3609 55.7078 32.1433Z" fill="#0B4870"/>
<path d="M43.7141 39.7362C43.7141 39.7362 40.6562 40.9533 42.3887 42.9804C44.1213 45.0075 42.7656 45.4883 41.856 46.151C40.9507 46.8137 42.7872 48.3037 42.7872 48.3037C42.7872 48.3037 40.0844 47.4201 40.4569 45.9561C40.8251 44.4921 41.1023 43.6821 39.8115 42.2441C38.5208 40.8061 39.0102 39.8098 39.0102 39.8098L43.7141 39.7362Z" fill="#0B4870"/>
<path d="M39.7682 46.87C39.7682 46.87 41.7563 52.1499 39.2874 53.8132C36.8185 55.4765 36.7059 58.5604 37.8148 59.2838C38.9236 60.0071 38.8673 62.2941 37.1434 62.9611C35.4195 63.6238 35.6621 65.7635 37.1434 66.6471C38.6247 67.5307 36.3031 67.5307 34.7914 66.6471C33.2798 65.7635 34.0898 62.6276 35.3069 61.8566C36.524 61.0813 34.5835 59.3617 33.9685 57.3086C33.3534 55.2556 36.9355 53.7396 36.9355 53.7396L37.3989 46.1986C37.4033 46.1986 38.7027 48.4726 39.7682 46.87Z" fill="#0B4870"/>
<path d="M51.0645 30.7225C51.0645 30.7225 49.0634 30.1248 47.1012 31.5541C47.1012 31.5541 46.6508 28.99 48.8511 28.7691C50.7136 28.5828 51.0645 30.7225 51.0645 30.7225Z" fill="#2A94F4"/>
<path d="M47.1056 31.5499C47.1056 31.5499 42.4927 32.1693 39.5127 36.1932C39.5127 36.1932 40.3963 32.2126 47.1056 29.6311H48.1365L47.1056 31.5499Z" fill="#2A94F4"/>
<path d="M50.4279 29.3712C50.4279 29.3712 53.148 29.8 54.6986 31.5499C54.6986 31.5499 53.5725 30.9219 51.0689 30.7183L50.4279 29.3712Z" fill="#2A94F4"/>
<path d="M48.1365 29.6354C48.1365 29.6354 45.9794 27.3137 43.3373 27.1275C40.6908 26.9412 39.8072 25.0614 39.8072 25.0614C39.8072 25.0614 39.0406 27.9201 41.3145 29.0853C43.5885 30.2504 47.1143 30.4583 47.1143 30.4583L48.1365 29.6354Z" fill="#2A94F4"/>
<path d="M49.1891 29.1113C49.1891 29.1113 50.2503 26.794 52.1691 26.5731C54.0879 26.3522 55.3786 24.3597 55.3786 24.3597C55.3786 24.3597 56.8773 28.0501 54.4734 29.1113C52.0695 30.1725 51.0732 29.7177 51.0732 29.7177L49.1891 29.1113Z" fill="#2A94F4"/>
<path d="M24.8292 99.4141C24.8292 99.4141 26.7913 103.213 27.0512 104.057C27.3111 104.906 26.2326 104.538 25.9424 104.057C25.6522 103.577 25.2883 101.987 23.4995 101.623C21.7063 101.259 24.8292 99.4141 24.8292 99.4141Z" fill="#FFE3CA"/>
<path opacity="0.37" d="M72.0532 116C71.3686 107.543 71 98.5047 71 89.1159C71 41.5563 80.5011 3 92.2184 3C99.0425 3 105.116 16.0803 109 36.4048" fill="#CCE9FF"/>
</svg>
